<svg width="303" height="80" viewBox="0 0 303 80" fill="none" xmlns="http://www.w3.org/2000/svg">
<path d="M117.302 0.855553C101.37 2.10728 88.9178 4.89416 66.8778 12.1211C64.5341 12.9005 57.5977 15.7582 54.3781 17.317C50.5904 19.1356 47.3708 20.8833 38.5879 25.9374C29.9234 30.9207 27.2009 32.7393 24.5968 35.3372C22.6319 37.2739 21.8033 38.5728 20.667 41.4542C20.4776 41.9265 19.7911 42.3044 17.258 43.32C13.3519 44.9023 8.97227 47.1224 6.22614 48.8937C3.71675 50.4997 0 53.2866 0 53.5228C0 53.6172 0.615512 53.9006 1.37307 54.1132C3.40899 54.7509 7.36247 54.7036 9.84819 53.9951C11.9551 53.4047 16.4294 51.3263 19.0099 49.7676C20.7617 48.6812 20.7144 48.6575 20.9274 50.5469C21.1168 52.1057 22.4188 54.7509 23.6735 56.1679C25.7331 58.4825 29.2605 60.5136 33.8768 62.0251C36.9307 63.017 43.0385 64.3632 44.5299 64.3632C45.9503 64.3632 45.5952 63.8436 43.8907 63.4185C41.5707 62.8281 38.6826 61.1512 36.765 59.2618C35.7471 58.2935 35.0368 57.3724 35.0368 57.1126C35.0368 56.4041 35.9364 55.3885 36.552 55.3885C37.4515 55.3885 39.9846 57.5141 42.5414 60.3955C45.903 64.1979 47.7495 65.2843 51.703 65.7803C53.8573 66.0401 56.9822 65.8511 60.9594 65.1898C62.1431 65.0009 63.1847 64.8356 63.3267 64.8356C63.4451 64.8356 63.4451 64.7411 63.3031 64.5994C63.1847 64.4813 62.2614 64.2688 61.2435 64.1271C57.3373 63.5838 54.2834 62.0015 50.9455 58.8367C49.6434 57.6086 48.9095 56.5222 49.17 56.2388C49.9749 55.4594 56.7218 58.2699 63.2557 62.1432C69.7186 65.9692 72.4647 66.8195 78.5251 66.8195C81.6974 66.8431 82.6917 66.725 82.3603 66.3943C82.3129 66.3471 80.8688 66.1345 79.1643 65.9456C75.6843 65.5205 75.0688 65.3315 72.6304 63.7492C69.0557 61.4583 66.1202 57.8448 61.6696 50.3108C57.4557 43.1783 53.9047 38.5256 51.4189 36.9432C50.8508 36.589 50.4957 36.2583 50.5904 36.1875C50.6851 36.1402 51.5373 35.8804 52.4369 35.6679L54.1177 35.2428L55.7275 36.0221C57.6451 36.9668 60.5096 39.5648 62.3088 41.9501C62.9716 42.8476 63.5635 43.5798 63.6108 43.5798C63.6582 43.5798 63.2557 42.9185 62.6875 42.0918C61.1488 39.8482 57.8818 36.7307 56.1536 35.8096C55.3251 35.3845 54.6859 35.0066 54.7332 34.9593C54.7806 34.9121 55.9879 34.5578 57.4083 34.18C59.7047 33.5423 60.2018 33.4714 61.6933 33.6368C62.6402 33.7548 63.8712 34.0855 64.4867 34.3925C66.0018 35.1247 68.4165 37.699 70.9023 41.218C73.5774 44.9968 76.8443 48.7048 82.5023 54.3494C87.5921 59.4508 90.0778 61.3874 93.9603 63.3477L96.6354 64.7175L95.0019 64.93C93.6762 65.0954 92.6819 65.0245 90.0542 64.5994C84.4672 63.7019 81.2239 62.5211 77.3178 59.9231C75.0688 58.4352 71.281 54.7745 69.4108 52.271C67.9194 50.2399 67.2329 49.5314 68.0614 50.8304C71.6125 56.3333 76.3709 60.6789 81.8158 63.3949C83.8754 64.4105 86.5031 65.3552 88.5627 65.8275L89.8411 66.1109L88.184 66.2763C87.2844 66.3707 85.6982 66.5124 84.6803 66.6069C81.6264 66.8667 82.8811 67.1973 86.9529 67.1973C89.5807 67.1973 91.3089 67.0792 92.4452 66.8195C93.3685 66.6069 94.7178 66.3943 95.4754 66.3235C96.375 66.229 96.8248 66.0873 96.8248 65.8748C96.8248 65.5205 97.8428 65.5677 101.773 66.1818C103.453 66.418 104.897 66.4888 106.389 66.3943C112.071 65.9928 113.751 65.9692 115.503 66.2763C118.226 66.7722 121.706 66.6541 123.529 66.0401C124.404 65.733 125.257 65.5913 125.541 65.6858C125.801 65.7803 128.003 65.922 130.418 66.0165C132.832 66.1345 136.123 66.418 137.709 66.6778C139.627 67.0084 141.615 67.1501 143.651 67.1501C145.474 67.1501 146.894 67.2446 147.178 67.4099C148.386 68.0476 150.635 68.4018 154.352 68.5199C157.571 68.6144 158.542 68.7561 159.915 69.2048C161.643 69.7717 164.46 70.3621 166.662 70.6219C167.372 70.7164 169.076 71.1415 170.45 71.5666C171.823 72.0153 173.527 72.5113 174.237 72.7002C174.947 72.8892 175.965 73.3143 176.463 73.6686C177.694 74.4952 179.232 74.9439 182.452 75.3926C184.346 75.6524 185.459 75.676 186.24 75.5343C187.116 75.369 187.637 75.4163 188.56 75.6997C189.223 75.9358 191.353 76.3846 193.294 76.7388C197.177 77.4237 197.698 77.5418 200.16 78.2976C201.367 78.6755 202.977 78.8644 206.197 79.0534C211.76 79.384 213.748 79.3604 214.814 78.9117C215.5 78.6282 216.045 78.6046 217.655 78.77C219.714 79.0061 223.786 78.7463 224.615 78.3212C224.828 78.2031 226.106 77.9906 227.408 77.8489C231.717 77.3529 236.57 75.9358 239.245 74.3771C239.813 74.0464 241.281 73.5741 242.583 73.3143C244.713 72.8656 246.607 72.1098 249.282 70.6691C251.2 69.6063 252.526 69.0867 253.236 69.0867C254.893 69.0867 259.273 67.1737 261.451 65.4969C262.398 64.7647 264.86 62.6155 266.635 60.9859C267.227 60.4191 268.079 59.994 269.239 59.6397C272.411 58.6714 276.199 56.5222 279.229 53.9951C280.011 53.3338 281.384 52.2002 282.26 51.468C283.136 50.7595 284.248 49.6259 284.722 48.9882C285.219 48.3505 286.189 47.453 286.923 46.9807C287.634 46.4847 288.746 45.6817 289.385 45.1385C290.924 43.8868 293.292 40.8637 293.481 39.9899C293.552 39.612 293.931 39.0924 294.357 38.809C296.843 37.0613 298.95 34.7704 300.37 32.2433C302.193 28.9841 303.353 24.5912 302.903 22.5837C302.737 21.7807 302.311 21.5918 302.311 22.3003C302.311 22.938 298.736 26.2445 296.369 27.8268C292.818 30.1886 289.291 31.6529 282.307 33.7076L278.283 34.8885L273.074 35.0066C258.539 35.3608 245.85 33.6368 233.658 29.6218C227.313 27.5434 217.276 23.7646 216.731 23.245C216.613 23.1269 216.329 23.0325 216.116 23.0325C215.903 23.0325 213.512 22.135 210.789 21.0486C205.984 19.1119 198.763 16.3723 193.602 14.5065C192.182 14.0105 190.17 13.1839 189.104 12.6407C187.21 11.7433 183.991 10.7513 182.854 10.7513C182.57 10.7513 182.168 10.6096 182.002 10.4207C181.813 10.2317 181.032 9.97194 180.25 9.80662C177.978 9.35788 172.249 7.65742 171.87 7.32677C171.681 7.16145 170.923 6.97251 170.213 6.87804C169.503 6.78357 167.041 6.24036 164.768 5.67354C162.495 5.10672 158.4 4.20925 155.654 3.66605C152.931 3.12284 150.658 2.57964 150.611 2.46155C150.564 2.34346 150.019 2.24899 149.427 2.24899C147.344 2.24899 141 1.30429 140.81 0.973641C140.668 0.737465 138.632 0.666612 130.157 0.666612C124.381 0.666612 118.604 0.737465 117.302 0.855553ZM131.033 1.7294C130.891 1.84749 130.062 2.17814 129.139 2.48517C126.961 3.21731 124.925 4.09116 119.315 6.66548C116.782 7.84636 113.42 9.35788 111.857 10.0428C106.602 12.3337 103.477 14.0578 100.778 16.1125C99.1211 17.3879 97.2036 19.3245 96.4223 20.4581L95.8779 21.3084L91.9244 21.9224C89.7701 22.2767 87.9472 22.5365 87.8999 22.4893C87.8525 22.442 88.6574 21.4501 89.6991 20.2928C95.3334 13.9633 105.395 7.20868 113.136 4.51628C118.557 2.62687 123.86 1.5877 128.192 1.56408C129.873 1.54046 131.151 1.63493 131.033 1.7294ZM115.172 2.86305C108.401 5.50822 100.542 9.99556 95.4044 14.1523C93.1791 15.9708 89.6991 19.3954 88.2313 21.2848C87.1186 22.7018 87.095 22.7254 85.3905 23.0325C82.6917 23.5048 75.708 24.8746 73.8615 25.2997C72.9382 25.5123 72.1096 25.6068 72.0386 25.5595C71.8492 25.347 73.9088 22.3712 75.5186 20.5526C78.8092 16.821 82.6207 13.8688 91.4746 8.15339L96.6828 4.82331L99.4999 4.23287C101.062 3.92584 102.459 3.66605 102.601 3.66605C102.743 3.66605 102.08 4.09116 101.133 4.61075C98.7424 5.90972 97.1562 7.01974 93.108 10.2081C91.1905 11.7196 88.2313 14.0342 86.5505 15.3331C81.508 19.2536 78.9276 22.2058 79.4247 23.4576C79.5668 23.8118 79.6615 23.7646 80.1823 23.1505C83.2599 19.5371 84.988 17.6949 87.0003 15.9C91.1905 12.1448 95.8068 8.86191 100.684 6.16951C101.56 5.67354 102.27 5.31928 102.27 5.36651C102.27 5.43736 101.773 5.83886 101.157 6.2876C98.9081 7.86997 97.2272 9.68853 98.3872 9.23979C98.624 9.14532 100.186 8.20062 101.891 7.11421C105.631 4.72884 107.312 3.8786 109.49 3.21731C111.266 2.67411 114.817 2.08367 116.355 2.06005C117.231 2.03643 117.113 2.10728 115.172 2.86305ZM141.331 2.31984L143.343 2.60325L141.568 2.9339C137.212 3.71328 129.66 5.98057 124.097 8.177C118.604 10.3734 113.657 13.1367 110.271 15.9C107.786 17.9311 106.72 19.1592 108.946 17.4115C116.213 11.7196 126.062 7.01974 133.874 5.55545C134.655 5.41375 136.241 5.0831 137.378 4.84692C142.112 3.85499 145.261 3.7369 150.871 4.39819C153.215 4.6816 153.973 5.0831 152.174 5.0831C150.706 5.0831 145.947 5.90972 142.515 6.73633C137.449 7.98806 124.31 11.9322 122.155 12.8533C118.273 14.5301 116.213 16.0653 115.29 17.9783C115.006 18.5451 114.722 19.0175 114.651 19.0175C113.633 19.0175 97.7007 21.025 96.7064 21.2848C95.8068 21.5209 100.376 17.3879 102.885 15.711C105.892 13.7271 109.466 11.885 116.592 8.74382C123.126 5.83886 127.908 4.09116 132.453 2.9339C136.336 1.94196 137.851 1.84749 141.331 2.31984ZM156.695 4.75245C156.743 4.79969 156.458 4.84692 156.056 4.84692C155.63 4.84692 155.298 4.72884 155.298 4.61075C155.298 4.39819 156.411 4.51628 156.695 4.75245ZM163.229 6.12227C164.626 6.50015 164.365 6.64186 161.927 6.8308C159.181 7.04336 156.387 7.56295 150.09 9.12171C146.894 9.90109 142.633 10.9166 140.621 11.3654C133.116 13.0186 129.092 14.908 127.742 17.4115L127.293 18.2381L122.298 18.5215C119.551 18.6632 116.853 18.8758 116.308 18.9466C115.669 19.0175 115.29 18.9939 115.29 18.8285C115.29 18.6868 115.906 17.9547 116.687 17.1753C119.433 14.3884 123.008 12.7824 131.696 10.4207C142.325 7.51571 148.22 6.52377 157.666 6.05142C159.82 5.95695 161.69 5.83886 161.809 5.83886C161.951 5.81524 162.59 5.93333 163.229 6.12227ZM91.8297 6.35845C91.7823 6.4293 90.8827 7.01974 89.8411 7.70465C84.2305 11.3418 75.0215 19.3717 72.9145 22.442C72.4647 23.0797 71.8019 24.1425 71.4704 24.7802L70.8312 25.9374L67.73 26.6932C66.0255 27.1183 64.6288 27.3781 64.6288 27.3072C64.6288 26.5751 68.677 21.639 71.5414 18.8758C73.5064 16.9864 78.5015 12.6407 78.7145 12.6407C78.7856 12.6407 78.2884 13.302 77.6492 14.105C76.5366 15.4985 76.2762 15.9472 76.6076 15.9472C76.7023 15.9472 77.7676 14.9789 78.9986 13.8216C82.8811 10.1136 85.8166 8.15339 89.3203 6.94889C91.0721 6.33483 92.0901 6.09866 91.8297 6.35845ZM172.604 8.55488C173.906 8.90915 174.947 9.28703 174.947 9.35788C174.947 9.42873 174.237 9.52321 173.361 9.54682C170.994 9.61768 167.372 10.1609 162.164 11.2473C156.719 12.3573 155.133 12.6643 150.611 13.4673C145.403 14.3884 142.751 15.4512 140.763 17.4587L139.792 18.427L133.756 18.3089L127.719 18.1909L129.139 17.0572C132.927 14.0814 136.028 13.0422 151.511 9.71215C158.636 8.177 159.962 8.0353 166.283 7.96444C169.976 7.91721 170.45 7.96444 172.604 8.55488ZM82.1472 8.64935C80.9635 9.35788 78.5962 11.2945 73.8615 15.3804C67.8247 20.5999 65.7414 22.8908 64.0133 26.2208L63.2794 27.6379L60.1071 28.5117C58.3553 29.0077 56.8639 29.3856 56.7455 29.4092C56.4614 29.4092 58.8524 25.7012 60.6753 23.2686C62.8533 20.3873 66.9961 16.2306 69.6712 14.2467C72.8198 11.9086 76.4892 9.9247 79.0696 9.12171C82.7627 8.01168 83.3782 7.91721 82.1472 8.64935ZM173.054 11.3654C169.455 12.1211 167.49 12.7352 167.49 13.1367C167.49 13.5146 167.632 13.5146 172.817 12.8769C180.227 11.9558 183.636 12.0031 187.258 13.1367L189.033 13.7035L187.139 13.8452C186.098 13.9397 182.215 14.0814 178.499 14.1759C170.284 14.3412 162.495 14.6955 159.796 15.0025C155.369 15.5221 151.96 16.7502 150.114 18.4979L149.096 19.4426L145.64 18.9939C143.722 18.7577 141.734 18.5451 141.213 18.5451C140.124 18.5451 140.218 18.427 142.136 17.2698C143.698 16.3251 145.829 15.4748 148.433 14.7663C150.824 14.1286 162.779 11.8141 166.188 11.3654C170.189 10.8222 170.094 10.8222 173.054 10.7986L175.776 10.7749L173.054 11.3654ZM68.6296 13.2784C67.5169 14.0342 63.6108 17.9783 62.0247 19.9622C60.2728 22.1586 57.503 26.3153 56.4377 28.3464L55.7749 29.5981L53.0761 30.472C51.5847 30.9444 50.33 31.275 50.2589 31.2041C50.0459 31.0152 52.2238 27.1183 54.094 24.3078C55.7275 21.8752 59.8704 17.1753 60.8884 16.6321C61.1251 16.514 60.6279 17.2462 59.7994 18.2853C58.1185 20.3637 57.6451 21.0958 57.8818 21.332C57.9765 21.4265 59.4206 20.0566 61.1014 18.2853C62.7822 16.514 64.6998 14.6955 65.3627 14.2703C67.2092 13.0895 70.3104 12.1448 68.6296 13.2784ZM195.686 16.1125C198.574 17.1753 200.42 18.0019 200.231 18.0964C199.734 18.3562 193.271 18.8049 191.685 18.6632C190.88 18.5924 188.299 18.3798 185.956 18.1672C180.795 17.6949 172.012 17.813 168.627 18.4034C165.999 18.8521 162.992 19.7732 161.169 20.6943L159.796 21.3792L155.014 20.5526C152.363 20.1039 150.114 19.726 150.019 19.726C149.617 19.726 150.185 19.1828 151.392 18.4034C153.12 17.317 155.819 16.4668 158.944 16.018C161.004 15.7346 163.442 15.6638 170.213 15.711C185.174 15.8291 185.364 15.8055 187.305 15.404C188.299 15.1914 189.459 14.8608 189.909 14.6718C190.335 14.4829 190.714 14.3176 190.761 14.3176C190.785 14.294 193.01 15.1206 195.686 16.1125ZM58.9471 17.2698C56.059 19.9622 52.6263 24.7329 50.401 29.2203L49.1463 31.7473L45.5716 32.9755C43.6303 33.6604 41.8548 34.2744 41.6654 34.3453C41.476 34.4161 41.8075 33.8965 42.3993 33.188C42.9912 32.4795 44.5773 30.3303 45.9267 28.4173C48.6491 24.4968 50.3773 22.5365 52.721 20.6235C54.7569 18.9466 59.5863 15.9472 60.2018 15.9472C60.2965 15.9472 59.752 16.5376 58.9471 17.2698ZM187.921 19.4662C194.975 20.4109 198.219 20.3637 201.415 19.2536L202.811 18.7813L207.357 20.5762C209.866 21.5682 211.878 22.4184 211.831 22.442C211.784 22.4893 210.908 22.4184 209.866 22.3239C208.824 22.2058 204.516 21.9461 200.278 21.7335C196.041 21.5209 191.093 21.2611 189.27 21.1667C183.304 20.8124 178.712 21.3792 175.042 22.938L173.125 23.7646L167.112 22.6782C163.821 22.0641 161.075 21.5446 161.004 21.4973C160.72 21.2139 165.762 19.7969 168.556 19.3717C172.036 18.8285 172.32 18.8285 178.499 18.8994C182.641 18.9466 185.34 19.1119 187.921 19.4662ZM142.538 19.3717C146.681 19.7732 154.991 20.9069 157.903 21.4973C158.873 21.6863 160.009 21.8988 160.388 21.9461C161.406 22.0878 170.805 23.6701 172.343 24.0008C176.889 24.8983 184.677 26.3625 185.459 26.457C186.003 26.5279 186.453 26.4806 186.548 26.3153C186.808 25.9374 193.081 26.0083 195.899 26.4334C197.201 26.6223 200.302 27.1655 202.764 27.6143C212.47 29.3856 216.873 29.2911 220.898 27.2836L222.318 26.5515L224.259 27.3072C225.325 27.7324 227.953 28.6771 230.107 29.4564L234.013 30.8263L228.686 30.7318C225.23 30.6846 221.868 30.4484 219.099 30.1177C213.914 29.4801 209.345 29.5745 206.268 30.3303C204.8 30.7082 204.161 30.7554 203.687 30.5901C201.628 29.8107 187.471 26.457 186.95 26.646C186.832 26.6696 187.613 26.9057 188.702 27.1419C191.945 27.8268 196.396 28.9132 200.041 29.9052C203.758 30.9207 212.636 33.7076 212.517 33.8257C212.47 33.8729 209.464 33.2116 205.818 32.385C190.312 28.8188 167.372 24.2606 157.666 22.8199C153.12 22.135 146.421 21.4501 141.331 21.1194C135.91 20.7652 123.387 20.9541 116.947 21.4973C100.471 22.8199 82.8337 26.0791 65.8125 30.9444C62.8769 31.771 58.8998 32.881 56.9349 33.377C54.9936 33.8965 50.614 35.1247 47.2287 36.093C34.5397 39.7773 30.2785 41.5723 22.1584 46.7445C13.1151 52.4836 9.80085 53.9243 5.32655 54.0423C3.3143 54.0896 1.18368 53.8298 1.18368 53.5228C1.18368 53.4283 2.01225 52.767 3.00654 52.0349C6.9837 49.2244 11.8368 46.6264 17.258 44.4064C22.4188 42.3044 49.7618 32.7157 56.1063 30.8026C73.6484 25.4887 100.139 20.6235 118.415 19.3954C125.044 18.9466 137.733 18.923 142.538 19.3717ZM50.33 21.6626C47.8206 24.1897 45.6426 27.0238 42.6597 31.6529L40.5528 34.9121L37.7356 35.904C33.3087 37.4628 33.7111 37.4864 34.587 35.7387C36.2915 32.3614 39.2034 28.5117 41.7365 26.3153C43.725 24.5676 46.9446 22.4184 49.8091 20.9069C51.2532 20.1275 52.4606 19.4898 52.4842 19.4898C52.4842 19.4898 51.5373 20.4818 50.33 21.6626ZM139.058 22.3476C143.651 23.1978 147.699 28.37 150.777 37.2502C151.818 40.2969 152.387 42.824 152.836 46.4139L153.144 48.8937L153.073 45.7053C153.002 43.2019 152.836 41.9974 152.339 40.0607C151.037 35.0302 148.386 29.5037 145.687 26.15C144.882 25.158 144.267 24.2842 144.314 24.237C144.527 24.0008 146.847 25.654 148.386 27.1419C153.049 31.6293 155.559 37.6517 158.139 50.4289C158.968 54.5855 159.844 57.9629 160.554 59.7342C161.951 63.2768 164.034 66.6778 166.117 68.7325C166.851 69.4646 167.088 69.7953 166.78 69.7244C166.52 69.6536 165.62 69.4646 164.768 69.3229C162.898 69.0159 160.459 68.1657 160.649 67.8822C160.72 67.7642 160.507 67.6697 160.152 67.6697C158.897 67.6697 154.872 65.2607 152.505 63.0643C150.564 61.2693 149.143 59.4035 147.818 56.9237C146.326 54.1368 145.356 51.161 143.935 44.9023C143.272 41.9265 142.396 38.3603 141.994 36.9905C140.124 30.3067 137.307 25.1344 134.513 23.1742C132.501 21.7807 132.453 21.8516 135.271 21.9933C136.715 22.0641 138.396 22.2295 139.058 22.3476ZM191.306 22.2058C193.318 22.4184 197.201 22.9144 199.923 23.3159C204.35 23.9772 205.51 24.0716 210.505 24.0953L216.139 24.1425L218.507 25.0636C219.809 25.5595 220.874 26.0555 220.874 26.1264C220.874 26.1972 219.738 26.5279 218.341 26.8349C216.187 27.3072 215.169 27.4017 211.878 27.4017C208.54 27.3781 207.191 27.26 202.646 26.5279C199.71 26.0555 196.277 25.5359 195.023 25.3942C192.419 25.0636 185.814 25.1817 184.89 25.5832C184.417 25.7721 183.257 25.6068 179.564 24.8983C176.96 24.4023 174.782 23.9772 174.711 23.9772C174.379 23.9535 175.468 23.4576 176.841 23.0088C180.274 21.8516 185.032 21.5918 191.306 22.2058ZM132.453 23.0088C134.845 24.1425 136.596 26.1736 138.396 29.9524C140.1 33.5895 141.236 37.5337 142.988 45.9415C144.267 52.1057 145.758 55.9318 148.362 59.8523C149.972 62.2613 152.907 65.3788 154.754 66.6541L156.08 67.5516L154.683 67.6225C151.818 67.7878 150.422 67.4807 147.77 66.1109C143.438 63.8673 140.668 61.6236 138.135 58.2699C135.2 54.373 133.661 50.4761 131.317 41.0999C129.849 35.29 128.95 32.5503 127.553 29.7635C125.896 26.4334 123.907 24.2133 121.611 23.1505C120.617 22.6782 120.546 22.6073 121.019 22.4656C124.665 21.4973 129.731 24.9927 132.311 30.2122C133.921 33.4714 134.537 35.7623 136.454 45.5873C137.33 50.0982 137.922 52.3183 138.23 52.3183C138.561 52.3183 137.614 45.0677 136.667 40.5095C134.821 31.3695 131.222 25.04 126.535 22.6546L125.351 22.0405L128.192 22.2058C130.607 22.3239 131.246 22.4656 132.453 23.0088ZM147.865 22.6782C154.115 23.3395 157.476 23.8827 159.015 24.5204C162.945 26.1264 166.259 29.362 168.508 33.8021C170.165 37.0849 171.396 41.3125 173.172 49.9565C174.545 56.5458 175.445 60.1357 176.392 62.8517C177.883 67.0792 180.298 70.8581 182.689 72.7002C185.316 74.7077 185.316 74.566 182.76 74.4007C180.392 74.2354 178.735 73.9283 178.735 73.5977C178.735 73.2198 176.392 72.1806 173.409 71.2359C168.65 69.748 166.425 68.024 164.01 63.9617C161.809 60.2302 160.862 57.3488 159.323 49.6022C157.808 42.0682 156.529 37.6281 154.588 33.495C152.031 27.9922 148.054 24.0008 143.864 22.6782C142.917 22.3712 142.894 22.3712 143.604 22.3476C144.006 22.3239 145.924 22.4893 147.865 22.6782ZM120.001 23.6229C122.889 24.5912 124.902 26.5987 126.772 30.472C128.216 33.4006 129.021 36.0221 130.56 42.5878C131.151 45.1149 131.956 48.1379 132.359 49.3188C134.442 55.6011 138.609 62.0015 142.515 64.9773C143.154 65.4733 143.651 65.8984 143.604 65.9456C143.556 65.9928 142.231 65.4969 140.645 64.812C135.649 62.71 132.051 60.2302 129.139 56.8765C125.943 53.2393 124.12 49.9329 120.759 41.6195C119.433 38.3839 117.871 34.7704 117.255 33.5895C115.006 29.2439 112.118 26.15 108.993 24.7565C108.164 24.4023 107.478 24.0244 107.478 23.9535C107.478 23.8827 109.372 23.6229 111.692 23.4103C113.988 23.1742 115.977 22.9616 116.119 22.938C116.521 22.8435 118.936 23.2686 120.001 23.6229ZM301.483 26.764C301.151 27.6379 300.607 29.0549 300.252 29.9288C299.778 31.1569 299.186 32.0308 297.718 33.6368C293.244 38.5964 289.196 41.0763 283.964 42.0682C282.189 42.3989 281.029 42.4225 277.099 42.3044C274.495 42.2336 271.938 42.0682 271.417 41.9738C270.494 41.7848 270.541 41.7612 272.719 41.3597C273.95 41.1235 275.939 40.8637 277.099 40.7456C280.934 40.4386 285.645 38.6437 287.397 36.8487C287.847 36.4 288.154 35.9749 288.083 35.9277C288.012 35.8568 286.923 36.4 285.669 37.1085C282.473 38.9271 281.218 39.3286 277.336 39.6829C275.513 39.8718 272.104 40.3441 269.76 40.7456C264.481 41.6431 260.527 41.8557 255.438 41.4542C249.424 41.0291 249.069 40.911 252.597 40.5331C259.793 39.8009 263.084 39.0216 266.517 37.1794C268.458 36.1402 268.86 36.0221 270.186 36.0221C277.643 35.9985 286.9 34.0383 292.913 31.1805C296.416 29.5509 300.346 26.4334 301.53 24.4259L301.956 23.6938L302.027 24.4259C302.074 24.8274 301.838 25.8902 301.483 26.764ZM107.099 24.6857C111.455 26.1736 115.101 30.2122 117.752 36.4472C118.32 37.8407 119.409 40.5567 120.143 42.517C123.244 50.8067 126.559 56.3333 131.128 60.797C132.785 62.403 135.768 64.4577 137.543 65.1898C138.916 65.7567 139.248 66.0637 138.372 65.922C133.448 65.1426 132.903 64.9773 129.518 63.513C127.624 62.6864 125.328 61.5055 124.404 60.8914C122.44 59.5689 116.758 53.9715 114.485 51.1374C112.899 49.1535 109.111 43.5561 105.915 38.502C101.56 31.5584 98.3872 28.3464 94.2681 26.6696C93.4632 26.3625 93.0607 26.0791 93.2738 26.0083C94.055 25.7485 103.643 24.2606 104.661 24.237C105.253 24.2133 106.365 24.4259 107.099 24.6857ZM167.727 25.5359C173.125 26.5279 173.977 26.8585 176.321 29.0549C179.422 31.9127 181.316 35.3608 182.949 41.0999C183.683 43.5798 184.299 46.6264 185.364 52.9796C186.405 59.2854 186.926 61.6 187.85 64.5522C189.199 68.7797 191.259 72.3224 193.768 74.755L195.33 76.2429L194.312 76.0775C192.892 75.8414 187.423 73.9047 185.766 73.0309C183.943 72.0862 181.6 69.8897 180.321 67.9531C177.504 63.7256 176.131 59.7342 174.356 50.7595C173.645 47.1696 172.793 43.1546 172.462 41.8321C170.378 33.6604 167.277 28.3228 162.874 25.2997C161.738 24.5204 161.667 24.4259 162.282 24.544C162.685 24.6148 165.123 25.0636 167.727 25.5359ZM39.4401 27.0947C37.6883 29.2675 36.1258 31.6765 34.9422 34.1327C34.2083 35.6206 33.5217 36.9905 33.427 37.1794C33.2377 37.51 28.2662 39.3994 27.9111 39.2814C27.6744 39.1869 31.4148 33.188 32.6932 31.6293C34.1136 29.8816 35.4156 28.8424 37.8303 27.4962C38.9667 26.8821 39.9373 26.3625 39.9846 26.3389C40.032 26.3389 39.7952 26.6932 39.4401 27.0947ZM94.197 27.8741C98.3872 29.7871 101.631 33.377 106.886 41.9265C110.153 47.1932 111.692 49.4605 114.272 52.6725C118.297 57.7031 122.889 61.7653 126.985 63.9381L128.666 64.812L127.411 64.8356C126.724 64.8356 125.138 64.623 123.884 64.3396C116.024 62.6391 108.685 58.3644 102.246 51.6806C99.3815 48.7284 97.8191 46.6737 93.9129 40.8165C89.1072 33.6368 86.6688 30.9916 83.0941 29.2439C81.8394 28.6062 81.4607 28.3228 81.7921 28.2756C82.0525 28.2283 83.4492 27.9449 84.8933 27.6615L87.5211 27.1183L89.1072 27.6615C91.5456 28.4645 94.0787 30.0469 96.304 32.1252C99.5473 35.1483 100.991 37.2502 107.549 48.3269C109.916 52.3419 112.52 55.8845 114.556 57.8684C115.338 58.6478 116 59.191 116 59.0965C116 59.002 115.456 58.2699 114.793 57.4669C113.183 55.4594 111.171 52.3891 107.857 46.9335C100.068 34.0383 96.0672 29.8343 89.1309 27.1655C88.7048 27.0002 88.7284 26.953 89.3676 26.8113C90.2672 26.6223 92.5399 27.1183 94.197 27.8741ZM180.037 28.1102C182.381 28.559 184.63 29.1258 185.009 29.3384C186.595 30.1886 188.749 32.1488 190.099 33.9202C192.774 37.4628 194.123 40.9818 196.467 50.3344C197.248 53.4755 198.266 57.1835 198.739 58.5769C199.805 61.8125 202.622 67.5988 204.539 70.5038C206.481 73.3851 209.345 76.2429 211.523 77.4237L213.18 78.3212L210.955 78.2031C209.724 78.1323 208.232 78.0614 207.641 78.0378C206.599 78.0142 206.575 77.9906 207.215 77.7544C207.806 77.5182 207.617 77.4474 205.321 77.0695C202.219 76.5499 200.349 75.6997 198.668 74.0228C196.325 71.6847 194.526 67.032 193.176 59.8759C192.774 57.7267 192.158 54.9634 191.827 53.7353C191.211 51.4444 189.957 48.3741 189.72 48.5867C189.649 48.6575 189.909 50.051 190.288 51.6334C190.69 53.2393 191.377 56.3805 191.85 58.6005C194.218 69.8425 196.846 75.0384 201.178 77.0459C201.841 77.3529 202.409 77.6599 202.409 77.7072C202.409 77.8489 199.639 77.1403 198.313 76.6444C195.307 75.5107 192.537 72.653 190.383 68.4491C188.394 64.5286 187.565 61.5055 185.719 51.3736C184.062 42.2808 183.02 38.4311 181.15 34.7232C179.682 31.7473 178.285 29.9524 175.894 27.8977C175.255 27.3781 175.019 27.0475 175.303 27.1183C175.563 27.1892 177.694 27.6379 180.037 28.1102ZM81.7211 29.3856C83.8754 30.3067 86.0297 31.8654 87.9472 33.9438C89.4386 35.5498 91.0011 37.7698 95.7595 45.1149C98.0085 48.5867 99.9497 50.9012 103.619 54.4438C109.04 59.7342 114.414 63.3004 119.078 64.7175C121.114 65.3315 121.161 65.3788 120.025 65.5677C118.51 65.8275 116.048 65.8275 115.906 65.5677C115.811 65.4496 114.982 65.2371 114.035 65.0718C108.354 64.1507 103.524 62.2376 99.6893 59.4035C95.7832 56.5222 93.037 53.57 87.0003 45.8234C79.8982 36.707 76.1815 33.3297 71.3284 31.6529L69.7659 31.1097L70.7602 30.8263C72.6541 30.3303 79.4247 28.7479 79.7798 28.7243C79.9692 28.7243 80.8452 29.0077 81.7211 29.3856ZM193.176 30.6137L198.976 31.8418L199.876 32.7865C201.462 34.487 205.084 40.1788 209.274 47.5947C213.89 55.7192 215.903 58.9784 218.246 62.0959C222.981 68.3546 229.231 72.4168 235.67 73.4324L237.564 73.7158L235.788 74.4479C229.846 76.9278 225.727 77.4001 220.874 76.1484C216.85 75.1328 213.725 73.2907 210.813 70.244C207.191 66.4416 204.587 61.3402 200.917 50.9012C198.29 43.4617 196.774 39.919 194.881 36.9668C193.863 35.3608 191.519 32.4086 191.353 32.5503C191.306 32.6212 191.803 33.495 192.442 34.487C194.289 37.2739 196.135 41.2889 199.568 49.8384C201.272 54.1132 203.403 59.1201 204.303 60.9387C207.877 68.3074 211.949 72.9836 216.968 75.5107C218.294 76.1956 221.229 77.1167 222.034 77.1167C222.295 77.1167 222.531 77.2112 222.531 77.3529C222.531 77.6363 222.602 77.6363 218.72 77.3293C214.979 77.0459 213.228 76.6444 211.286 75.6288C208.375 74.0937 204.989 69.9134 202.503 64.7411C200.61 60.7734 199.71 58.081 197.674 50.1927C195.259 40.7929 194.218 38.006 191.898 34.487C190.667 32.6684 189.199 31.1097 187.613 29.9524C187.234 29.669 187.021 29.4092 187.139 29.4092C187.281 29.4092 189.98 29.9524 193.176 30.6137ZM31.9356 31.582C31.2964 32.4086 29.8287 34.5815 28.6923 36.4236L26.6327 39.7773L24.1944 40.6512C22.845 41.1235 21.7086 41.4542 21.6376 41.3833C21.4246 41.1708 22.6793 38.8562 23.7446 37.4628C25.0466 35.7623 27.4613 33.7312 30.4915 31.7473C31.8409 30.8499 33.0009 30.1177 33.0483 30.1177C33.0956 30.1177 32.5985 30.779 31.9356 31.582ZM219.809 31.3222C226.201 32.2669 231.527 32.4559 234.297 31.9127L236.215 31.5112L238.913 32.3142C240.381 32.7629 241.944 33.2116 242.393 33.3061C243.435 33.5423 243.08 33.7312 240.736 34.2036C236.925 34.983 233.184 35.1483 228.331 34.7468C219.264 33.9674 217.418 33.8493 215.903 33.991C214.459 34.1091 214.08 34.0146 209.984 32.6212C205.25 31.0152 205.202 30.968 208.28 30.5901C210.624 30.2831 214.222 30.5192 219.809 31.3222ZM69.9316 32.0071C73.6957 32.9518 77.7202 35.6915 81.2239 39.6356C82.2656 40.8165 84.7276 43.8868 86.6688 46.4611C90.5987 51.6097 93.2501 54.68 95.9015 57.1362C99.3579 60.3246 103.453 63.0643 106.602 64.2924C109.182 65.2843 109.182 65.3315 106.649 65.2135C100.044 64.9064 94.2917 62.9698 89.628 59.4744C85.8403 56.6403 79.046 49.555 71.7072 40.7693C69.2688 37.8407 66.8067 35.101 66.2386 34.6759C65.0786 33.8493 63.6345 33.188 62.9006 33.188C61.8826 33.188 62.9243 32.7629 65.339 32.1725C66.712 31.8418 67.8957 31.5584 67.9667 31.5584C68.0378 31.5348 68.9137 31.7473 69.9316 32.0071ZM204.966 33.2116C210.647 34.4634 213.867 35.3372 214.719 35.8568C219.146 38.502 222.768 42.2336 229.515 51.0193C232.711 55.176 235.102 58.1046 236.854 59.994C238.037 61.2929 237.185 60.1593 234.226 56.5458C232.924 54.9398 230.486 51.7514 228.805 49.4842C223.81 42.6587 221.466 39.9899 217.915 37.0613L216.755 36.093L223.005 37.6517C228.852 39.116 229.397 39.2814 230.935 40.2969C233.232 41.7848 236.641 44.5481 241.233 48.6339C247.696 54.373 251.318 56.9473 255.438 58.7186C258.349 59.9704 260.385 60.4191 263.202 60.4427C265.357 60.4663 265.593 60.5136 265.167 60.797C264.883 60.9623 264.67 61.2457 264.67 61.4346C264.67 61.6 264.055 62.1904 263.321 62.7808L261.971 63.7964L256.882 62.5683C254.064 61.8834 250.963 61.0331 249.993 60.7025C245.305 59.002 241.849 56.6639 239.647 53.6645C238.724 52.4127 238.345 52.4836 239.008 53.7826C240.357 56.4277 242.914 58.7659 246.442 60.5608C250.111 62.4502 254.917 63.82 259.296 64.2688C260.172 64.3632 260.882 64.5049 260.882 64.5758C260.882 64.7883 258.397 66.3235 256.716 67.1501C254.443 68.2837 252.573 68.6852 250.111 68.5435C248.951 68.4727 247.72 68.3546 247.389 68.2837C246.868 68.142 246.868 68.1657 247.27 68.3546C247.531 68.4963 248.217 68.7325 248.809 68.8742L249.874 69.1576L248.691 69.5119C248.051 69.7008 247.341 69.9842 247.152 70.1495C246.962 70.3149 245.897 70.6691 244.808 70.9525C243.009 71.4485 242.677 71.4721 241.257 71.2123C237.493 70.5038 233.374 68.7561 230.178 66.5124C227.882 64.8828 224.686 61.6708 222.555 58.8603C220.732 56.4277 220.164 56.0262 221.206 57.892C222.437 60.0884 224.544 62.7572 226.698 64.8356C230.391 68.4018 234.297 70.6219 238.393 71.4485L240.405 71.8736L239.245 72.0389C237.28 72.346 233.753 72.0153 231.646 71.3304C228.331 70.244 226.366 68.9687 223.17 65.8275C219.454 62.214 216.045 57.1362 210.813 47.5947C207.309 41.1708 205.51 38.2186 203.356 35.3845C202.503 34.2744 201.675 33.1644 201.486 32.9046C201.059 32.3378 201.107 32.3378 204.966 33.2116ZM249.709 34.8649C250.774 35.0302 251.65 35.2428 251.65 35.3136C251.65 35.5498 247.27 36.8724 244.666 37.4156C243.364 37.699 240.381 38.1713 238.037 38.4784L233.776 39.0216L230.58 38.3367C226.319 37.4392 216.589 35.0774 216.139 34.8176C215.406 34.3925 219.596 34.6287 225.775 35.3372C231.006 35.9277 232.782 36.0457 235.907 35.9749C239.979 35.8568 241.589 35.5025 243.317 34.2744L244.098 33.7312L245.921 34.1563C246.915 34.3925 248.62 34.6995 249.709 34.8649ZM256.503 35.786C257.947 35.9277 260.717 36.1166 262.658 36.2111L266.209 36.3764L264.907 36.896C264.197 37.1794 262.705 37.7698 261.593 38.2422C258.752 39.3994 257.308 39.7301 252.833 40.1316C250.679 40.3441 248.596 40.6039 248.217 40.722C247.46 40.9346 241.66 40.3678 238.156 39.7301L236.38 39.3994L238.511 39.2341C241.991 38.9507 244.571 38.6201 246.134 38.2658C248.146 37.7934 251.105 36.6362 252.123 35.904C252.573 35.597 253.165 35.3608 253.425 35.4081C253.686 35.4789 255.082 35.6442 256.503 35.786ZM50.4957 37.4628C53.3838 38.9271 56.1773 42.5642 60.841 50.9012C63.3504 55.3885 64.9839 58.0101 66.4753 59.8759C66.9488 60.4663 67.4223 61.0804 67.5643 61.2693C67.8957 61.6944 64.6524 60.0648 62.6639 58.7895C59.5863 56.8056 57.5504 54.4202 53.7863 48.4214C50.2826 42.7768 47.5601 40.3205 43.5593 39.0924L42.2573 38.6909L44.8614 37.8407C47.9153 36.8487 49.1226 36.7779 50.4957 37.4628ZM42.565 39.8246C46.5895 40.8874 48.9095 42.9185 52.4132 48.4214C55.3961 53.0976 56.5087 54.5619 58.8761 56.8292C61.7879 59.6397 65.1733 61.8598 68.7716 63.3241C70.4998 64.009 71.5651 64.5994 71.4231 64.7411C71.2574 64.93 68.0378 63.82 66.499 63.0643C65.6467 62.6391 64.0133 61.7417 62.8769 61.0804C60.4386 59.6397 56.343 57.585 54.3308 56.8056C52.6026 56.1207 47.8679 53.4991 46.4001 52.4363C45.8083 51.9876 44.0091 50.2871 42.3756 48.6339C39.4401 45.6345 36.2205 43.2255 34.3977 42.6114C33.9715 42.4697 33.6164 42.2572 33.6164 42.1391C33.6164 42.021 33.6401 41.9265 33.6875 41.9265C33.7348 41.9265 35.2973 41.3361 37.1675 40.6276C39.0613 39.919 40.6238 39.3286 40.6711 39.3286C40.6948 39.3286 41.5471 39.5412 42.565 39.8246ZM235.552 40.415C240.002 41.2416 243.175 41.6904 244.406 41.6904C244.974 41.6904 245.495 41.7848 245.542 41.9029C245.589 42.0446 246.465 42.3044 247.507 42.517C250.135 43.0602 253.07 44.0285 258.989 46.2958C267.724 49.6731 270.162 50.2635 275.087 50.2635C278.14 50.2635 278.756 50.1927 280.603 49.6259C281.763 49.2952 283.017 48.8465 283.396 48.6575C284.13 48.2797 284.272 48.4214 283.775 49.0118C283.349 49.555 281.715 50.4997 281.715 50.2163C281.715 50.0746 280.934 50.4761 280.011 51.0665C275.418 54.0423 269.689 55.6247 263.605 55.6247C258.491 55.6247 254.183 54.5855 250.584 52.5072C248.406 51.2319 248.051 50.9484 246.039 48.9646C245.092 48.0199 244.311 47.3822 244.311 47.5239C244.311 48.0671 246.3 50.7123 247.578 51.8459C249.117 53.2157 252.218 54.8926 254.585 55.6011C261.19 57.6322 269.831 57.0182 276.199 54.0896C277.146 53.6645 277.927 53.3338 277.927 53.3574C277.927 53.6172 272.104 57.8212 270.944 58.388C266.943 60.3955 261.877 60.3719 256.621 58.3407C251.2 56.2624 247.909 54.0187 240.286 47.1224C236.806 43.9813 234.889 42.4225 232.474 40.7456C230.864 39.612 230.77 39.5175 231.527 39.6592C231.977 39.7537 233.8 40.0844 235.552 40.415ZM291.966 40.722C289.883 43.9813 283.775 48.1852 279.703 49.1535C276.389 49.9565 270.139 49.5314 265.404 48.1616C264.315 47.8309 261.024 46.6264 258.113 45.4455C255.201 44.2883 251.934 43.0602 250.869 42.7295L248.927 42.1391L251.058 42.2808C256.455 42.6114 265.546 42.7059 267.038 42.4461C268.292 42.2099 268.908 42.2336 270.234 42.517C276.957 43.934 285.029 43.2963 290.427 40.911C291.421 40.4622 292.297 40.0844 292.321 40.0607C292.368 40.0371 292.226 40.3441 291.966 40.722ZM33.6875 43.7215C37.5936 45.6817 38.6352 46.4611 41.6181 49.5078C43.2042 51.161 45.1454 52.9559 45.9267 53.5228C47.1104 54.3966 47.3471 54.6564 47.3471 55.2705C47.3471 56.2152 48.3414 58.3171 49.4067 59.5925C50.8744 61.3874 54.7332 63.8673 57.3373 64.7175C58.2132 65.0009 54.9463 65.3552 52.2949 65.2607C50.3063 65.1898 49.8328 65.0718 48.3887 64.3868C45.6426 63.0406 42.8254 59.9231 37.8777 52.8142C33.4744 46.4375 32.1013 44.926 30.3732 44.4536C29.8287 44.3119 29.3552 44.123 29.3552 44.0521C29.3552 43.9104 31.3911 42.9421 31.7936 42.8948C31.8883 42.8712 32.7405 43.2491 33.6875 43.7215ZM30.8466 45.4219C31.5095 45.7762 32.5038 46.6028 33.0956 47.2641C34.1136 48.4214 38.2091 54.8926 38.0434 55.0815C37.996 55.1288 37.5462 54.987 37.0254 54.7745C36.4099 54.5147 35.6287 54.4202 34.5397 54.4911L32.9536 54.5855L32.6695 53.6172C31.7225 50.4525 29.4499 47.5003 27.1536 46.4139L25.8042 45.7526L26.7985 45.1385C28.0295 44.3828 29.0948 44.4536 30.8466 45.4219ZM25.8042 46.7681C28.1005 47.5711 29.6866 49.555 31.5568 53.9715C33.6638 58.9548 34.8238 60.7025 36.836 61.9306C37.0728 62.0723 36.4809 61.9779 35.5103 61.7181C27.7217 59.5925 22.987 55.8609 21.6613 50.7831C21.1405 48.752 21.1878 48.3741 22.0637 47.8309C22.5846 47.5239 22.916 47.453 23.1054 47.6184C23.2711 47.7365 24.3364 49.4133 25.4727 51.3027C26.9405 53.6881 28.0768 55.2468 29.1895 56.3805C30.9413 58.1282 31.7462 58.5533 30.4915 57.0418C30.0654 56.5222 28.3136 54.0423 26.5854 51.5389C23.7919 47.5003 23.5078 46.9807 23.8393 46.6973C24.3364 46.3194 24.5731 46.343 25.8042 46.7681Z" fill="#2F855A"/>
</svg>
