<svg width="118" height="72" viewBox="0 0 118 72" fill="none" xmlns="http://www.w3.org/2000/svg">
<path d="M52.2654 49.552C51.9989 49.8593 51.9898 49.9122 52.0265 50.5479C52.0817 51.5545 52.339 51.9465 53.3774 52.561C54.1309 53.006 54.4434 53.0802 54.0666 52.7306C53.9931 52.6458 53.8185 52.3809 53.6898 52.1266C53.4785 51.7028 53.4601 51.6075 53.5244 50.834C53.5979 49.891 53.5244 49.6368 53.1109 49.3931C52.7249 49.16 52.5779 49.1918 52.2654 49.552Z" fill="#63B3ED"/>
<path d="M64.8093 49.4355C64.4325 49.7003 64.3866 49.9122 64.4601 50.9082C64.5336 51.83 64.4509 52.1478 64.0098 52.614C63.5779 53.0802 63.7617 53.0696 64.6071 52.561C65.6455 51.9465 65.9028 51.5545 65.958 50.548C65.9947 49.9122 65.9855 49.8593 65.719 49.552C65.3974 49.1812 65.2136 49.16 64.8093 49.4355Z" fill="#63B3ED"/>
<path d="M54.6731 51.6922C54.4709 51.9465 54.4158 52.7199 54.572 53.1755C54.7007 53.5676 55.1418 54.002 55.7942 54.3834C56.4191 54.7436 56.5846 54.7436 56.2262 54.3622C55.8494 53.9702 55.7483 53.5993 55.8126 52.7835C55.8678 52.0736 55.8586 52.0101 55.6472 51.7452C55.3623 51.3849 54.9396 51.3638 54.6731 51.6922Z" fill="#63B3ED"/>
<path d="M62.5026 51.5333C62.2453 51.6499 62.1259 52.1478 62.181 52.9531C62.227 53.7371 62.227 53.7371 61.8961 54.1821C61.7123 54.4152 61.5653 54.6483 61.5653 54.6801C61.5653 54.839 62.8335 53.9808 63.1275 53.6418C63.4032 53.3027 63.4492 53.1756 63.4768 52.5928C63.5043 52.0313 63.4859 51.9041 63.3113 51.6922C63.1275 51.4697 62.7875 51.3956 62.5026 51.5333Z" fill="#63B3ED"/>
<path d="M45.7132 51.8088C45.1159 52.1372 44.4542 52.9636 44.2521 53.6311C44.1602 53.9278 44.0591 54.2563 44.0131 54.3834C43.9488 54.5635 43.8018 54.6165 43.085 54.7225C41.1368 55.0191 37.8836 55.8667 35.0532 56.8097C34.2721 57.0746 33.5921 57.2865 33.5461 57.2865C33.4083 57.2865 33.6932 56.0574 33.9964 55.3794C34.364 54.5423 34.8419 53.949 35.4116 53.5994C35.7976 53.3663 35.9998 53.3133 36.5695 53.3239C37.1577 53.3239 37.3506 53.3663 37.8561 53.6523C38.1869 53.8325 38.5912 54.0867 38.7567 54.2139C39.1978 54.5635 39.1151 54.2986 38.6188 53.7901C37.8469 53.006 37.3782 52.7835 36.4776 52.7835C35.7792 52.7835 35.623 52.8259 35.09 53.1226C33.8586 53.8219 32.8937 55.4323 32.8202 56.8839C32.8018 57.2865 32.7742 57.6043 32.765 57.6043C32.7558 57.6043 32.0666 57.8692 31.2304 58.1977C29.8427 58.738 28.3908 59.183 28.0048 59.1936C27.867 59.1936 27.8394 59.0877 27.8394 58.5155C27.8394 57.7527 27.6372 57.2971 27.1134 56.8945C26.6999 56.566 25.9004 56.5554 25.4685 56.8627C24.9814 57.2017 24.7241 58.2401 25.0182 58.6639C25.4133 59.2466 26.2128 59.3843 26.5988 58.9288C26.902 58.5897 26.902 58.1023 26.5988 57.7633C26.3691 57.4984 25.8177 57.3924 25.8177 57.6149C25.8177 57.6679 25.8636 57.6891 25.9188 57.6573C26.0474 57.562 26.4242 57.6785 26.5896 57.8798C26.9572 58.293 26.5804 59.0877 26.0198 59.0877C25.5879 59.0877 25.1009 58.7486 25.0274 58.3884C24.9447 58.007 25.1285 57.3818 25.4041 57.0746C25.5696 56.8945 25.7717 56.8097 26.1301 56.7779C27.0307 56.6932 27.6464 57.2547 27.7291 58.2507C27.8026 59.2042 27.7751 59.2466 26.8102 59.4479C26.3415 59.5433 25.542 59.6916 25.0366 59.7764L24.1268 59.9247L23.796 59.6492C23.6214 59.4903 23.1435 59.0559 22.7392 58.6851C21.4618 57.4984 20.2855 57.011 19.3941 57.2865C18.8519 57.456 18.2638 58.1447 18.1076 58.8016C17.9973 59.236 17.9973 60.0942 18.1076 60.571C18.1352 60.7087 17.9881 60.7299 17.1794 60.7299C16.6464 60.7299 15.6356 60.6982 14.928 60.6664C14.202 60.624 13.8987 60.6346 14.2387 60.677C14.5696 60.7193 15.1301 60.7617 15.4793 60.7723C16.7016 60.8041 16.3707 60.963 14.8177 61.0902C11.3624 61.3762 8.85363 61.514 7.11679 61.5246C5.76592 61.5246 5.31563 61.5564 5.38914 61.6411C5.54537 61.8212 13.5955 61.4186 15.3231 61.1537C15.5345 61.1114 15.7091 61.1114 15.7091 61.1326C15.7091 61.1643 15.4885 61.3657 15.222 61.5881C14.7993 61.9484 14.689 61.9908 14.2847 61.9696C13.9447 61.9484 13.6782 62.012 13.3198 62.2027C12.6214 62.5629 11.3716 62.9655 10.6548 63.0503C10.1126 63.1139 9.31311 63.0291 8.75255 62.8384C8.44929 62.743 8.46767 63.1139 8.78011 63.4741C9.10175 63.8343 9.57042 63.9933 10.2596 63.9403C10.5721 63.9297 10.8018 63.9403 10.7835 63.9721C10.7651 64.0145 10.3332 64.2475 9.82773 64.4912C9.00986 64.8939 8.84444 65.021 8.35739 65.6355C8.05413 66.0169 7.80601 66.3666 7.80601 66.409C7.80601 66.5467 9.21203 66.5255 9.51528 66.3984C9.65313 66.3348 10.0391 66.0487 10.3699 65.7733C10.7007 65.4872 11.0959 65.1693 11.2521 65.0634C11.5094 64.8727 11.5094 64.8833 11.1418 65.4448C10.5445 66.356 10.4342 66.8646 10.7007 67.4579C10.8478 67.7969 11.0224 67.8817 11.0224 67.6274C11.0224 67.3308 11.3716 66.5467 11.8035 65.8898C12.0424 65.5296 12.7684 64.6925 13.4209 64.0356C14.3674 63.0821 14.6155 62.7854 14.6615 62.4993C14.7074 62.2345 14.8545 62.0437 15.3507 61.6305L15.9848 61.1008L17.0875 60.9736L18.1811 60.8465L18.5303 61.2809C19.2747 62.1921 20.5796 62.6583 22.7208 62.7642L24.0808 62.8278L23.0148 63.188C21.6456 63.633 20.8185 64.0356 20.1201 64.5866C19.7709 64.8621 19.4676 65.021 19.293 65.021C18.6865 65.021 18.1903 65.5402 18.1903 66.1547C18.1903 66.3984 18.1443 66.5043 18.0524 66.5043C17.9605 66.5043 17.9146 66.3984 17.9146 66.2077C17.9146 65.8474 17.5746 65.4448 17.2805 65.4448C17.1611 65.4448 16.8118 65.6355 16.4994 65.8792C15.948 66.303 15.9296 66.3136 15.3231 66.2606C14.9647 66.2289 14.6982 66.2394 14.6982 66.2924C14.6982 66.356 14.8177 66.5467 14.9647 66.7374C15.222 67.0659 15.2772 67.0871 16.0032 67.14C16.7475 67.193 16.7659 67.2036 16.7659 67.4579C16.7659 67.7016 16.7199 67.7334 16.3064 67.7864C15.7091 67.8711 15.608 67.9241 15.3783 68.3373C15.2312 68.5916 15.1669 68.9094 15.1301 69.5769C15.1026 70.0749 15.0474 70.5941 15.0107 70.7318C14.9555 70.9543 14.9647 70.9649 15.1393 70.859C15.2496 70.7954 15.6815 70.7 16.0951 70.6471C16.5178 70.6047 16.9589 70.5093 17.0692 70.4352C17.3173 70.2868 17.5103 69.863 17.593 69.3121C17.694 68.6128 17.74 68.5068 17.8962 68.5386C18.0249 68.5704 18.0524 68.7187 18.0524 69.3968V70.2233L18.4384 70.6471C18.6498 70.8696 18.8703 71.0603 18.9255 71.0603C18.9806 71.0603 19.0174 70.7 19.0174 70.1279C19.0174 69.3015 19.0449 69.1637 19.2103 68.9836C19.5136 68.6763 19.679 68.1572 19.5779 67.8393C19.4676 67.5215 19.1368 67.246 18.8611 67.246C18.5303 67.246 18.613 67.0765 19.0174 66.9387C19.5136 66.7692 19.7525 66.3242 19.7525 65.5825C19.7525 65.0846 19.7801 65.0104 20.0466 64.7773C21.0207 63.9297 22.5186 63.3681 26.6539 62.2768C29.2178 61.5987 30.0449 61.3233 31.8461 60.5604C32.6639 60.2214 33.3715 59.9353 33.4175 59.9353C33.4634 59.9353 33.6564 60.1684 33.8586 60.4651C34.0608 60.7511 34.2446 60.9948 34.2721 60.9948C34.2997 61.0054 34.4927 61.1855 34.704 61.3974L35.0992 61.7895L34.2721 62.7536C33.5645 63.5906 33.3991 63.7284 33.0775 63.7814C32.7926 63.8237 32.5812 63.9721 32.1493 64.4277C30.872 65.7945 29.2546 66.7162 28.1426 66.7162C27.8578 66.7162 27.8394 66.7374 27.9313 66.9281C28.1886 67.4897 29.034 67.6062 29.8979 67.193L30.4492 66.9387L29.567 67.9135C28.7675 68.8035 28.6756 68.9518 28.4459 69.6723C28.3081 70.0961 28.2162 70.4775 28.2437 70.4987C28.3081 70.5729 28.9146 70.3292 29.4108 70.0431C29.8795 69.7783 30.0449 69.5663 30.7341 68.4327C31.1936 67.6698 31.4509 67.4155 31.2028 67.9559C31.019 68.3903 30.8628 69.3121 30.9271 69.6723C30.9547 69.8418 31.1201 70.1385 31.2947 70.3292L31.6071 70.6788V70.0431C31.6071 69.7041 31.6531 69.2061 31.7082 68.9412C31.8093 68.4327 32.4526 66.8646 33.1234 65.4978C33.4083 64.8939 33.537 64.5336 33.537 64.237C33.537 63.792 33.8035 63.3893 34.7959 62.3404L35.2738 61.8318L35.7149 62.0861C37.1117 62.902 39.2897 62.9867 41.3757 62.3298C42.166 62.0755 43.7926 61.3657 43.9947 61.1855C44.1785 61.0054 44.1234 61.1537 43.7742 61.7471C43.1677 62.796 42.2947 65.0634 42.3866 65.3812C42.4049 65.4448 42.5152 65.1587 42.6347 64.7561C42.9563 63.6118 43.3239 62.743 43.8753 61.7789C44.4175 60.8465 44.831 60.3909 45.6948 59.7976L46.2186 59.4267L46.7884 59.6916C47.6706 60.1048 48.7642 60.2849 49.9864 60.2214C50.887 60.179 51.2086 60.1048 52.1919 59.7446C53.3865 59.3102 54.4709 59.0241 55.298 58.9499C55.5553 58.9288 55.7758 58.9182 55.7758 58.9288C55.7758 58.9393 55.5185 59.0665 55.2061 59.1936C54.1952 59.6174 53.2763 60.4333 52.9271 61.2067C52.6514 61.8212 51.6038 62.8384 51.0156 63.0503C50.8686 63.1139 50.7399 63.0609 50.5378 62.8702C50.0599 62.404 49.5637 62.4146 48.9571 62.9231C48.7182 63.1245 48.6539 62.9549 48.8744 62.7006C49.3339 62.1709 48.9388 61.3127 48.2495 61.3127C47.7074 61.3127 47.4133 61.1432 46.9354 60.5498L46.5035 60.0095L46.4484 60.4015C46.3473 60.9842 46.4576 61.2809 46.9538 61.8318C47.4317 62.3616 47.5236 62.6159 47.2663 62.7324C47.1008 62.8066 46.9538 62.7218 46.7884 62.4676C46.7333 62.3616 46.5311 62.2239 46.3657 62.1603C45.897 61.9802 45.3824 62.2027 44.9045 62.7642C44.6932 63.0185 44.3807 63.3258 44.2153 63.4529L43.9029 63.6754L44.1694 63.8131C44.3164 63.8979 44.6564 64.184 44.9321 64.4383C45.704 65.1799 46.0532 65.2011 46.8711 64.5442C47.643 63.9297 47.7625 64.3111 47.0457 65.1058C46.5954 65.6143 46.5862 65.6249 46.5862 66.2712C46.5862 66.6315 46.623 66.9281 46.6597 66.9281C46.7057 66.9281 46.8527 66.7798 47.0089 66.5997C47.4133 66.1017 47.9647 65.6567 48.1025 65.7203C48.3047 65.8156 48.8652 65.5614 49.0215 65.3071C49.2145 64.9892 49.1961 64.5654 48.9755 64.2475C48.7642 63.9403 48.8928 63.739 49.1409 63.9933C49.4258 64.2793 49.6923 64.3005 50.115 64.0886C50.3356 63.9721 50.5929 63.7496 50.6756 63.6012C50.7675 63.4529 51.0708 63.1774 51.3556 63.0079C51.6405 62.8278 52.0449 62.4993 52.247 62.2662L52.633 61.853L52.6238 62.6159C52.6054 64.47 53.552 65.7627 54.912 65.7627C55.3347 65.7627 56.1067 65.3706 56.3915 65.0104C57.2738 63.8979 56.8602 61.9484 55.7023 61.7683C54.9672 61.6517 54.1217 62.3934 54.1217 63.1456C54.1217 63.7284 54.6088 64.3853 55.0407 64.3853C55.2612 64.3853 55.785 64.0356 55.8861 63.8131C55.9872 63.5906 55.9872 63.5906 55.7667 63.8237C55.2612 64.3535 54.7834 64.3429 54.4066 63.792C53.9839 63.1668 54.2963 62.3404 55.0958 61.9908C55.831 61.6729 56.4651 62.0649 56.704 63.0079C56.9705 64.025 56.4007 65.1799 55.4726 65.4978C55.2153 65.5825 54.9212 65.6567 54.8201 65.6567C54.1401 65.6567 53.359 65.0422 53.0006 64.237C52.7341 63.633 52.6698 62.3616 52.8719 61.6623C53.1568 60.677 53.9379 59.8823 55.1326 59.3632C55.9504 59.0135 56.4834 58.9393 57.1083 59.0877C57.5862 59.2042 57.6413 59.2466 57.77 59.5962C57.917 60.0201 58.8911 61.6305 58.9922 61.6305C59.0933 61.6305 60.0674 60.0201 60.2144 59.5857C60.2971 59.3737 60.3798 59.1936 60.3982 59.1936C60.4166 59.1936 60.6555 59.1513 60.922 59.0877C62.3372 58.7804 64.4141 59.9247 64.993 61.3339C65.7925 63.294 64.7725 65.6567 63.1184 65.6567C62.4475 65.6567 61.5837 65.0104 61.3264 64.3111C61.0415 63.5483 61.2988 62.4464 61.8594 62.0543C62.2361 61.7895 62.5118 61.7895 62.9989 62.0437C63.7249 62.4252 63.9822 63.1986 63.5778 63.792C63.2011 64.3429 62.714 64.3535 62.2361 63.8343C62.1167 63.7072 62.0248 63.6542 62.0248 63.7284C62.0248 63.8767 62.4843 64.2475 62.7783 64.3323C63.2838 64.4806 63.8627 63.8343 63.8627 63.1456C63.8627 62.3934 63.0173 61.6517 62.2821 61.7683C61.3448 61.9166 60.8026 63.3893 61.2804 64.47C61.5102 64.9786 61.7859 65.2753 62.3005 65.5402C63.1092 65.964 63.9546 65.7733 64.6071 65.021C65.1401 64.4065 65.3698 63.6754 65.3606 62.6159L65.3514 61.853L65.7374 62.2662C65.9396 62.4993 66.3439 62.8278 66.6288 63.0079C66.9137 63.1774 67.2169 63.4529 67.3088 63.6012C67.3915 63.7496 67.6488 63.9721 67.8694 64.0886C68.2921 64.3005 68.5586 64.2793 68.8435 63.9933C69.0916 63.739 69.2203 63.9403 69.0089 64.2475C68.7883 64.5654 68.77 64.9892 68.963 65.3071C69.1192 65.5614 69.6797 65.8156 69.8819 65.7203C70.0198 65.6567 70.5711 66.1017 70.9755 66.5997C71.1317 66.7798 71.2787 66.9281 71.3247 66.9281C71.3614 66.9281 71.3982 66.6315 71.3982 66.2712C71.3982 65.6249 71.389 65.6143 70.9387 65.1058C70.5068 64.6184 70.3873 64.3535 70.5528 64.237C70.6263 64.184 70.7733 64.2899 71.4809 64.8303C71.968 65.2117 72.4274 65.074 73.181 64.3005C73.374 64.1098 73.6588 63.8767 73.8151 63.8025L74.0908 63.6648L73.8702 63.5377C73.7507 63.4529 73.4199 63.1456 73.1442 62.849C72.5377 62.1815 72.0966 61.9802 71.6279 62.1603C71.4533 62.2239 71.2512 62.3616 71.196 62.4676C71.0306 62.7218 70.8836 62.8066 70.7182 62.7324C70.4609 62.6159 70.5528 62.3616 71.0306 61.8318C71.5269 61.2809 71.6371 60.9842 71.536 60.4015L71.4809 60.0095L71.049 60.5498C70.5711 61.1432 70.2771 61.3127 69.7349 61.3127C69.0457 61.3127 68.6505 62.1709 69.11 62.7006C69.3305 62.9549 69.2662 63.1245 69.0273 62.9231C68.9446 62.849 68.724 62.7112 68.5494 62.6265C68.1818 62.4252 67.6764 62.5523 67.4007 62.902C67.171 63.1986 67.0148 63.1668 66.4358 62.7324C65.7833 62.2451 65.2687 61.6729 65.0574 61.2067C64.7082 60.4227 63.6514 59.5009 62.6956 59.1407C62.4291 59.0453 62.2086 58.9499 62.2086 58.9288C62.2086 58.8546 63.2654 58.9923 63.9087 59.1513C64.2671 59.236 65.0022 59.4691 65.5628 59.6704C66.1142 59.8717 66.6288 60.0412 66.7115 60.0307C66.9229 60.0201 65.6823 59.5433 64.46 59.1618C63.4951 58.8652 63.2194 58.8228 62.2545 58.8334C61.648 58.844 60.9955 58.897 60.8118 58.9605C60.4074 59.0877 60.4074 59.0771 60.582 58.1871L60.6923 57.6573L61.3356 57.4666C61.694 57.3607 62.4751 57.2229 63.0816 57.1593C65.4158 56.9051 68.7516 57.6997 71.0858 59.0665L71.6279 59.3843L71.2604 59.5539C70.4425 59.9565 69.7257 60.0836 68.2829 60.0836C67.4559 60.0942 67.0148 60.126 67.2261 60.1684C68.3197 60.3909 70.176 60.1684 71.196 59.6916L71.7658 59.4267L72.2896 59.7976C73.1534 60.3909 73.567 60.8465 74.1 61.7683C74.6421 62.7112 75.0189 63.6012 75.3405 64.7349C75.46 65.1375 75.5703 65.4342 75.5979 65.413C75.6622 65.3283 75.1843 63.792 74.8535 63.0291C74.6789 62.6371 74.394 62.0649 74.2102 61.7471C74.0264 61.4398 73.8794 61.1749 73.8794 61.1537C73.8794 61.1326 74.0908 61.2385 74.3573 61.3868C75.1751 61.8424 76.912 62.457 77.8769 62.6477C79.4391 62.9443 81.176 62.7218 82.2695 62.0861C82.5176 61.9484 82.7382 61.8424 82.7566 61.8636C82.7749 61.8848 83.1609 62.3192 83.6204 62.849C84.3831 63.7178 84.4475 63.8131 84.3923 64.1204C84.3464 64.4065 84.4567 64.682 85.0356 65.8686C86.0281 67.8817 86.2946 68.6869 86.3589 69.7677L86.4049 70.6471L86.6989 70.3186C86.8643 70.1279 87.0297 69.8418 87.0573 69.6723C87.1216 69.3121 86.9654 68.3903 86.7816 67.9559C86.5335 67.4155 86.7908 67.6698 87.2503 68.4327C88.0038 69.7041 88.2336 69.9478 89.0055 70.2762C89.3823 70.4352 89.7131 70.5411 89.7407 70.5093C89.805 70.4246 89.419 69.2803 89.1801 68.8353C89.0698 68.634 88.6563 68.136 88.2703 67.7334C87.8844 67.3308 87.5811 66.9917 87.5995 66.9705C87.6179 66.9493 87.8109 67.0235 88.0314 67.1506C88.8401 67.6062 89.7866 67.5003 90.0531 66.9281C90.145 66.7374 90.1266 66.7162 89.8418 66.7162C89.6764 66.7162 89.2904 66.6421 88.9963 66.5573C87.8844 66.2183 86.9195 65.5825 85.881 64.4806C85.4032 63.9721 85.1918 63.8237 84.9069 63.7814C84.5853 63.7284 84.4199 63.5801 83.7123 62.7536L82.8852 61.7895L83.2804 61.3974C83.4917 61.1855 83.6847 61.0054 83.7123 60.9948C83.7399 60.9948 83.9237 60.7511 84.1258 60.4651C84.328 60.1684 84.521 59.9353 84.5669 59.9353C84.6129 59.9353 85.3205 60.2214 86.1384 60.5604C87.9395 61.3233 88.7666 61.5987 91.3305 62.2768C95.4842 63.3681 96.9637 63.9297 97.9378 64.7879C98.2043 65.021 98.2319 65.1058 98.2319 65.5931C98.2319 66.3242 98.4708 66.7692 98.9671 66.9387C99.3714 67.0765 99.4541 67.246 99.1233 67.246C98.8476 67.246 98.5168 67.5215 98.4157 67.8393C98.3146 68.1466 98.4249 68.528 98.7373 68.9624C98.9395 69.2379 98.9671 69.3756 98.9671 70.1703C98.9671 70.6577 99.0038 71.0603 99.0498 71.0603C99.206 71.0603 99.7022 70.5199 99.8493 70.2021C99.9412 70.0008 99.9779 69.6617 99.9595 69.2273C99.932 68.634 99.9504 68.5704 100.107 68.5704C100.254 68.5704 100.309 68.6869 100.391 69.2061C100.575 70.361 100.796 70.5729 101.908 70.6682C102.285 70.7 102.698 70.7636 102.818 70.806C103.01 70.8696 103.029 70.859 102.965 70.6788C102.928 70.5729 102.873 70.0749 102.854 69.5769C102.818 68.8883 102.762 68.5916 102.615 68.3373C102.376 67.9241 102.275 67.8711 101.678 67.7864C101.264 67.7334 101.219 67.7016 101.219 67.4579C101.219 67.2036 101.237 67.193 101.981 67.14C102.707 67.0871 102.762 67.0659 103.02 66.7374C103.167 66.5467 103.286 66.356 103.286 66.2924C103.286 66.2394 103.02 66.2289 102.67 66.2606C102.055 66.3136 102.036 66.303 101.485 65.8792C101.173 65.6355 100.814 65.4448 100.695 65.4448C100.401 65.4448 100.07 65.858 100.07 66.2183C100.07 66.3984 100.024 66.5043 99.932 66.5043C99.8493 66.5043 99.7941 66.409 99.7941 66.25C99.7941 65.572 99.3071 65.021 98.7098 65.021C98.5168 65.021 98.2319 64.8727 97.8643 64.5866C97.1659 64.0356 96.3388 63.633 94.9696 63.188L93.9036 62.8278L95.2636 62.7642C97.3956 62.6583 98.7098 62.1921 99.4541 61.2809L99.7941 60.8571L100.897 60.9736L102 61.1008L102.615 61.6093C103.075 61.9802 103.259 62.2133 103.323 62.4676C103.378 62.7006 103.672 63.0821 104.242 63.6754C106.006 65.5084 106.631 66.3772 106.889 67.3202C106.953 67.5744 107.036 67.7758 107.072 67.7758C107.183 67.7758 107.422 67.1718 107.422 66.8858C107.422 66.4831 107.265 66.0805 106.843 65.4448C106.475 64.8833 106.475 64.8727 106.732 65.0634C106.889 65.1693 107.284 65.4872 107.614 65.7733C107.945 66.0487 108.331 66.3348 108.469 66.3984C108.772 66.5255 110.178 66.5467 110.178 66.409C110.178 66.3666 109.93 66.0169 109.627 65.6355C109.14 65.021 108.975 64.8939 108.157 64.4912C107.651 64.2475 107.219 64.0145 107.201 63.9721C107.183 63.9403 107.412 63.9297 107.725 63.9403C108.414 63.9933 108.883 63.8343 109.204 63.4741C109.517 63.1139 109.535 62.743 109.241 62.8384C108.671 63.0291 107.872 63.1139 107.33 63.0503C106.613 62.9655 105.363 62.5629 104.665 62.2027C104.306 62.012 104.04 61.9484 103.7 61.9696C103.295 61.9908 103.185 61.9484 102.762 61.5881C102.496 61.3657 102.275 61.1643 102.275 61.1326C102.275 61.1114 102.45 61.1114 102.67 61.1537C103.396 61.2597 106.999 61.514 109.746 61.6411C111.814 61.7365 112.513 61.7365 112.586 61.6517C112.669 61.5564 112.246 61.5246 110.858 61.5246C108.359 61.514 101.485 61.0372 101.742 60.8889C101.807 60.8465 102.376 60.7723 103.01 60.7405C105.914 60.5498 108.488 59.9247 109.498 59.1618C110.381 58.4838 110.629 57.5302 110.096 56.8415C109.866 56.5448 109.765 56.4919 109.434 56.5024C109.112 56.513 108.993 56.5872 108.782 56.8521C108.46 57.2653 108.451 57.6361 108.763 57.9858C108.938 58.1977 109.048 58.2401 109.241 58.1871C109.774 58.0388 109.958 57.5832 109.627 57.2335C109.434 57.0322 108.984 57.0852 108.984 57.3077C108.984 57.403 109.011 57.403 109.094 57.3077C109.259 57.117 109.517 57.1593 109.627 57.3818C109.756 57.6679 109.655 57.8904 109.333 58.0176C109.094 58.1129 109.03 58.0917 108.828 57.8586C108.405 57.3713 108.772 56.6508 109.452 56.6508C110.031 56.6508 110.362 57.1911 110.234 57.954C110.169 58.3672 109.655 58.9711 109.103 59.289C107.826 60.0201 104.977 60.5498 101.228 60.7405C99.8125 60.8147 99.7666 60.8147 99.8401 60.6134C99.9779 60.2214 99.9963 59.289 99.8768 58.8016C99.7298 58.1977 99.1509 57.4772 98.6454 57.2865C97.6346 56.9051 96.4859 57.4984 94.2344 59.5857L93.8668 59.9247L92.9479 59.7764C91.2937 59.5009 90.3748 59.2784 90.3104 59.1618C90.1634 58.897 90.2369 58.007 90.4299 57.6043C90.9721 56.5024 92.47 56.4813 92.8652 57.5726C93.0398 58.0282 92.9754 58.5579 92.7181 58.8228C92.6262 58.9182 92.3597 59.0347 92.13 59.0559C91.7808 59.1089 91.6889 59.0771 91.4867 58.844C91.3581 58.6957 91.2478 58.452 91.2478 58.3036C91.2478 57.9752 91.6705 57.5726 91.9554 57.6361C92.0748 57.6573 92.1667 57.6361 92.1667 57.5938C92.1667 57.3818 91.597 57.509 91.3856 57.7633C90.8894 58.3248 91.2478 59.1936 91.9921 59.1936C93.15 59.1936 93.4717 57.8374 92.5343 56.9263C92.1392 56.5554 91.3305 56.5342 90.871 56.8945C90.3472 57.2971 90.145 57.7527 90.145 58.5155C90.145 59.0877 90.1175 59.1936 89.9888 59.1936C89.5661 59.183 88.0498 58.7168 86.6989 58.1765L85.201 57.5832L85.1643 56.8839C85.0907 55.4323 84.1258 53.8219 82.8944 53.1226C82.3614 52.8259 82.2052 52.7835 81.5068 52.7835C80.7992 52.7835 80.6705 52.8153 80.1651 53.1332C79.6413 53.4616 78.851 54.2563 78.9429 54.3622C78.9613 54.3834 79.2461 54.2139 79.577 53.9914C80.3213 53.4722 80.7532 53.3133 81.5068 53.3239C82.5544 53.3239 83.3907 54.0232 83.988 55.3794C84.2912 56.0574 84.5761 57.2865 84.4383 57.2865C84.3923 57.2865 83.7123 57.0746 82.9312 56.8097C80.1008 55.8667 76.8476 55.0191 74.8994 54.7225C74.1827 54.6165 74.0356 54.5635 73.9713 54.3834C73.9253 54.2563 73.8243 53.9384 73.7416 53.6629C73.5394 52.9954 72.8502 52.1266 72.2712 51.8194C70.8101 51.0247 68.9721 52.0419 68.6965 53.8007L68.6413 54.1821L67.4742 54.2563C65.3147 54.3834 62.9805 54.9238 61.3815 55.6442C60.922 55.8561 60.5361 56.0151 60.5269 55.9939C60.5177 55.9833 60.4074 55.729 60.2879 55.4535C60.0858 54.9873 59.176 53.896 58.9922 53.896C58.8084 53.896 57.8986 54.9873 57.6965 55.4535C57.577 55.729 57.4667 55.9833 57.4575 56.0045C57.4484 56.0257 57.1543 55.9091 56.8143 55.7502C54.9672 54.9026 52.8535 54.394 50.5102 54.2563L49.3523 54.1821L49.2512 53.6735C49.1961 53.398 49.0858 53.0802 49.0123 52.9742C48.9112 52.8153 48.9112 52.8577 49.0215 53.1755C49.095 53.398 49.1593 53.7053 49.1593 53.8748V54.1821L47.6706 54.2351C46.8435 54.2669 46.1635 54.2775 46.1451 54.2669C46.0716 54.1927 46.4208 53.5676 46.6046 53.4616C46.8711 53.2921 47.4776 53.4086 47.8084 53.6841C47.9555 53.8219 48.0658 53.8642 48.0382 53.7901C47.9739 53.5676 47.3949 53.2603 47.0365 53.2603C46.6597 53.2603 46.283 53.5464 46.0808 54.002C45.9429 54.3198 45.8235 54.3622 44.7299 54.4894L44.1234 54.5529L44.2061 54.1079C44.344 53.4298 44.6105 52.9001 45.0607 52.4445C46.0348 51.4591 47.5328 51.4273 48.516 52.3809C48.8193 52.667 48.8652 52.6882 48.6998 52.4763C48.2495 51.8935 47.7257 51.6392 46.917 51.5969C46.2738 51.5545 46.1084 51.5863 45.7132 51.8088ZM71.968 51.777C72.7307 52.0207 73.5945 53.165 73.7967 54.1821L73.861 54.5529L73.2545 54.4894C72.1609 54.3622 72.0415 54.3198 71.9036 54.002C71.7015 53.5464 71.3247 53.2603 70.9479 53.2603C70.5895 53.2603 70.0106 53.5676 69.9462 53.7901C69.9187 53.8642 70.0289 53.8219 70.176 53.6841C70.5068 53.4086 71.1133 53.2921 71.3798 53.4616C71.5636 53.5676 71.9128 54.1927 71.8393 54.2669C71.8209 54.2775 71.1317 54.2669 70.3046 54.2351L68.8067 54.1821L68.8527 53.7159C68.9905 52.3067 70.5619 51.332 71.968 51.777ZM59.6079 54.6165C59.856 54.9026 60.1317 55.3264 60.2328 55.5807L60.4074 56.0363L60.2052 56.2058C60.095 56.3117 59.7733 56.5236 59.4976 56.6932L58.9922 56.9898L58.4868 56.6932C58.2111 56.5236 57.8895 56.3117 57.7792 56.2058L57.577 56.0363L57.7516 55.5807C57.9722 55.0403 58.7441 54.1079 58.9922 54.1079C59.0841 54.1079 59.369 54.341 59.6079 54.6165ZM49.1409 54.6589C49.1134 55.0509 49.2788 54.9873 47.2754 55.3264C46.3289 55.4853 46.2646 55.4853 46.1543 55.3158C46.09 55.2098 46.0348 54.9767 46.0348 54.786C46.0348 54.4364 46.0348 54.4364 46.5678 54.394C46.8527 54.3728 47.5603 54.3516 48.1301 54.341L49.1685 54.3198L49.1409 54.6589ZM52.4676 54.5953C54.2228 54.8602 54.1401 54.9026 51.8427 54.9132C50.648 54.9238 49.5728 54.9555 49.4626 54.9979C49.288 55.0615 49.2512 55.0403 49.2512 54.8602C49.2512 54.3092 49.2972 54.288 50.3723 54.3622C50.9329 54.394 51.8703 54.5 52.4676 54.5953ZM68.6781 54.4894C68.7056 54.5847 68.7332 54.7542 68.7332 54.8602C68.7332 55.0403 68.6965 55.0615 68.531 54.9979C68.4116 54.9555 67.3364 54.9238 66.1417 54.9132C63.8351 54.9026 63.7432 54.8496 65.5996 54.5847C67.897 54.2669 68.5954 54.2457 68.6781 54.4894ZM71.196 54.394L71.9496 54.4576V54.7966C71.9496 54.9767 71.8944 55.2098 71.8301 55.3158C71.7198 55.4853 71.6555 55.4853 70.709 55.3264C68.7056 54.9873 68.8711 55.0509 68.8435 54.6589L68.8159 54.3198H69.6246C70.0657 54.3198 70.7733 54.3516 71.196 54.394ZM45.9429 54.839C45.9429 55.0721 45.9889 55.2946 46.0348 55.3264C46.09 55.3582 46.1267 55.4217 46.1267 55.4641C46.1267 55.5595 44.298 55.9515 44.2337 55.8773C44.2061 55.8455 44.1602 55.5595 44.1326 55.2416L44.0775 54.6589L44.9413 54.5635C45.4191 54.5 45.8327 54.447 45.8786 54.4364C45.9154 54.4364 45.9429 54.6165 45.9429 54.839ZM73.135 54.5847L73.907 54.6589L73.8518 55.2416C73.8243 55.5595 73.7783 55.8455 73.7507 55.8773C73.6864 55.9515 71.8577 55.5595 71.8577 55.4641C71.8577 55.4217 71.9036 55.3582 71.9496 55.3264C72.0047 55.2946 72.0415 55.0721 72.0415 54.839C72.0415 54.4788 72.069 54.4152 72.2069 54.4682C72.2896 54.4894 72.7123 54.5529 73.135 54.5847ZM44.0407 55.3476C44.0683 55.6866 44.0866 55.9727 44.0683 55.9833C44.0591 56.0045 43.5353 56.1634 42.9012 56.3435C40.5762 57.0004 37.1944 58.1977 34.6765 59.2466L33.8035 59.6174L33.6656 59.236C33.5921 59.0241 33.5002 58.5579 33.4726 58.1977L33.4175 57.5302L34.0056 57.3077C36.6982 56.3011 42.3314 54.8178 43.7007 54.7542C43.9856 54.7436 43.9856 54.7542 44.0407 55.3476ZM75.7541 55.0085C78.4007 55.5277 81.6722 56.4389 83.9788 57.3077L84.5669 57.5302L84.5118 58.1977C84.4842 58.5579 84.3923 59.0241 84.3188 59.236L84.181 59.6174L83.3079 59.2466C80.79 58.1977 77.4082 57.0004 75.0832 56.3435C74.4492 56.1634 73.9253 56.0045 73.9162 55.9833C73.8978 55.9727 73.9162 55.6866 73.9437 55.3476C74.0081 54.6271 73.8794 54.6483 75.7541 55.0085ZM54.0298 55.0827C54.8293 55.0933 55.3991 55.2522 56.5753 55.7714L57.43 56.1528L57.3748 56.5872C57.3381 56.8203 57.3013 57.0322 57.2921 57.0534C57.2829 57.064 57.1267 57.011 56.9521 56.9263C56.2445 56.5766 54.8109 56.3329 53.5428 56.3329C50.9789 56.3329 48.5804 57.1064 46.3657 58.6427L45.8143 59.0241L45.4283 58.5155C45.024 58.007 44.2521 56.3965 44.3164 56.1846C44.3623 56.0363 46.2094 55.6019 46.283 55.729C46.3932 55.9303 47.2938 56.3329 47.643 56.3329C48.1668 56.3329 48.7274 56.0045 48.9663 55.5595C49.1501 55.2098 49.2053 55.178 49.7383 55.1251C50.7767 55.0085 51.4016 54.9873 52.3757 55.0191C52.9087 55.0403 53.653 55.0721 54.0298 55.0827ZM68.2921 55.1251C68.77 55.178 68.8343 55.2204 69.0181 55.5595C69.257 56.0045 69.8176 56.3329 70.3414 56.3329C70.6906 56.3329 71.5912 55.9303 71.7015 55.729C71.775 55.6019 73.6221 56.0363 73.668 56.1846C73.7324 56.3965 72.9604 58.007 72.5561 58.5155L72.1701 59.0241L71.6188 58.6427C70.2311 57.6785 68.8619 57.0534 67.2537 56.6296C66.4174 56.4177 66.0682 56.3859 64.4141 56.3965C62.6773 56.4071 62.4659 56.4283 61.7491 56.672C61.3172 56.8203 60.8945 56.9686 60.8118 57.0216C60.6831 57.0852 60.6463 57.0428 60.6463 56.8521C60.6463 56.7144 60.6188 56.5024 60.5912 56.3753C60.5453 56.1846 60.6372 56.1104 61.3999 55.782C62.6956 55.2098 63.1919 55.0827 64.3773 55.0721C64.9747 55.0615 65.4893 55.0297 65.5168 54.9979C65.5628 54.9344 67.364 55.0191 68.2921 55.1251ZM48.9755 55.284C48.9755 55.3476 48.8377 55.5595 48.6723 55.7502C48.2955 56.1846 47.8176 56.3117 47.2295 56.1316C46.8068 56.0045 46.3565 55.7184 46.43 55.6336C46.4668 55.5913 48.5252 55.1992 48.8652 55.178C48.9204 55.1674 48.9755 55.2204 48.9755 55.284ZM70.663 55.4429C71.1317 55.5277 71.5452 55.6124 71.5636 55.6442C71.6279 55.7184 71.1593 56.0045 70.7549 56.1316C70.1668 56.3117 69.6889 56.1846 69.3122 55.7502C69.1467 55.5595 69.0089 55.3476 69.0089 55.284C69.0089 55.1569 69.064 55.1674 70.663 55.4429ZM44.3256 56.6508C44.5277 57.2865 45.0607 58.2718 45.4651 58.738L45.7592 59.0771L45.2078 59.681C44.9045 60.0095 44.638 60.3591 44.6105 60.4651C44.5461 60.6876 43.765 61.1855 42.7725 61.6305C40.6405 62.5735 37.9755 62.6583 36.0641 61.8318L35.5311 61.5987L35.7517 61.3974C36.2295 60.963 38.6004 59.183 39.4643 58.6109C41.1552 57.4878 43.5904 56.1846 44.1142 56.1316C44.1418 56.121 44.2337 56.3647 44.3256 56.6508ZM74.8903 56.5236C75.653 56.8627 77.3623 57.848 78.5293 58.6109C79.384 59.183 81.7457 60.9524 82.2328 61.3974L82.4533 61.5987L81.9203 61.8318C80.0181 62.6583 77.3347 62.5735 75.2119 61.6305C74.2194 61.1855 73.4383 60.6876 73.374 60.4651C73.3464 60.3591 73.0799 60.0095 72.7766 59.681L72.2253 59.0771L72.5193 58.738C72.9237 58.2718 73.4567 57.2865 73.6588 56.6508C73.8426 56.0469 73.8426 56.0469 74.8903 56.5236ZM58.643 56.9263L58.9738 57.1699L59.6906 56.7038C60.4626 56.1952 60.5544 56.2058 60.5544 56.8203C60.5544 57.0958 60.4993 57.1805 60.2788 57.2865C60.1225 57.3607 59.7733 57.5832 59.4976 57.7739L58.9922 58.1235L58.4868 57.7739C58.2111 57.5832 57.8619 57.3607 57.7057 57.2865C57.4943 57.1805 57.43 57.0852 57.43 56.8627C57.43 56.2588 57.4943 56.2058 57.917 56.4601C58.1284 56.5766 58.45 56.7885 58.643 56.9263ZM42.5428 56.6084C42.5428 56.6402 42.3958 56.7355 42.212 56.8203C41.0173 57.403 37.755 59.5857 36.3674 60.7405L35.4392 61.514L35.0441 61.2067C34.6121 60.8571 33.9045 59.9777 33.9045 59.7764C33.9045 59.5857 40.1075 57.2547 42.313 56.619C42.4141 56.5978 42.506 56.566 42.5244 56.5554C42.5336 56.5554 42.5428 56.566 42.5428 56.6084ZM77.785 57.2971C79.5034 57.8586 84.0799 59.6598 84.0799 59.7764C84.0799 59.9777 83.3723 60.8571 82.9404 61.2067L82.5452 61.514L81.6171 60.7405C80.2294 59.5857 76.9671 57.403 75.7725 56.8203C74.9822 56.4389 75.6898 56.6084 77.785 57.2971ZM55.252 57.1911C55.7023 57.2547 56.3456 57.3818 56.6764 57.4772L57.2921 57.6573L57.4024 58.1871C57.577 59.0771 57.577 59.0877 57.1819 58.9499C56.6397 58.7698 54.912 58.8122 54.0298 59.0241C53.6071 59.1301 52.7341 59.4161 52.1 59.6492C50.9697 60.073 50.9329 60.0836 49.6188 60.0836C48.2679 60.0836 47.496 59.9459 46.7057 59.5539L46.3565 59.3843L46.9079 59.0665C48.2955 58.2507 50.4734 57.4984 52.2103 57.2335C53.4233 57.064 54.2412 57.0428 55.252 57.1911ZM20.8553 57.562C21.4342 57.7739 21.9948 58.1659 23.0057 59.0877C23.5386 59.5645 23.8327 59.9035 23.7684 59.9459C23.7041 59.9777 23.41 60.0412 23.1067 60.0836C22.8035 60.126 21.7099 60.2743 20.6715 60.4227C18.2362 60.7511 18.3189 60.7511 18.1995 60.3485C17.9146 59.3843 18.2454 58.1871 18.953 57.6573C19.4493 57.2865 20.019 57.2653 20.8553 57.562ZM98.673 57.456C99.6287 57.9116 100.125 59.2148 99.7849 60.3485C99.6655 60.7511 99.7482 60.7511 97.3129 60.4227C96.2745 60.2743 95.1809 60.126 94.8777 60.0836C94.5744 60.0412 94.2712 59.9777 94.2068 59.9459C94.1333 59.8929 94.3539 59.628 94.8593 59.1724C95.7966 58.3036 96.3848 57.8904 97.0924 57.5514C97.7265 57.2547 98.1951 57.2229 98.673 57.456ZM33.3164 59.628C33.3532 59.7552 33.0499 59.9247 31.8185 60.4439C29.9622 61.2173 29.5578 61.3551 27.0123 62.0649L25.0366 62.6053L23.2905 62.6159C20.9472 62.6159 19.6882 62.2874 18.8519 61.461C18.3006 60.9207 18.3373 60.8253 19.1828 60.7299C19.5687 60.6876 20.8369 60.5286 21.9856 60.3591L24.09 60.0624L24.5311 60.3591C25.0641 60.7193 25.7258 60.9948 26.0658 60.9948C26.6355 60.9948 27.2329 60.4757 27.7015 59.5751C27.7659 59.4479 28.1335 59.3102 28.8043 59.1407C29.3649 59.0029 30.4768 58.6321 31.2855 58.3142L32.7558 57.7421L33.0131 58.6003C33.151 59.0771 33.2888 59.5327 33.3164 59.628ZM89.1617 59.1407C90.2277 59.3843 90.2185 59.3843 90.4115 59.8082C90.7148 60.4862 91.3672 60.9948 91.9278 60.9948C92.2678 60.9948 92.9754 60.6982 93.4625 60.3591L93.8944 60.0624L95.9896 60.3591C97.1475 60.5286 98.4157 60.6876 98.8108 60.7299C99.6471 60.8253 99.6839 60.9207 99.1325 61.461C98.2962 62.298 97.0372 62.6159 94.6939 62.6159C93.003 62.6053 92.9019 62.5947 91.5694 62.2239C90.8159 62.012 89.9245 61.7577 89.5936 61.6729C88.5001 61.3657 87.7282 61.0902 86.1659 60.4439C84.9253 59.9247 84.6313 59.7658 84.668 59.628C84.6956 59.5327 84.8334 59.0771 84.9713 58.6003L85.2194 57.7421L86.8184 58.3566C87.6914 58.6957 88.7482 59.0453 89.1617 59.1407ZM58.3397 58.1977L58.9922 58.5685L59.6447 58.1977C60.2879 57.8268 60.5544 57.7315 60.5544 57.8904C60.5544 57.9434 60.4993 58.2083 60.435 58.4943C60.3063 59.0559 60.3155 59.0453 59.5252 59.4479L58.9922 59.7128L58.4684 59.4479C57.6689 59.0453 57.6781 59.0559 57.5494 58.4943C57.4851 58.2083 57.43 57.9434 57.43 57.8904C57.43 57.7315 57.6965 57.8268 58.3397 58.1977ZM58.5971 59.6174C58.9738 59.8082 58.983 59.8082 59.5436 59.5433C59.856 59.4055 60.1317 59.3102 60.1593 59.3314C60.2604 59.4585 59.1668 61.4186 58.9922 61.4186C58.8544 61.4186 57.7976 59.6174 57.7976 59.3737C57.7976 59.2678 58.0549 59.3526 58.5971 59.6174ZM27.5637 59.5433C27.5637 59.8293 26.9204 60.5604 26.5069 60.7299C26.1577 60.8889 26.029 60.8995 25.6614 60.7829C25.1928 60.6558 24.3198 60.1472 24.3933 60.0624C24.43 60.0201 25.8452 59.7234 27.4994 59.4161C27.5361 59.4161 27.5637 59.4691 27.5637 59.5433ZM91.983 59.7234C93.8393 60.0518 93.7565 60.0095 93.3154 60.3167C92.277 61.0478 91.4959 61.0054 90.8159 60.1896C90.4023 59.7022 90.2921 59.3526 90.5861 59.4479C90.6688 59.4691 91.3029 59.5962 91.983 59.7234Z" fill="#F56565"/>
<path d="M8.11847 56.6084C7.32817 57.0534 7.48439 58.399 8.40335 59.0982C9.23042 59.734 11.2981 60.3697 12.9522 60.5074C13.5036 60.5604 13.4117 60.5286 12.4927 60.3591C10.1402 59.9353 8.7158 59.3737 8.08172 58.6109C7.79684 58.2718 7.76008 58.1659 7.76008 57.6467C7.76008 57.1487 7.79684 57.0216 7.98063 56.8521C8.21956 56.6296 8.72499 56.5872 9.00987 56.7673C9.28556 56.9262 9.39583 57.3712 9.26718 57.7315C9.18447 57.9752 9.10176 58.0281 8.86283 58.0281C8.68823 58.0281 8.48606 57.954 8.41254 57.8586C8.23794 57.6679 8.23794 57.6467 8.3574 57.3818C8.46768 57.1593 8.72499 57.1169 8.8904 57.3077C8.97311 57.403 9.00068 57.403 9.00068 57.3077C9.00068 57.0852 8.55039 57.0322 8.3574 57.2335C8.02658 57.5831 8.21037 58.0387 8.74337 58.1871C8.93635 58.24 9.04663 58.1977 9.22123 57.9858C9.53368 57.6361 9.52449 57.2653 9.21204 56.8733C8.8904 56.4812 8.49525 56.3859 8.11847 56.6084Z" fill="#F56565"/>
<path d="M3.05501 59.1619C2.99068 59.1936 2.93555 59.3526 2.93555 59.5221C2.93555 60.3273 3.70748 61.175 4.61725 61.3657C4.90213 61.4292 4.95726 61.408 4.95726 61.2703C4.95726 61.0584 4.64482 60.3273 4.36913 59.9035C4.05668 59.4161 3.35827 59.0241 3.05501 59.1619Z" fill="#63B3ED"/>
<path d="M114.084 59.4055C113.937 59.5115 113.735 59.7234 113.643 59.8505C113.376 60.2319 112.926 61.3656 113.027 61.3974C113.073 61.4186 113.34 61.355 113.625 61.2703C114.433 60.9948 115.049 60.2425 115.049 59.5115C115.049 59.2148 115.031 59.1936 114.709 59.1936C114.516 59.1936 114.24 59.289 114.084 59.4055Z" fill="#63B3ED"/>
<path d="M0.849491 61.1114C0.344062 61.2809 0.0591838 61.8954 0.233787 62.4252C0.316493 62.6794 0.766785 62.9019 1.17113 62.9019C1.85116 62.9019 3.64314 62.0755 3.60638 61.7895C3.588 61.6305 2.22793 61.122 1.64899 61.0584C1.3733 61.0266 1.0149 61.0478 0.849491 61.1114Z" fill="#63B3ED"/>
<path d="M115.995 61.1114C115.426 61.2173 114.396 61.6517 114.378 61.7894C114.332 62.0755 116.142 62.9019 116.813 62.9019C117.218 62.9019 117.668 62.6794 117.751 62.4252C117.953 61.8106 117.686 61.2491 117.117 61.1008C116.694 60.9842 116.648 60.9842 115.995 61.1114Z" fill="#63B3ED"/>
<path d="M4.33236 62.2239C3.79017 62.5312 3.45934 62.9762 3.3215 63.5695C3.22041 64.0039 3.31231 64.4913 3.48691 64.4913C3.74422 64.4913 4.22208 64.1522 4.44263 63.8238C4.71832 63.4106 5.04915 62.4994 5.04915 62.1603C5.04915 61.8849 4.90211 61.8954 4.33236 62.2239Z" fill="#63B3ED"/>
<path d="M112.935 62.1603C112.935 62.5205 113.294 63.4741 113.579 63.8767C113.882 64.2899 114.452 64.5866 114.608 64.4065C114.893 64.078 114.589 62.9761 114.102 62.5523C113.432 61.9696 112.935 61.8 112.935 62.1603Z" fill="#63B3ED"/>
<path d="M75.0649 65.9216C74.0724 66.3242 73.4199 67.0023 73.4199 67.638C73.4199 68.0724 73.668 68.1784 74.2102 67.9347C74.6881 67.7228 75.0833 67.2248 75.3038 66.5785C75.5244 65.9004 75.4784 65.7627 75.0649 65.9216Z" fill="#63B3ED"/>
<path d="M41.3941 66.0594C40.7324 66.3772 40.3373 66.7269 40.1443 67.1613C39.8778 67.7652 39.9329 68.0301 40.3373 68.0725C40.8611 68.1254 41.4492 67.6169 41.7984 66.8116C41.9546 66.4514 42.0833 66.0912 42.0833 66.0064C42.0833 65.8263 41.8444 65.8369 41.3941 66.0594Z" fill="#63B3ED"/>
<path d="M42.5428 66.0487C42.5428 66.3454 42.9563 67.2778 43.1953 67.5321C43.5077 67.8605 44.0866 68.1254 44.344 68.0512C44.6196 67.9665 44.638 67.5427 44.3899 67.0765C43.9672 66.2818 42.5428 65.4978 42.5428 66.0487Z" fill="#63B3ED"/>
<path d="M75.9562 66.1547C76.0849 66.7798 76.4617 67.4579 76.8109 67.7333C77.2704 68.083 77.8953 68.1995 77.978 67.9452C78.1526 67.4155 77.3806 66.356 76.5903 66.0381C75.9654 65.7944 75.8827 65.8156 75.9562 66.1547Z" fill="#63B3ED"/>
<path d="M42.0006 67.9877C41.6974 68.7293 41.4401 69.7677 41.4401 70.2233C41.4401 71.3146 42.405 71.8973 42.8828 71.0815C43.2137 70.5093 43.0115 68.8671 42.4509 67.6698L42.2855 67.299L42.0006 67.9877Z" fill="#63B3ED"/>
<path d="M75.3773 68.0512C74.5594 70.1703 74.8994 71.8867 76.0297 71.3358C76.6363 71.0391 76.6822 70.0537 76.1676 68.5174C75.7357 67.2142 75.7081 67.2036 75.3773 68.0512Z" fill="#63B3ED"/>
<path d="M6 42.7L7.2 42.4V29.6L6 29.3V29H16.7V32.6H16.1C15.8467 32.4 15.6267 32.1467 15.44 31.84C15.0133 31.12 14.8 30.34 14.8 29.5H10.5V35.8H12.8C12.8933 35.2933 13.0667 34.82 13.32 34.38C13.4267 34.18 13.5533 33.9867 13.7 33.8H14.3V38.3H13.7C13.5533 38.1133 13.4267 37.92 13.32 37.72C13.0667 37.28 12.8933 36.8067 12.8 36.3H10.5V42.4L11.7 42.7V43H6V42.7ZM17.4016 42.7L18.6016 42.4V33.6L17.4016 33.3V33H19.2016C19.9882 33 20.6082 33.2533 21.0616 33.76C21.2349 33.96 21.3816 34.2067 21.5016 34.5C21.7016 34.2067 21.9482 33.94 22.2416 33.7C22.9082 33.1667 23.6549 32.9 24.4816 32.9C25.1882 32.9 25.7149 33.0667 26.0616 33.4C26.4216 33.72 26.6016 34.1867 26.6016 34.8C26.6016 35.2533 26.4616 35.62 26.1816 35.9C25.9149 36.1667 25.5549 36.3 25.1016 36.3C24.9149 36.3 24.7282 36.2867 24.5416 36.26L24.3016 36.2V33.4C23.6216 33.4 23.0016 33.6667 22.4416 34.2C22.1749 34.4667 21.9616 34.7333 21.8016 35V42.4L23.0016 42.7V43H17.4016V42.7ZM32.8992 43.3C31.1926 43.3 29.8659 42.8333 28.9192 41.9C27.9726 40.9533 27.4992 39.6533 27.4992 38C27.4992 36.92 27.7059 35.98 28.1192 35.18C28.5326 34.38 29.1059 33.7667 29.8392 33.34C30.5859 32.9133 31.4392 32.7 32.3992 32.7C33.3592 32.7 34.1992 32.88 34.9192 33.24C35.6526 33.6 36.2126 34.0867 36.5992 34.7C36.9992 35.3 37.1992 35.9667 37.1992 36.7C37.1992 37.0333 37.1659 37.32 37.0992 37.56L36.9992 37.9C36.4259 38.02 35.8059 38.12 35.1392 38.2C33.7392 38.4 32.3259 38.5 30.8992 38.5C30.8992 40.0467 31.1126 41.1533 31.5392 41.82C31.9659 42.4733 32.5526 42.8 33.2992 42.8C33.8192 42.8 34.2992 42.68 34.7392 42.44C35.1926 42.1867 35.5459 41.86 35.7992 41.46C36.0659 41.0467 36.1992 40.6267 36.1992 40.2H36.6992C36.6992 40.7333 36.5392 41.24 36.2192 41.72C35.8992 42.2 35.4526 42.5867 34.8792 42.88C34.3059 43.16 33.6459 43.3 32.8992 43.3ZM30.8992 38C31.7526 38 32.4459 37.9667 32.9792 37.9C33.2059 37.8867 33.4459 37.8533 33.6992 37.8C33.7126 37.7333 33.7459 37.5867 33.7992 37.36C33.8659 37.0267 33.8992 36.6733 33.8992 36.3C33.8992 35.1933 33.7526 34.3867 33.4592 33.88C33.1659 33.36 32.8126 33.1 32.3992 33.1C31.3992 33.1 30.8992 34.7333 30.8992 38ZM42.7906 43.3C42.004 43.3 41.304 43.1 40.6906 42.7C40.0773 42.2867 39.5906 41.6867 39.2306 40.9C38.8706 40.1 38.6906 39.1333 38.6906 38C38.6906 36.2933 39.084 34.9867 39.8706 34.08C40.6706 33.16 41.744 32.7 43.0906 32.7C43.7306 32.7 44.2906 32.8333 44.7706 33.1C44.9706 33.1933 45.1773 33.3267 45.3906 33.5V29.6L44.1906 29.3V29H46.7906C47.9906 29 48.5906 29.6 48.5906 30.8V42.4L49.7906 42.7V43H47.9906C47.1906 43 46.5706 42.7533 46.1306 42.26C45.944 42.06 45.7973 41.8067 45.6906 41.5C45.5173 41.8333 45.2973 42.1333 45.0306 42.4C44.4306 43 43.684 43.3 42.7906 43.3ZM43.5906 42.6C44.084 42.6 44.5306 42.3333 44.9306 41.8C45.0773 41.6 45.2306 41.3333 45.3906 41V34.1C45.244 33.9533 45.0906 33.82 44.9306 33.7C44.5706 33.4333 44.224 33.3 43.8906 33.3C43.3173 33.3 42.8706 33.6333 42.5506 34.3C42.244 34.9667 42.0906 36.2 42.0906 38C42.0906 39.72 42.2306 40.92 42.5106 41.6C42.804 42.2667 43.164 42.6 43.5906 42.6ZM56.8984 43V42.7L58.0984 42.4V29.6L56.8984 29.3V29H62.5984V29.3L61.3984 29.6V35.8H65.6984V29.6L64.4984 29.3V29H70.1984V29.3L68.9984 29.6V42.4L70.1984 42.7V43H64.4984V42.7L65.6984 42.4V36.3H61.3984V42.4L62.5984 42.7V43H56.8984ZM75.8914 43.3C74.7047 43.3 73.7914 43.0467 73.1514 42.54C72.5114 42.0333 72.1914 41.3867 72.1914 40.6C72.1914 40.08 72.3047 39.5667 72.5314 39.06C72.6247 38.82 72.7447 38.6 72.8914 38.4C73.4381 38.2667 74.0314 38.1467 74.6714 38.04C76.1114 37.8 77.3847 37.6533 78.4914 37.6V37C78.4914 35.52 78.3114 34.5 77.9514 33.94C77.5914 33.38 77.0381 33.1 76.2914 33.1C76.0114 33.1 75.7714 33.1333 75.5714 33.2L75.2914 33.3V36.3L75.0314 36.36C74.8181 36.3867 74.6381 36.4 74.4914 36.4C74.0381 36.4 73.6714 36.2667 73.3914 36C73.1247 35.72 72.9914 35.3533 72.9914 34.9C72.9914 34.2867 73.2981 33.7667 73.9114 33.34C74.5381 32.9133 75.4647 32.7 76.6914 32.7C77.7314 32.7 78.6247 32.8867 79.3714 33.26C80.1314 33.62 80.7047 34.1267 81.0914 34.78C81.4914 35.42 81.6914 36.16 81.6914 37V42.4L82.8914 42.7V43H81.0914C80.2914 43 79.6714 42.7533 79.2314 42.26C79.0447 42.06 78.8981 41.8067 78.7914 41.5C78.6047 41.8333 78.3847 42.1333 78.1314 42.4C77.5314 43 76.7847 43.3 75.8914 43.3ZM76.6914 42.6C77.1847 42.6 77.6314 42.3333 78.0314 41.8C78.1781 41.6 78.3314 41.3333 78.4914 41V38.1C77.8781 38.1 77.2914 38.1333 76.7314 38.2C76.3181 38.2533 76.0381 38.2867 75.8914 38.3C75.8247 38.4467 75.7581 38.6467 75.6914 38.9C75.5581 39.4067 75.4914 39.9067 75.4914 40.4C75.4914 41.1467 75.6047 41.7 75.8314 42.06C76.0581 42.42 76.3447 42.6 76.6914 42.6ZM83.5102 33.6L82.5102 33.3V33H84.8102C85.5168 33 86.0768 33.1467 86.4902 33.44C86.9035 33.7333 87.2435 34.1533 87.5102 34.7L89.7102 39.3L90.8502 36.38L89.5102 33.6L88.5102 33.3V33H90.8102C91.5168 33 92.0768 33.1467 92.4902 33.44C92.9035 33.7333 93.2435 34.1533 93.5102 34.7L95.7102 39.3L97.8102 33.9L96.3102 33.3V33H100.01V33.3L98.4102 33.9L94.7102 43.2H94.1102L91.1502 37.04L88.7102 43.2H88.1102L83.5102 33.6ZM100.019 42.7L101.219 42.4V29.6L100.019 29.3V29H102.619C103.819 29 104.419 29.6 104.419 30.8V37.8L108.119 33.9L106.619 33.3V33H110.419V33.3L108.819 33.9L106.519 36.3L110.419 42.4L111.419 42.7V43H108.819C108.179 43 107.659 42.86 107.259 42.58C106.859 42.3 106.479 41.8733 106.119 41.3L104.419 38.6V42.4L105.619 42.7V43H100.019V42.7Z" fill="#2D3748"/>
<path d="M52.2654 22.9329C51.9989 22.622 51.9898 22.5684 52.0265 21.9252C52.0817 20.9068 52.339 20.5102 53.3774 19.8884C54.1309 19.4382 54.4434 19.3632 54.0666 19.7169C53.9931 19.8027 53.8185 20.0707 53.6898 20.3279C53.4785 20.7567 53.4601 20.8532 53.5244 21.6358C53.5979 22.5898 53.5244 22.8471 53.1109 23.0937C52.7249 23.3295 52.5779 23.2974 52.2654 22.9329Z" fill="#63B3ED"/>
<path d="M64.8093 23.0508C64.4325 22.7828 64.3866 22.5684 64.4601 21.5607C64.5336 20.6281 64.4509 20.3065 64.0098 19.8348C63.5779 19.3631 63.7617 19.3739 64.6071 19.8884C65.6455 20.5102 65.9028 20.9068 65.958 21.9252C65.9947 22.5684 65.9855 22.622 65.719 22.9329C65.3974 23.3081 65.2136 23.3295 64.8093 23.0508Z" fill="#63B3ED"/>
<path d="M54.6731 20.7674C54.4709 20.5102 54.4158 19.7276 54.572 19.2667C54.7007 18.87 55.1418 18.4305 55.7942 18.0446C56.4191 17.6801 56.5846 17.6801 56.2262 18.066C55.8494 18.4627 55.7483 18.8379 55.8126 19.6633C55.8678 20.3815 55.8586 20.4458 55.6472 20.7138C55.3623 21.0783 54.9396 21.0998 54.6731 20.7674Z" fill="#63B3ED"/>
<path d="M62.5026 20.9282C62.2453 20.8103 62.1259 20.3065 62.181 19.4918C62.227 18.6985 62.227 18.6985 61.8961 18.2483C61.7123 18.0124 61.5653 17.7766 61.5653 17.7444C61.5653 17.5836 62.8335 18.4519 63.1275 18.795C63.4032 19.138 63.4492 19.2666 63.4768 19.8562C63.5043 20.4244 63.4859 20.553 63.3113 20.7674C63.1275 20.9925 62.7875 21.0676 62.5026 20.9282Z" fill="#63B3ED"/>
<path d="M45.7132 20.6495C45.1159 20.3172 44.4542 19.481 44.2521 18.8057C44.1602 18.5055 44.0591 18.1732 44.0131 18.0446C43.9488 17.8623 43.8018 17.8087 43.085 17.7015C41.1368 17.4014 37.8836 16.5438 35.0532 15.5897C34.2721 15.3217 33.5921 15.1073 33.5461 15.1073C33.4083 15.1073 33.6932 16.3508 33.9964 17.0369C34.364 17.8838 34.8419 18.4841 35.4116 18.8379C35.7976 19.0737 35.9998 19.1273 36.5695 19.1166C37.1577 19.1166 37.3506 19.0737 37.8561 18.7843C38.1869 18.602 38.5912 18.3447 38.7567 18.2161C39.1978 17.8623 39.1151 18.1303 38.6188 18.6449C37.8469 19.4382 37.3782 19.6633 36.4776 19.6633C35.7792 19.6633 35.623 19.6204 35.09 19.3203C33.8586 18.6127 32.8937 16.9833 32.8202 15.5147C32.8018 15.1073 32.7742 14.7857 32.765 14.7857C32.7558 14.7857 32.0666 14.5177 31.2304 14.1854C29.8427 13.6387 28.3908 13.1885 28.0048 13.1778C27.867 13.1778 27.8394 13.285 27.8394 13.8638C27.8394 14.6357 27.6372 15.0966 27.1134 15.504C26.6999 15.8363 25.9004 15.847 25.4685 15.5361C24.9814 15.1931 24.7241 14.1426 25.0182 13.7138C25.4133 13.1242 26.2128 12.9848 26.5988 13.4458C26.902 13.7888 26.902 14.2819 26.5988 14.6249C26.3691 14.8929 25.8177 15.0001 25.8177 14.775C25.8177 14.7214 25.8636 14.7 25.9188 14.7321C26.0474 14.8286 26.4242 14.7107 26.5896 14.507C26.9572 14.089 26.5804 13.285 26.0198 13.285C25.5879 13.285 25.1009 13.628 25.0274 13.9925C24.9447 14.3784 25.1285 15.0109 25.4041 15.3217C25.5696 15.504 25.7717 15.5897 26.1301 15.6219C27.0307 15.7077 27.6464 15.1395 27.7291 14.1318C27.8026 13.167 27.7751 13.1242 26.8102 12.9205C26.3415 12.824 25.542 12.6739 25.0366 12.5882L24.1268 12.4381L23.796 12.7168C23.6214 12.8776 23.1435 13.3171 22.7392 13.6923C21.4618 14.8929 20.2855 15.3861 19.3941 15.1073C18.8519 14.9358 18.2638 14.239 18.1076 13.5744C17.9973 13.1349 17.9973 12.2666 18.1076 11.7842C18.1352 11.6448 17.9881 11.6234 17.1794 11.6234C16.6464 11.6234 15.6356 11.6555 14.928 11.6877C14.202 11.7306 13.8987 11.7199 14.2387 11.677C14.5696 11.6341 15.1301 11.5912 15.4793 11.5805C16.7016 11.5483 16.3707 11.3875 14.8177 11.2589C11.3624 10.9695 8.85363 10.8301 7.11679 10.8194C5.76592 10.8194 5.31563 10.7872 5.38914 10.7015C5.54537 10.5192 13.5955 10.9266 15.3231 11.1946C15.5345 11.2375 15.7091 11.2375 15.7091 11.216C15.7091 11.1839 15.4885 10.9802 15.222 10.7551C14.7993 10.3906 14.689 10.3477 14.2847 10.3692C13.9447 10.3906 13.6782 10.3263 13.3198 10.1333C12.6214 9.76885 11.3716 9.36149 10.6548 9.27573C10.1126 9.21141 9.31311 9.29717 8.75255 9.49013C8.44929 9.58661 8.46767 9.21141 8.78011 8.84694C9.10175 8.48246 9.57042 8.32166 10.2596 8.37526C10.5721 8.38598 10.8018 8.37526 10.7835 8.3431C10.7651 8.30022 10.3332 8.06439 9.82773 7.81783C9.00986 7.41047 8.84444 7.28184 8.35739 6.66008C8.05413 6.27417 7.80601 5.92041 7.80601 5.87753C7.80601 5.73817 9.21203 5.75961 9.51528 5.88825C9.65313 5.95257 10.0391 6.24201 10.3699 6.52072C10.7007 6.81016 11.0959 7.13176 11.2521 7.23896C11.5094 7.43191 11.5094 7.42119 11.1418 6.85304C10.5445 5.93113 10.4342 5.41658 10.7007 4.81626C10.8478 4.47323 11.0224 4.38747 11.0224 4.64475C11.0224 4.9449 11.3716 5.73817 11.8035 6.40281C12.0424 6.76728 12.7684 7.61415 13.4209 8.27878C14.3674 9.24357 14.6155 9.54373 14.6615 9.83316C14.7074 10.1012 14.8545 10.2941 15.3507 10.7122L15.9848 11.2482L17.0875 11.3768L18.1811 11.5055L18.5303 11.0659C19.2747 10.144 20.5796 9.67237 22.7208 9.56517L24.0808 9.50085L23.0148 9.13637C21.6456 8.68614 20.8185 8.27878 20.1201 7.72135C19.7709 7.44263 19.4676 7.28184 19.293 7.28184C18.6865 7.28184 18.1903 6.75656 18.1903 6.13481C18.1903 5.88825 18.1443 5.78105 18.0524 5.78105C17.9605 5.78105 17.9146 5.88825 17.9146 6.08121C17.9146 6.44569 17.5746 6.85304 17.2805 6.85304C17.1611 6.85304 16.8118 6.66008 16.4994 6.41353C15.948 5.98473 15.9296 5.97401 15.3231 6.02761C14.9647 6.05977 14.6982 6.04905 14.6982 5.99545C14.6982 5.93113 14.8177 5.73817 14.9647 5.54522C15.222 5.2129 15.2772 5.19146 16.0032 5.13786C16.7475 5.08426 16.7659 5.07354 16.7659 4.81626C16.7659 4.56971 16.7199 4.53755 16.3064 4.48395C15.7091 4.39819 15.608 4.34459 15.3783 3.92652C15.2312 3.66924 15.1669 3.34764 15.1301 2.67229C15.1026 2.16846 15.0474 1.64318 15.0107 1.50382C14.9555 1.27871 14.9647 1.26799 15.1393 1.37519C15.2496 1.43951 15.6815 1.53598 16.0951 1.58958C16.5178 1.63246 16.9589 1.72894 17.0692 1.80398C17.3173 1.95406 17.5103 2.38285 17.593 2.94029C17.694 3.6478 17.74 3.755 17.8962 3.72284C18.0249 3.69068 18.0524 3.5406 18.0524 2.85453V2.01838L18.4384 1.58958C18.6498 1.36447 18.8703 1.17151 18.9255 1.17151C18.9806 1.17151 19.0174 1.53598 19.0174 2.11486C19.0174 2.95101 19.0449 3.09037 19.2103 3.2726C19.5136 3.58348 19.679 4.10875 19.5779 4.43035C19.4676 4.75195 19.1368 5.03066 18.8611 5.03066C18.5303 5.03066 18.613 5.20218 19.0174 5.34154C19.5136 5.51306 19.7525 5.96329 19.7525 6.71368C19.7525 7.21752 19.7801 7.29256 20.0466 7.52839C21.0207 8.38598 22.5186 8.95414 26.6539 10.0583C29.2178 10.7444 30.0449 11.0231 31.8461 11.7949C32.6639 12.1379 33.3715 12.4274 33.4175 12.4274C33.4634 12.4274 33.6564 12.1915 33.8586 11.8914C34.0608 11.6019 34.2446 11.3554 34.2721 11.3554C34.2997 11.3447 34.4927 11.1624 34.704 10.948L35.0992 10.5514L34.2721 9.57589C33.5645 8.72902 33.3991 8.58966 33.0775 8.53606C32.7926 8.49318 32.5812 8.3431 32.1493 7.88215C30.872 6.49928 29.2546 5.56666 28.1426 5.56666C27.8578 5.56666 27.8394 5.54522 27.9313 5.35226C28.1886 4.78411 29.034 4.66619 29.8979 5.08426L30.4492 5.34154L29.567 4.35531C28.7675 3.45484 28.6756 3.30476 28.4459 2.57581C28.3081 2.14702 28.2162 1.7611 28.2437 1.73966C28.3081 1.66462 28.9146 1.91118 29.4108 2.20062C29.8795 2.46861 30.0449 2.68301 30.7341 3.83004C31.1936 4.60187 31.4509 4.85914 31.2028 4.31243C31.019 3.87292 30.8628 2.94029 30.9271 2.57581C30.9547 2.40429 31.1201 2.10414 31.2947 1.91118L31.6071 1.55742V2.20062C31.6071 2.54365 31.6531 3.04749 31.7082 3.31548C31.8093 3.83004 32.4526 5.41658 33.1234 6.79944C33.4083 7.41047 33.537 7.77495 33.537 8.07511C33.537 8.52534 33.8035 8.9327 34.7959 9.99396L35.2738 10.5085L35.7149 10.2512C37.1117 9.42581 39.2897 9.34005 41.3757 10.0047C42.166 10.262 43.7926 10.9802 43.9947 11.1624C44.1785 11.3447 44.1234 11.1946 43.7742 10.5943C43.1677 9.53301 42.2947 7.23896 42.3866 6.91736C42.4049 6.85304 42.5152 7.14248 42.6347 7.54983C42.9563 8.70758 43.3239 9.58661 43.8753 10.5621C44.4175 11.5055 44.831 11.9664 45.6948 12.5667L46.2186 12.9419L46.7884 12.6739C47.6706 12.2559 48.7642 12.0736 49.9864 12.1379C50.887 12.1808 51.2086 12.2559 52.1919 12.6203C53.3865 13.0598 54.4709 13.3493 55.298 13.4243C55.5553 13.4458 55.7758 13.4565 55.7758 13.4458C55.7758 13.435 55.5185 13.3064 55.2061 13.1778C54.1952 12.749 53.2763 11.9235 52.9271 11.141C52.6514 10.5192 51.6038 9.49013 51.0156 9.27573C50.8686 9.21141 50.7399 9.26501 50.5378 9.45797C50.0599 9.92964 49.5637 9.91892 48.9571 9.40437C48.7182 9.20069 48.6539 9.37221 48.8744 9.62949C49.3339 10.1655 48.9388 11.0338 48.2495 11.0338C47.7074 11.0338 47.4133 11.2053 46.9354 11.8056L46.5035 12.3523L46.4484 11.9557C46.3473 11.3661 46.4576 11.0659 46.9538 10.5085C47.4317 9.97252 47.5236 9.71525 47.2663 9.59733C47.1008 9.52229 46.9538 9.60805 46.7884 9.86532C46.7333 9.97252 46.5311 10.1119 46.3657 10.1762C45.897 10.3584 45.3824 10.1333 44.9045 9.56517C44.6932 9.30789 44.3807 8.99701 44.2153 8.86838L43.9029 8.64326L44.1694 8.5039C44.3164 8.41814 44.6564 8.12871 44.9321 7.87143C45.704 7.12104 46.0532 7.0996 46.8711 7.76423C47.643 8.38598 47.7625 8.00007 47.0457 7.19608C46.5954 6.68152 46.5862 6.6708 46.5862 6.01689C46.5862 5.65241 46.623 5.35226 46.6597 5.35226C46.7057 5.35226 46.8527 5.50234 47.0089 5.68457C47.4133 6.18841 47.9647 6.63864 48.1025 6.57432C48.3047 6.47784 48.8652 6.73512 49.0215 6.9924C49.2145 7.31399 49.1961 7.74279 48.9755 8.06439C48.7642 8.37526 48.8928 8.57894 49.1409 8.32166C49.4258 8.03223 49.6923 8.01079 50.115 8.22518C50.3356 8.3431 50.5929 8.56822 50.6756 8.7183C50.7675 8.86838 51.0708 9.14709 51.3556 9.31861C51.6405 9.50085 52.0449 9.83316 52.247 10.069L52.633 10.4871L52.6238 9.71525C52.6054 7.83927 53.552 6.53144 54.912 6.53144C55.3347 6.53144 56.1067 6.92808 56.3915 7.29256C57.2738 8.41814 56.8602 10.3906 55.7023 10.5728C54.9672 10.6908 54.1217 9.94036 54.1217 9.17925C54.1217 8.58966 54.6088 7.92503 55.0407 7.92503C55.2612 7.92503 55.785 8.27878 55.8861 8.5039C55.9872 8.72902 55.9872 8.72902 55.7667 8.49318C55.2612 7.95719 54.7834 7.96791 54.4066 8.52534C53.9839 9.15781 54.2963 9.99396 55.0958 10.3477C55.831 10.6693 56.4651 10.2727 56.704 9.31861C56.9705 8.2895 56.4007 7.12104 55.4726 6.79944C55.2153 6.71368 54.9212 6.63864 54.8201 6.63864C54.1401 6.63864 53.359 7.2604 53.0006 8.07511C52.7341 8.68614 52.6698 9.97252 52.8719 10.68C53.1568 11.677 53.9379 12.481 55.1326 13.0062C55.9504 13.36 56.4834 13.435 57.1083 13.285C57.5862 13.167 57.6413 13.1242 57.77 12.7704C57.917 12.3416 58.8911 10.7122 58.9922 10.7122C59.0933 10.7122 60.0674 12.3416 60.2144 12.7811C60.2971 12.9955 60.3798 13.1778 60.3982 13.1778C60.4166 13.1778 60.6555 13.2206 60.922 13.285C62.3372 13.5958 64.4141 12.4381 64.993 11.0124C65.7925 9.02917 64.7725 6.63864 63.1184 6.63864C62.4475 6.63864 61.5837 7.29256 61.3264 8.00007C61.0415 8.7719 61.2988 9.88676 61.8594 10.2834C62.2361 10.5514 62.5118 10.5514 62.9989 10.2941C63.7249 9.9082 63.9822 9.12565 63.5778 8.52534C63.2011 7.96791 62.714 7.95719 62.2361 8.48246C62.1167 8.6111 62.0248 8.6647 62.0248 8.58966C62.0248 8.43958 62.4843 8.06439 62.7783 7.97863C63.2838 7.82855 63.8627 8.48246 63.8627 9.17925C63.8627 9.94036 63.0173 10.6908 62.2821 10.5728C61.3448 10.4228 60.8026 8.9327 61.2804 7.83927C61.5102 7.32471 61.7859 7.02456 62.3005 6.75656C63.1092 6.32777 63.9546 6.52072 64.6071 7.28184C65.1401 7.90359 65.3698 8.64326 65.3606 9.71525L65.3514 10.4871L65.7374 10.069C65.9396 9.83316 66.3439 9.50085 66.6288 9.31861C66.9137 9.14709 67.2169 8.86838 67.3088 8.7183C67.3915 8.56822 67.6488 8.3431 67.8694 8.22518C68.2921 8.01079 68.5586 8.03223 68.8435 8.32166C69.0916 8.57894 69.2203 8.37526 69.0089 8.06439C68.7883 7.74279 68.77 7.31399 68.963 6.9924C69.1192 6.73512 69.6797 6.47784 69.8819 6.57432C70.0198 6.63864 70.5711 6.18841 70.9755 5.68457C71.1317 5.50234 71.2787 5.35226 71.3247 5.35226C71.3614 5.35226 71.3982 5.65241 71.3982 6.01689C71.3982 6.6708 71.389 6.68152 70.9387 7.19608C70.5068 7.68919 70.3873 7.95719 70.5528 8.07511C70.6263 8.12871 70.7733 8.02151 71.4809 7.47479C71.968 7.08888 72.4274 7.22824 73.181 8.01079C73.374 8.20374 73.6588 8.43958 73.8151 8.51462L74.0908 8.65398L73.8702 8.78262C73.7507 8.86838 73.4199 9.17925 73.1442 9.47941C72.5377 10.1548 72.0966 10.3584 71.6279 10.1762C71.4533 10.1119 71.2512 9.97252 71.196 9.86532C71.0306 9.60805 70.8836 9.52229 70.7182 9.59733C70.4609 9.71525 70.5528 9.97252 71.0306 10.5085C71.5269 11.0659 71.6371 11.3661 71.536 11.9557L71.4809 12.3523L71.049 11.8056C70.5711 11.2053 70.2771 11.0338 69.7349 11.0338C69.0457 11.0338 68.6505 10.1655 69.11 9.62949C69.3305 9.37221 69.2662 9.20069 69.0273 9.40437C68.9446 9.47941 68.724 9.61877 68.5494 9.70453C68.1818 9.9082 67.6764 9.77957 67.4007 9.42581C67.171 9.12565 67.0148 9.15781 66.4358 9.59733C65.7833 10.0904 65.2687 10.6693 65.0574 11.141C64.7082 11.9343 63.6514 12.8669 62.6956 13.2314C62.4291 13.3278 62.2086 13.4243 62.2086 13.4458C62.2086 13.5208 63.2654 13.3814 63.9087 13.2206C64.2671 13.1349 65.0022 12.899 65.5628 12.6954C66.1142 12.4917 66.6288 12.3202 66.7115 12.3309C66.9229 12.3416 65.6823 12.824 64.46 13.2099C63.4951 13.5101 63.2194 13.553 62.2545 13.5422C61.648 13.5315 60.9955 13.4779 60.8118 13.4136C60.4074 13.285 60.4074 13.2957 60.582 14.1962L60.6923 14.7321L61.3356 14.9251C61.694 15.0323 62.4751 15.1717 63.0816 15.236C65.4158 15.4933 68.7516 14.6893 71.0858 13.3064L71.6279 12.9848L71.2604 12.8133C70.4425 12.4059 69.7257 12.2773 68.2829 12.2773C67.4559 12.2666 67.0148 12.2344 67.2261 12.1915C68.3197 11.9664 70.176 12.1915 71.196 12.6739L71.7658 12.9419L72.2896 12.5667C73.1534 11.9664 73.567 11.5055 74.1 10.5728C74.6421 9.61877 75.0189 8.7183 75.3405 7.57127C75.46 7.16392 75.5703 6.86376 75.5979 6.8852C75.6622 6.97096 75.1843 8.52534 74.8535 9.29717C74.6789 9.69381 74.394 10.2727 74.2102 10.5943C74.0264 10.9052 73.8794 11.1731 73.8794 11.1946C73.8794 11.216 74.0908 11.1088 74.3573 10.9588C75.1751 10.4978 76.912 9.87604 77.8769 9.68309C79.4391 9.38293 81.176 9.60805 82.2695 10.2512C82.5176 10.3906 82.7382 10.4978 82.7566 10.4764C82.7749 10.4549 83.1609 10.0154 83.6204 9.47941C84.3831 8.60038 84.4475 8.5039 84.3923 8.19302C84.3464 7.90359 84.4567 7.62487 85.0356 6.42425C86.0281 4.38747 86.2946 3.57276 86.3589 2.47933L86.4049 1.58958L86.6989 1.9219C86.8643 2.11486 87.0297 2.40429 87.0573 2.57581C87.1216 2.94029 86.9654 3.87292 86.7816 4.31243C86.5335 4.85914 86.7908 4.60187 87.2503 3.83004C88.0038 2.54365 88.2336 2.2971 89.0055 1.96478C89.3823 1.80398 89.7131 1.69678 89.7407 1.72894C89.805 1.8147 89.419 2.97245 89.1801 3.42268C89.0698 3.62636 88.6563 4.13019 88.2703 4.53755C87.8844 4.9449 87.5811 5.28794 87.5995 5.30938C87.6179 5.33082 87.8109 5.25578 88.0314 5.12714C88.8401 4.66619 89.7866 4.77339 90.0531 5.35226C90.145 5.54522 90.1266 5.56666 89.8418 5.56666C89.6764 5.56666 89.2904 5.64169 88.9963 5.72745C87.8844 6.07049 86.9195 6.71368 85.881 7.82855C85.4032 8.3431 85.1918 8.49318 84.9069 8.53606C84.5853 8.58966 84.4199 8.73974 83.7123 9.57589L82.8852 10.5514L83.2804 10.948C83.4917 11.1624 83.6847 11.3447 83.7123 11.3554C83.7399 11.3554 83.9237 11.6019 84.1258 11.8914C84.328 12.1915 84.521 12.4274 84.5669 12.4274C84.6129 12.4274 85.3205 12.1379 86.1384 11.7949C87.9395 11.0231 88.7666 10.7444 91.3305 10.0583C95.4842 8.95414 96.9637 8.38598 97.9378 7.51767C98.2043 7.28184 98.2319 7.19608 98.2319 6.70296C98.2319 5.96329 98.4708 5.51306 98.9671 5.34154C99.3714 5.20218 99.4541 5.03066 99.1233 5.03066C98.8476 5.03066 98.5168 4.75195 98.4157 4.43035C98.3146 4.11947 98.4249 3.73356 98.7373 3.29404C98.9395 3.01533 98.9671 2.87597 98.9671 2.07198C98.9671 1.57886 99.0038 1.17151 99.0498 1.17151C99.206 1.17151 99.7022 1.71822 99.8493 2.03982C99.9412 2.2435 99.9779 2.58653 99.9595 3.02605C99.932 3.62636 99.9504 3.69068 100.107 3.69068C100.254 3.69068 100.309 3.57276 100.391 3.04749C100.575 1.87902 100.796 1.66462 101.908 1.56814C102.285 1.53598 102.698 1.47167 102.818 1.42879C103.01 1.36447 103.029 1.37519 102.965 1.55742C102.928 1.66462 102.873 2.16846 102.854 2.67229C102.818 3.36908 102.762 3.66924 102.615 3.92652C102.376 4.34459 102.275 4.39819 101.678 4.48395C101.264 4.53755 101.219 4.56971 101.219 4.81626C101.219 5.07354 101.237 5.08426 101.981 5.13786C102.707 5.19146 102.762 5.2129 103.02 5.54522C103.167 5.73817 103.286 5.93113 103.286 5.99545C103.286 6.04905 103.02 6.05977 102.67 6.02761C102.055 5.97401 102.036 5.98473 101.485 6.41353C101.173 6.66008 100.814 6.85304 100.695 6.85304C100.401 6.85304 100.07 6.43497 100.07 6.07049C100.07 5.88825 100.024 5.78105 99.932 5.78105C99.8493 5.78105 99.7941 5.87753 99.7941 6.03833C99.7941 6.7244 99.3071 7.28184 98.7098 7.28184C98.5168 7.28184 98.2319 7.43191 97.8643 7.72135C97.1659 8.27878 96.3388 8.68614 94.9696 9.13637L93.9036 9.50085L95.2636 9.56517C97.3956 9.67237 98.7098 10.144 99.4541 11.0659L99.7941 11.4947L100.897 11.3768L102 11.2482L102.615 10.7336C103.075 10.3584 103.259 10.1226 103.323 9.86532C103.378 9.62949 103.672 9.24357 104.242 8.64326C106.006 6.78872 106.631 5.90969 106.889 4.95562C106.953 4.69835 107.036 4.49467 107.072 4.49467C107.183 4.49467 107.422 5.1057 107.422 5.39514C107.422 5.80249 107.265 6.20985 106.843 6.85304C106.475 7.42119 106.475 7.43191 106.732 7.23896C106.889 7.13176 107.284 6.81016 107.614 6.52072C107.945 6.24201 108.331 5.95257 108.469 5.88825C108.772 5.75961 110.178 5.73817 110.178 5.87753C110.178 5.92041 109.93 6.27417 109.627 6.66008C109.14 7.28184 108.975 7.41047 108.157 7.81783C107.651 8.06439 107.219 8.30022 107.201 8.3431C107.183 8.37526 107.412 8.38598 107.725 8.37526C108.414 8.32166 108.883 8.48246 109.204 8.84694C109.517 9.21141 109.535 9.58661 109.241 9.49013C108.671 9.29717 107.872 9.21141 107.33 9.27573C106.613 9.36149 105.363 9.76885 104.665 10.1333C104.306 10.3263 104.04 10.3906 103.7 10.3692C103.295 10.3477 103.185 10.3906 102.762 10.7551C102.496 10.9802 102.275 11.1839 102.275 11.216C102.275 11.2375 102.45 11.2375 102.67 11.1946C103.396 11.0874 106.999 10.8301 109.746 10.7015C111.814 10.605 112.513 10.605 112.586 10.6908C112.669 10.7872 112.246 10.8194 110.858 10.8194C108.359 10.8301 101.485 11.3125 101.742 11.4626C101.807 11.5055 102.376 11.5805 103.01 11.6127C105.914 11.8056 108.488 12.4381 109.498 13.2099C110.381 13.896 110.629 14.8608 110.096 15.5576C109.866 15.8577 109.765 15.9113 109.434 15.9006C109.112 15.8899 108.993 15.8149 108.782 15.5469C108.46 15.1288 108.451 14.7536 108.763 14.3998C108.938 14.1854 109.048 14.1426 109.241 14.1962C109.774 14.3462 109.958 14.8072 109.627 15.1609C109.434 15.3646 108.984 15.311 108.984 15.0859C108.984 14.9894 109.011 14.9894 109.094 15.0859C109.259 15.2789 109.517 15.236 109.627 15.0109C109.756 14.7214 109.655 14.4963 109.333 14.3677C109.094 14.2712 109.03 14.2926 108.828 14.5285C108.405 15.0216 108.772 15.7505 109.452 15.7505C110.031 15.7505 110.362 15.2038 110.234 14.432C110.169 14.0139 109.655 13.4029 109.103 13.0813C107.826 12.3416 104.977 11.8056 101.228 11.6127C99.8125 11.5376 99.7666 11.5376 99.8401 11.7413C99.9779 12.1379 99.9963 13.0813 99.8768 13.5744C99.7298 14.1854 99.1509 14.9144 98.6454 15.1073C97.6346 15.4933 96.4859 14.8929 94.2344 12.7811L93.8668 12.4381L92.9479 12.5882C91.2937 12.8669 90.3748 13.092 90.3104 13.2099C90.1634 13.4779 90.2369 14.3784 90.4299 14.7857C90.9721 15.9006 92.47 15.9221 92.8652 14.8179C93.0398 14.357 92.9754 13.821 92.7181 13.553C92.6262 13.4565 92.3597 13.3386 92.13 13.3171C91.7808 13.2635 91.6889 13.2957 91.4867 13.5315C91.3581 13.6816 91.2478 13.9282 91.2478 14.0782C91.2478 14.4105 91.6705 14.8179 91.9554 14.7536C92.0748 14.7321 92.1667 14.7536 92.1667 14.7965C92.1667 15.0109 91.597 14.8822 91.3856 14.6249C90.8894 14.0568 91.2478 13.1778 91.9921 13.1778C93.15 13.1778 93.4717 14.5499 92.5343 15.4718C92.1392 15.847 91.3305 15.8685 90.871 15.504C90.3472 15.0966 90.145 14.6357 90.145 13.8638C90.145 13.285 90.1175 13.1778 89.9888 13.1778C89.5661 13.1885 88.0498 13.6602 86.6989 14.2069L85.201 14.8072L85.1643 15.5147C85.0907 16.9833 84.1258 18.6127 82.8944 19.3203C82.3614 19.6204 82.2052 19.6633 81.5068 19.6633C80.7992 19.6633 80.6705 19.6311 80.1651 19.3095C79.6413 18.9772 78.851 18.1732 78.9429 18.066C78.9613 18.0446 79.2461 18.2161 79.577 18.4412C80.3213 18.9665 80.7532 19.1273 81.5068 19.1166C82.5544 19.1166 83.3907 18.4091 83.988 17.0369C84.2912 16.3508 84.5761 15.1073 84.4383 15.1073C84.3923 15.1073 83.7123 15.3217 82.9312 15.5897C80.1008 16.5438 76.8476 17.4014 74.8994 17.7015C74.1827 17.8087 74.0356 17.8623 73.9713 18.0446C73.9253 18.1732 73.8243 18.4948 73.7416 18.7735C73.5394 19.4489 72.8502 20.3279 72.2712 20.6388C70.8101 21.4428 68.9721 20.4137 68.6965 18.6342L68.6413 18.2483L67.4742 18.1732C65.3147 18.0446 62.9805 17.4979 61.3815 16.7689C60.922 16.5545 60.5361 16.3937 60.5269 16.4152C60.5177 16.4259 60.4074 16.6832 60.2879 16.9619C60.0858 17.4336 59.176 18.5377 58.9922 18.5377C58.8084 18.5377 57.8986 17.4336 57.6965 16.9619C57.577 16.6832 57.4667 16.4259 57.4575 16.4044C57.4484 16.383 57.1543 16.5009 56.8143 16.6617C54.9672 17.5193 52.8535 18.0339 50.5102 18.1732L49.3523 18.2483L49.2512 18.7628C49.1961 19.0415 49.0858 19.3631 49.0123 19.4703C48.9112 19.6311 48.9112 19.5882 49.0215 19.2667C49.095 19.0415 49.1593 18.7307 49.1593 18.5591V18.2483L47.6706 18.1947C46.8435 18.1625 46.1635 18.1518 46.1451 18.1625C46.0716 18.2375 46.4208 18.87 46.6046 18.9772C46.8711 19.1487 47.4776 19.0308 47.8084 18.7521C47.9555 18.6127 48.0658 18.5699 48.0382 18.6449C47.9739 18.87 47.3949 19.1809 47.0365 19.1809C46.6597 19.1809 46.283 18.8915 46.0808 18.4305C45.9429 18.1089 45.8235 18.066 44.7299 17.9374L44.1234 17.8731L44.2061 18.3233C44.344 19.0094 44.6105 19.5454 45.0607 20.0063C46.0348 21.0033 47.5328 21.0354 48.516 20.0706C48.8193 19.7812 48.8652 19.7598 48.6998 19.9742C48.2495 20.5638 47.7257 20.821 46.917 20.8639C46.2738 20.9068 46.1084 20.8746 45.7132 20.6495ZM71.968 20.6817C72.7307 20.4351 73.5945 19.2774 73.7967 18.2483L73.861 17.8731L73.2545 17.9374C72.1609 18.066 72.0415 18.1089 71.9036 18.4305C71.7015 18.8915 71.3247 19.1809 70.9479 19.1809C70.5895 19.1809 70.0106 18.87 69.9462 18.6449C69.9187 18.5699 70.0289 18.6127 70.176 18.7521C70.5068 19.0308 71.1133 19.1487 71.3798 18.9772C71.5636 18.87 71.9128 18.2375 71.8393 18.1625C71.8209 18.1518 71.1317 18.1625 70.3046 18.1947L68.8067 18.2483L68.8527 18.7199C68.9905 20.1457 70.5619 21.1319 71.968 20.6817ZM59.6079 17.8087C59.856 17.5193 60.1317 17.0905 60.2328 16.8332L60.4074 16.3723L60.2052 16.2008C60.095 16.0936 59.7733 15.8792 59.4976 15.7077L58.9922 15.4075L58.4868 15.7077C58.2111 15.8792 57.8895 16.0936 57.7792 16.2008L57.577 16.3723L57.7516 16.8332C57.9722 17.38 58.7441 18.3233 58.9922 18.3233C59.0841 18.3233 59.369 18.0875 59.6079 17.8087ZM49.1409 17.7659C49.1134 17.3692 49.2788 17.4336 47.2754 17.0905C46.3289 16.9297 46.2646 16.9297 46.1543 17.1012C46.09 17.2084 46.0348 17.4443 46.0348 17.6372C46.0348 17.991 46.0348 17.991 46.5678 18.0339C46.8527 18.0553 47.5603 18.0767 48.1301 18.0875L49.1685 18.1089L49.1409 17.7659ZM52.4676 17.8302C54.2228 17.5622 54.1401 17.5193 51.8427 17.5086C50.648 17.4979 49.5728 17.4657 49.4626 17.4228C49.288 17.3585 49.2512 17.38 49.2512 17.5622C49.2512 18.1196 49.2972 18.1411 50.3723 18.066C50.9329 18.0339 51.8703 17.9267 52.4676 17.8302ZM68.6781 17.9374C68.7056 17.8409 68.7332 17.6694 68.7332 17.5622C68.7332 17.38 68.6965 17.3585 68.531 17.4228C68.4116 17.4657 67.3364 17.4979 66.1417 17.5086C63.8351 17.5193 63.7432 17.5729 65.5996 17.8409C67.897 18.1625 68.5954 18.1839 68.6781 17.9374ZM71.196 18.0339L71.9496 17.9695V17.6265C71.9496 17.4443 71.8944 17.2084 71.8301 17.1012C71.7198 16.9297 71.6555 16.9297 70.709 17.0905C68.7056 17.4336 68.8711 17.3692 68.8435 17.7659L68.8159 18.1089H69.6246C70.0657 18.1089 70.7733 18.0767 71.196 18.0339ZM45.9429 17.5836C45.9429 17.3478 45.9889 17.1227 46.0348 17.0905C46.09 17.0584 46.1267 16.994 46.1267 16.9512C46.1267 16.8547 44.298 16.458 44.2337 16.5331C44.2061 16.5652 44.1602 16.8547 44.1326 17.1763L44.0775 17.7659L44.9413 17.8623C45.4191 17.9267 45.8327 17.9803 45.8786 17.991C45.9154 17.991 45.9429 17.8087 45.9429 17.5836ZM73.135 17.8409L73.907 17.7659L73.8518 17.1763C73.8243 16.8547 73.7783 16.5652 73.7507 16.5331C73.6864 16.458 71.8577 16.8547 71.8577 16.9512C71.8577 16.994 71.9036 17.0584 71.9496 17.0905C72.0047 17.1227 72.0415 17.3478 72.0415 17.5836C72.0415 17.9481 72.069 18.0124 72.2069 17.9588C72.2896 17.9374 72.7123 17.8731 73.135 17.8409ZM44.0407 17.0691C44.0683 16.726 44.0866 16.4366 44.0683 16.4259C44.0591 16.4044 43.5353 16.2436 42.9012 16.0614C40.5762 15.3968 37.1944 14.1854 34.6765 13.1242L33.8035 12.749L33.6656 13.1349C33.5921 13.3493 33.5002 13.821 33.4726 14.1854L33.4175 14.8608L34.0056 15.0859C36.6982 16.1043 42.3314 17.6051 43.7007 17.6694C43.9856 17.6801 43.9856 17.6694 44.0407 17.0691ZM75.7541 17.4121C78.4007 16.8868 81.6722 15.9649 83.9788 15.0859L84.5669 14.8608L84.5118 14.1854C84.4842 13.821 84.3923 13.3493 84.3188 13.1349L84.181 12.749L83.3079 13.1242C80.79 14.1854 77.4082 15.3968 75.0832 16.0614C74.4492 16.2436 73.9253 16.4044 73.9162 16.4259C73.8978 16.4366 73.9162 16.726 73.9437 17.0691C74.0081 17.798 73.8794 17.7766 75.7541 17.4121ZM54.0298 17.3371C54.8293 17.3264 55.3991 17.1656 56.5753 16.6403L57.43 16.2544L57.3748 15.8149C57.3381 15.579 57.3013 15.3646 57.2921 15.3432C57.2829 15.3325 57.1267 15.3861 56.9521 15.4718C56.2445 15.8256 54.8109 16.0721 53.5428 16.0721C50.9789 16.0721 48.5804 15.2896 46.3657 13.7352L45.8143 13.3493L45.4283 13.8638C45.024 14.3784 44.2521 16.0078 44.3164 16.2222C44.3623 16.3723 46.2094 16.8118 46.283 16.6832C46.3932 16.4795 47.2938 16.0721 47.643 16.0721C48.1668 16.0721 48.7274 16.4044 48.9663 16.8547C49.1501 17.2084 49.2053 17.2406 49.7383 17.2942C50.7767 17.4121 51.4016 17.4336 52.3757 17.4014C52.9087 17.38 53.653 17.3478 54.0298 17.3371ZM68.2921 17.2942C68.77 17.2406 68.8343 17.1977 69.0181 16.8547C69.257 16.4044 69.8176 16.0721 70.3414 16.0721C70.6906 16.0721 71.5912 16.4795 71.7015 16.6832C71.775 16.8118 73.6221 16.3723 73.668 16.2222C73.7324 16.0078 72.9604 14.3784 72.5561 13.8638L72.1701 13.3493L71.6188 13.7352C70.2311 14.7107 68.8619 15.3432 67.2537 15.772C66.4174 15.9864 66.0682 16.0185 64.4141 16.0078C62.6773 15.9971 62.4659 15.9757 61.7491 15.7291C61.3172 15.579 60.8945 15.4289 60.8118 15.3753C60.6831 15.311 60.6463 15.3539 60.6463 15.5469C60.6463 15.6862 60.6188 15.9006 60.5912 16.0292C60.5453 16.2222 60.6372 16.2972 61.3999 16.6296C62.6956 17.2084 63.1919 17.3371 64.3773 17.3478C64.9747 17.3585 65.4893 17.3907 65.5168 17.4228C65.5628 17.4872 67.364 17.4014 68.2921 17.2942ZM48.9755 17.1334C48.9755 17.0691 48.8377 16.8547 48.6723 16.6617C48.2955 16.2222 47.8176 16.0936 47.2295 16.2758C46.8068 16.4044 46.3565 16.6939 46.43 16.7796C46.4668 16.8225 48.5252 17.2192 48.8652 17.2406C48.9204 17.2513 48.9755 17.1977 48.9755 17.1334ZM70.663 16.9726C71.1317 16.8868 71.5452 16.8011 71.5636 16.7689C71.6279 16.6939 71.1593 16.4044 70.7549 16.2758C70.1668 16.0936 69.6889 16.2222 69.3122 16.6617C69.1467 16.8547 69.0089 17.0691 69.0089 17.1334C69.0089 17.262 69.064 17.2513 70.663 16.9726ZM44.3256 15.7505C44.5277 15.1073 45.0607 14.1104 45.4651 13.6387L45.7592 13.2957L45.2078 12.6847C44.9045 12.3523 44.638 11.9986 44.6105 11.8914C44.5461 11.6663 43.765 11.1624 42.7725 10.7122C40.6405 9.75813 37.9755 9.67237 36.0641 10.5085L35.5311 10.7444L35.7517 10.948C36.2295 11.3875 38.6004 13.1885 39.4643 13.7674C41.1552 14.9037 43.5904 16.2222 44.1142 16.2758C44.1418 16.2865 44.2337 16.04 44.3256 15.7505ZM74.8903 15.8792C75.653 15.5361 77.3623 14.5392 78.5293 13.7674C79.384 13.1885 81.7457 11.3983 82.2328 10.948L82.4533 10.7444L81.9203 10.5085C80.0181 9.67237 77.3347 9.75813 75.2119 10.7122C74.2194 11.1624 73.4383 11.6663 73.374 11.8914C73.3464 11.9986 73.0799 12.3523 72.7766 12.6847L72.2253 13.2957L72.5193 13.6387C72.9237 14.1104 73.4567 15.1073 73.6588 15.7505C73.8426 16.3616 73.8426 16.3616 74.8903 15.8792ZM58.643 15.4718L58.9738 15.2253L59.6906 15.6969C60.4626 16.2115 60.5544 16.2008 60.5544 15.579C60.5544 15.3003 60.4993 15.2145 60.2788 15.1073C60.1225 15.0323 59.7733 14.8072 59.4976 14.6142L58.9922 14.2605L58.4868 14.6142C58.2111 14.8072 57.8619 15.0323 57.7057 15.1073C57.4943 15.2145 57.43 15.311 57.43 15.5361C57.43 16.1472 57.4943 16.2008 57.917 15.9435C58.1284 15.8256 58.45 15.6112 58.643 15.4718ZM42.5428 15.7934C42.5428 15.7613 42.3958 15.6648 42.212 15.579C41.0173 14.9894 37.755 12.7811 36.3674 11.6127L35.4392 10.8301L35.0441 11.141C34.6121 11.4947 33.9045 12.3845 33.9045 12.5882C33.9045 12.7811 40.1075 15.1395 42.313 15.7827C42.4141 15.8041 42.506 15.8363 42.5244 15.847C42.5336 15.847 42.5428 15.8363 42.5428 15.7934ZM77.785 15.0966C79.5034 14.5285 84.0799 12.7061 84.0799 12.5882C84.0799 12.3845 83.3723 11.4947 82.9404 11.141L82.5452 10.8301L81.6171 11.6127C80.2294 12.7811 76.9671 14.9894 75.7725 15.579C74.9822 15.9649 75.6898 15.7934 77.785 15.0966ZM55.252 15.2038C55.7023 15.1395 56.3456 15.0109 56.6764 14.9144L57.2921 14.7321L57.4024 14.1962C57.577 13.2957 57.577 13.285 57.1819 13.4243C56.6397 13.6066 54.912 13.5637 54.0298 13.3493C53.6071 13.2421 52.7341 12.9526 52.1 12.7168C50.9697 12.288 50.9329 12.2773 49.6188 12.2773C48.2679 12.2773 47.496 12.4167 46.7057 12.8133L46.3565 12.9848L46.9079 13.3064C48.2955 14.1318 50.4734 14.8929 52.2103 15.1609C53.4233 15.3325 54.2412 15.3539 55.252 15.2038ZM20.8553 14.8286C21.4342 14.6142 21.9948 14.2176 23.0057 13.285C23.5386 12.8026 23.8327 12.4595 23.7684 12.4167C23.7041 12.3845 23.41 12.3202 23.1067 12.2773C22.8035 12.2344 21.7099 12.0843 20.6715 11.9343C18.2362 11.6019 18.3189 11.6019 18.1995 12.0093C17.9146 12.9848 18.2454 14.1962 18.953 14.7321C19.4493 15.1073 20.019 15.1288 20.8553 14.8286ZM98.673 14.9358C99.6287 14.4749 100.125 13.1563 99.7849 12.0093C99.6655 11.6019 99.7482 11.6019 97.3129 11.9343C96.2745 12.0843 95.1809 12.2344 94.8777 12.2773C94.5744 12.3202 94.2712 12.3845 94.2068 12.4167C94.1333 12.4703 94.3539 12.7382 94.8593 13.1992C95.7966 14.0782 96.3848 14.4963 97.0924 14.8393C97.7265 15.1395 98.1951 15.1717 98.673 14.9358ZM33.3164 12.7382C33.3532 12.6096 33.0499 12.4381 31.8185 11.9128C29.9622 11.1303 29.5578 10.9909 27.0123 10.2727L25.0366 9.72597L23.2905 9.71525C20.9472 9.71525 19.6882 10.0476 18.8519 10.8837C18.3006 11.4304 18.3373 11.5269 19.1828 11.6234C19.5687 11.6663 20.8369 11.8271 21.9856 11.9986L24.09 12.2987L24.5311 11.9986C25.0641 11.6341 25.7258 11.3554 26.0658 11.3554C26.6355 11.3554 27.2329 11.8807 27.7015 12.7918C27.7659 12.9205 28.1335 13.0598 28.8043 13.2314C29.3649 13.3707 30.4768 13.7459 31.2855 14.0675L32.7558 14.6464L33.0131 13.7781C33.151 13.2957 33.2888 12.8347 33.3164 12.7382ZM89.1617 13.2314C90.2277 12.9848 90.2185 12.9848 90.4115 12.556C90.7148 11.8699 91.3672 11.3554 91.9278 11.3554C92.2678 11.3554 92.9754 11.6555 93.4625 11.9986L93.8944 12.2987L95.9896 11.9986C97.1475 11.8271 98.4157 11.6663 98.8108 11.6234C99.6471 11.5269 99.6839 11.4304 99.1325 10.8837C98.2962 10.0368 97.0372 9.71525 94.6939 9.71525C93.003 9.72597 92.9019 9.73669 91.5694 10.1119C90.8159 10.3263 89.9245 10.5836 89.5936 10.6693C88.5001 10.9802 87.7282 11.2589 86.1659 11.9128C84.9253 12.4381 84.6313 12.5989 84.668 12.7382C84.6956 12.8347 84.8334 13.2957 84.9713 13.7781L85.2194 14.6464L86.8184 14.0246C87.6914 13.6816 88.7482 13.3278 89.1617 13.2314ZM58.3397 14.1854L58.9922 13.8102L59.6447 14.1854C60.2879 14.5606 60.5544 14.6571 60.5544 14.4963C60.5544 14.4427 60.4993 14.1747 60.435 13.8853C60.3063 13.3171 60.3155 13.3278 59.5252 12.9205L58.9922 12.6525L58.4684 12.9205C57.6689 13.3278 57.6781 13.3171 57.5494 13.8853C57.4851 14.1747 57.43 14.4427 57.43 14.4963C57.43 14.6571 57.6965 14.5606 58.3397 14.1854ZM58.5971 12.749C58.9738 12.556 58.983 12.556 59.5436 12.824C59.856 12.9634 60.1317 13.0598 60.1593 13.0384C60.2604 12.9098 59.1668 10.9266 58.9922 10.9266C58.8544 10.9266 57.7976 12.749 57.7976 12.9955C57.7976 13.1027 58.0549 13.017 58.5971 12.749ZM27.5637 12.824C27.5637 12.5346 26.9204 11.7949 26.5069 11.6234C26.1577 11.4626 26.029 11.4519 25.6614 11.5698C25.1928 11.6984 24.3198 12.213 24.3933 12.2987C24.43 12.3416 25.8452 12.6418 27.4994 12.9526C27.5361 12.9526 27.5637 12.899 27.5637 12.824ZM91.983 12.6418C93.8393 12.3095 93.7565 12.3523 93.3154 12.0415C92.277 11.3018 91.4959 11.3447 90.8159 12.1701C90.4023 12.6632 90.2921 13.017 90.5861 12.9205C90.6688 12.899 91.3029 12.7704 91.983 12.6418Z" fill="#F56565"/>
<path d="M8.11847 15.7934C7.32817 15.3432 7.48439 13.9818 8.40335 13.2743C9.23042 12.6311 11.2981 11.9879 12.9522 11.8485C13.5036 11.7949 13.4117 11.8271 12.4927 11.9986C10.1402 12.4274 8.7158 12.9955 8.08172 13.7674C7.79684 14.1104 7.76008 14.2176 7.76008 14.7429C7.76008 15.2467 7.79684 15.3753 7.98063 15.5469C8.21956 15.772 8.72499 15.8149 9.00987 15.6326C9.28556 15.4718 9.39583 15.0216 9.26718 14.6571C9.18447 14.4106 9.10176 14.357 8.86283 14.357C8.68823 14.357 8.48606 14.432 8.41254 14.5285C8.23794 14.7214 8.23794 14.7429 8.3574 15.0109C8.46768 15.236 8.72499 15.2789 8.8904 15.0859C8.97311 14.9894 9.00068 14.9894 9.00068 15.0859C9.00068 15.311 8.55039 15.3646 8.3574 15.161C8.02658 14.8072 8.21037 14.3462 8.74337 14.1962C8.93635 14.1426 9.04663 14.1854 9.22123 14.3998C9.53368 14.7536 9.52449 15.1288 9.21204 15.5254C8.8904 15.9221 8.49525 16.0185 8.11847 15.7934Z" fill="#F56565"/>
<path d="M3.05501 13.2099C2.99068 13.1778 2.93555 13.017 2.93555 12.8455C2.93555 12.0307 3.70748 11.1732 4.61725 10.9802C4.90213 10.9159 4.95726 10.9373 4.95726 11.0767C4.95726 11.2911 4.64482 12.0307 4.36913 12.4595C4.05668 12.9527 3.35827 13.3493 3.05501 13.2099Z" fill="#63B3ED"/>
<path d="M114.084 12.9634C113.937 12.8562 113.735 12.6418 113.643 12.5131C113.376 12.1272 112.926 10.9802 113.027 10.948C113.073 10.9266 113.34 10.9909 113.625 11.0767C114.433 11.3554 115.049 12.1165 115.049 12.8562C115.049 13.1563 115.031 13.1778 114.709 13.1778C114.516 13.1778 114.24 13.0813 114.084 12.9634Z" fill="#63B3ED"/>
<path d="M0.849491 11.2375C0.344062 11.066 0.0591838 10.4442 0.233787 9.90821C0.316493 9.65093 0.766785 9.42581 1.17113 9.42581C1.85116 9.42581 3.64314 10.262 3.60638 10.5514C3.588 10.7122 2.22793 11.2267 1.64899 11.2911C1.3733 11.3232 1.0149 11.3018 0.849491 11.2375Z" fill="#63B3ED"/>
<path d="M115.995 11.2375C115.426 11.1303 114.396 10.6908 114.378 10.5514C114.332 10.262 116.142 9.42581 116.813 9.42581C117.218 9.42581 117.668 9.65093 117.751 9.90821C117.953 10.53 117.686 11.0981 117.117 11.2482C116.694 11.3661 116.648 11.3661 115.995 11.2375Z" fill="#63B3ED"/>
<path d="M4.33236 10.1119C3.79017 9.80101 3.45934 9.35078 3.3215 8.75047C3.22041 8.31095 3.31231 7.81784 3.48691 7.81784C3.74422 7.81784 4.22208 8.16088 4.44263 8.49319C4.71832 8.91127 5.04915 9.83317 5.04915 10.1762C5.04915 10.4549 4.90211 10.4442 4.33236 10.1119Z" fill="#63B3ED"/>
<path d="M112.935 10.1762C112.935 9.81175 113.294 8.84696 113.579 8.43961C113.882 8.02153 114.452 7.72137 114.608 7.90361C114.893 8.23593 114.589 9.3508 114.102 9.77959C113.432 10.3692 112.935 10.5407 112.935 10.1762Z" fill="#63B3ED"/>
<path d="M75.0649 6.37064C74.0724 5.96329 73.4199 5.27722 73.4199 4.63403C73.4199 4.19452 73.668 4.08732 74.2102 4.33387C74.6881 4.54827 75.0833 5.0521 75.3038 5.70601C75.5244 6.39208 75.4784 6.53144 75.0649 6.37064Z" fill="#63B3ED"/>
<path d="M41.3941 6.2313C40.7324 5.9097 40.3373 5.55595 40.1443 5.11643C39.8778 4.5054 39.9329 4.2374 40.3373 4.19453C40.8611 4.14093 41.4492 4.65548 41.7984 5.47019C41.9546 5.83466 42.0833 6.19914 42.0833 6.2849C42.0833 6.46714 41.8444 6.45642 41.3941 6.2313Z" fill="#63B3ED"/>
<path d="M42.5428 6.24204C42.5428 5.94188 42.9563 4.99853 43.1953 4.74125C43.5077 4.40894 44.0866 4.14094 44.344 4.21598C44.6196 4.30174 44.638 4.73053 44.3899 5.20221C43.9672 6.0062 42.5428 6.79947 42.5428 6.24204Z" fill="#63B3ED"/>
<path d="M75.9562 6.13483C76.0849 5.50236 76.4617 4.81629 76.8109 4.53758C77.2704 4.18382 77.8953 4.0659 77.978 4.32318C78.1526 4.85917 77.3806 5.93115 76.5903 6.25275C75.9654 6.49931 75.8827 6.47787 75.9562 6.13483Z" fill="#63B3ED"/>
<path d="M42.0006 4.28028C41.6974 3.52989 41.4401 2.47934 41.4401 2.01839C41.4401 0.91424 42.405 0.324647 42.8828 1.15008C43.2137 1.72895 43.0115 3.39053 42.4509 4.60188L42.2855 4.97707L42.0006 4.28028Z" fill="#63B3ED"/>
<path d="M75.3773 4.21597C74.5594 2.072 74.8994 0.335389 76.0297 0.892821C76.6363 1.19298 76.6822 2.18992 76.1676 3.7443C75.7357 5.06284 75.7081 5.07356 75.3773 4.21597Z" fill="#63B3ED"/>
</svg>
