<svg width="127" height="186" viewBox="0 0 127 186" fill="none" xmlns="http://www.w3.org/2000/svg">
<path d="M125.428 0.904672C124.859 1.41327 123.635 2.27061 122.687 2.83733C121.433 3.57842 120.558 4.24686 119.392 5.3367C118.517 6.16498 117.773 6.83342 117.729 6.83342C117.525 6.83342 118.065 6.13592 119.042 5.1042C119.8 4.31952 120.5 3.76733 121.389 3.25873C122.074 2.86639 122.818 2.40139 123.037 2.22702L123.416 1.90733L123.022 1.8928C122.352 1.8928 117.919 3.5203 115.528 4.66827C113.822 5.46748 113.34 6.04873 111.503 9.41998C111.182 10.0158 110.891 10.4662 110.862 10.4226C110.818 10.379 111.153 9.50717 111.576 8.48998C112.626 6.0342 112.641 5.96155 112.291 5.96155C112.145 5.96155 111.693 6.20858 111.299 6.4992C110.905 6.80436 109.768 7.58905 108.762 8.24295C105.394 10.4517 105.452 10.379 104.548 12.7331C104.096 13.8956 103.28 15.218 103.119 15.0581C103.075 15.0145 103.309 14.535 103.63 13.9973C104.519 12.5297 104.898 11.3381 104.49 11.3381C104.111 11.3381 99.5761 14.5495 98.8179 15.3487C98.3221 15.8864 97.9284 16.889 97.5493 18.6473C97.0098 21.1031 96.4266 22.7161 95.6101 23.9367C95.1872 24.547 94.8373 24.983 94.7935 24.8812C94.7644 24.794 94.9102 24.4744 95.1143 24.1692C95.683 23.2973 96.4557 21.1467 96.7911 19.4756C96.9515 18.6328 97.2577 17.4703 97.4618 16.8745C97.666 16.2787 97.8264 15.7701 97.8264 15.7411C97.8264 15.5522 97.3889 15.8573 96.135 16.9472C94.881 18.037 93.2771 19.0397 92.7814 19.0397C92.6939 19.0397 92.4752 19.214 92.271 19.4175C92.0815 19.6209 91.5857 19.9987 91.1629 20.2312C90.3026 20.7108 89.661 21.3792 89.209 22.2656C88.8737 22.9195 88.3196 25.3753 88.0571 27.3225C87.8967 28.6012 86.4386 33.0478 85.7825 34.2975C85.4471 34.9514 84.8639 35.7651 84.8493 35.5908C84.8493 35.5472 85.1118 34.9514 85.418 34.283C86.4095 32.1614 87.4156 28.6739 87.6926 26.4361C88.0717 23.3845 88.1738 23.4281 85.7096 25.7967C84.5285 26.9156 82.9538 28.4123 82.1956 29.1389C81.0291 30.2433 80.7375 30.6211 80.2709 31.5947C79.6877 32.8298 79.5127 32.9606 79.7314 31.987C79.8335 31.493 79.8189 31.3912 79.6731 31.4203C79.3669 31.493 75.6925 35.1258 75.2551 35.7942C74.8905 36.3319 74.8614 36.5353 74.7885 38.1773C74.7156 39.9065 74.701 39.9647 74.4385 39.7758C74.1761 39.5869 74.1761 39.4851 74.3365 38.003C74.424 37.1311 74.4677 36.4045 74.4385 36.3755C74.3073 36.2447 73.7532 36.6515 73.4324 37.1165C73.2575 37.3926 71.7556 39.0783 70.0934 40.8656C68.4312 42.653 66.8856 44.3676 66.6377 44.6728C66.0691 45.3848 65.0192 47.3175 64.5089 48.5817C64.1298 49.5408 64.1298 49.5844 64.3485 50.1511C64.4798 50.4708 64.5818 50.805 64.5818 50.9067C64.5818 50.9939 64.1152 51.299 63.5466 51.5606C62.7884 51.9094 62.4384 52.1709 62.2197 52.5487C62.0593 52.8248 61.7969 53.1155 61.651 53.1881C61.5052 53.2753 61.4178 53.4351 61.4615 53.5369C61.5198 53.6822 61.3157 53.813 60.7908 53.9873C59.3764 54.4523 57.6121 56.2397 55.6874 59.175C54.346 61.1948 54.2877 61.994 55.2646 65.0601C55.6145 66.1209 55.6729 66.4697 55.5416 66.7022C55.4541 66.862 55.3229 66.9637 55.25 66.9201C55.1917 66.8765 54.9147 66.2808 54.6522 65.5687C54.2439 64.4789 54.171 64.0865 54.1419 62.7787C54.1273 61.9359 54.0544 61.253 53.9815 61.2675C53.8357 61.282 51.5465 64.6823 50.0446 67.109C48.9511 68.8819 48.2657 70.4803 48.2512 71.2504C48.2512 71.5411 48.0179 71.8753 47.3034 72.5728C46.5452 73.3139 46.2244 73.7644 45.7578 74.7815C45.437 75.4936 44.9996 76.4526 44.7809 76.9322C44.5039 77.5425 44.2122 77.9058 43.7602 78.2109C41.5294 79.7512 39.036 83.0353 38.6132 84.997C38.5257 85.4329 38.132 86.3194 37.7529 86.9587C37.3738 87.6126 36.7905 88.6008 36.4552 89.1529C35.6678 90.5044 35.3908 91.8848 35.4491 94.2244C35.4928 95.8809 35.4783 95.9536 35.1575 96.157C34.8659 96.3604 34.8367 96.3604 34.8367 96.0844C34.8367 95.91 34.9096 95.4595 34.9971 95.0526C35.07 94.6603 35.1283 94.05 35.0992 93.7012L35.0554 93.0764L34.5742 93.8611C34.3118 94.2825 33.9618 94.9654 33.8015 95.3578C33.6411 95.7501 33.2036 96.7237 32.81 97.4939C31.6726 99.7462 31.5414 100.313 31.7601 101.752C31.8768 102.42 32.1392 103.539 32.3725 104.265C32.5912 104.977 32.7516 105.588 32.7225 105.617C32.6933 105.646 32.4163 105.283 32.0955 104.803C31.7164 104.222 31.4685 103.612 31.3519 103.001C31.0311 101.388 31.0019 101.374 30.4333 102.522C29.8646 103.655 29.1501 105.98 29.1501 106.721C29.1501 106.983 29.2522 107.506 29.3834 107.884C29.6751 108.741 29.5584 108.901 29.1356 108.203C28.9752 107.913 28.8002 107.68 28.771 107.68C28.6106 107.68 28.2753 108.61 28.2753 109.09C28.2753 109.41 28.0128 110.238 27.6775 111.022C26.4964 113.754 26.4964 114.132 27.7066 116.501C28.1003 117.271 28.3919 117.925 28.3628 117.968C28.217 118.099 27.9399 117.78 27.3129 116.661C26.3798 115.062 26.0152 114.655 25.4903 114.655C25.0821 114.655 24.8925 114.975 25.1987 115.164C25.2716 115.207 25.4903 115.614 25.6653 116.079C25.9423 116.777 26.0152 117.3 26.0881 119.523C26.1756 121.935 26.2194 122.255 26.6568 123.534C27.4296 125.888 27.9399 126.978 29.0481 128.663C30.1416 130.305 30.4041 130.785 30.1854 130.785C30.1271 130.785 29.9521 130.64 29.7917 130.48C29.6459 130.305 29.1939 129.957 28.7856 129.695C28.3919 129.434 27.7504 128.91 27.3713 128.533C26.788 127.937 26.6714 127.864 26.5839 128.082C26.3943 128.576 26.9922 129.477 28.0711 130.364C29.3105 131.381 29.8792 132.006 29.8792 132.398C29.8792 132.558 29.9521 132.819 30.025 132.979C30.2437 133.372 30.1271 133.328 29.0043 132.601C28.2315 132.107 27.9108 131.802 27.6337 131.265C27.3567 130.712 27.2546 130.625 27.1817 130.829C27.1234 130.959 27.1234 131.366 27.1671 131.73C27.2692 132.369 27.5462 132.689 28.6398 133.459C28.8585 133.604 29.121 133.938 29.2376 134.214C29.4126 134.65 29.398 134.81 29.0043 136.147C28.7565 136.961 28.4648 137.876 28.3336 138.196L28.1003 138.777H25.7382C21.5972 138.792 18.7977 139.402 18.2873 140.39C17.8937 141.131 18.0686 141.596 18.8852 142.018C19.2643 142.207 19.3226 142.308 19.2643 142.672C19.1768 143.253 19.4538 143.703 20.0516 143.95C20.3724 144.081 20.5765 144.285 20.6349 144.532C20.7953 145.185 20.5765 149.545 20.3287 150.693C19.5705 154.108 18.3602 156.186 15.4878 159.005C13.7818 160.705 12.6883 161.577 9.9762 163.451C5.79148 166.343 4.0126 168.014 2.14624 170.819C1.67965 171.531 1.08183 172.533 0.848537 173.042C-0.565814 175.963 -0.18671 179.726 1.7963 182.647C2.72948 183.998 3.91053 184.987 5.29572 185.51L6.33097 185.917L11.5072 185.96C14.3505 185.989 23.5365 185.96 31.9205 185.902C49.4322 185.757 47.6825 185.931 49.476 184.26C51.5465 182.327 52.6109 179.479 52.4359 176.34C52.3484 174.669 52.013 173.521 51.1528 171.923C49.7822 169.365 48.0762 167.782 41.1065 162.536C37.4467 159.775 34.7492 156.81 33.5827 154.253C32.7225 152.378 32.2121 149.254 32.2121 145.781V143.79L32.7662 143.5C33.2765 143.224 33.3057 143.166 33.262 142.584C33.2474 142.236 33.2911 141.974 33.3786 141.974C33.6265 141.974 34.1077 141.407 34.1077 141.117C34.1077 140.623 33.4224 139.998 32.5038 139.649C32.0226 139.475 31.6289 139.315 31.6289 139.3C31.6289 139.199 32.9995 134.926 33.262 134.2C33.6556 133.095 33.7577 132.965 34.268 132.965C34.6909 132.965 34.9825 133.183 36.601 134.636C37.505 135.464 38.1903 135.726 39.4005 135.726C40.2754 135.726 40.9024 135.522 41.019 135.188C41.0919 135.028 41.0336 134.999 40.8003 135.072C40.6253 135.13 40.115 135.173 39.663 135.188C38.7007 135.188 37.855 134.81 36.9364 133.982C36.601 133.677 36.1198 133.313 35.8719 133.183C35.6095 133.052 35.4345 132.863 35.4637 132.776C35.5657 132.456 36.0323 132.5 36.7905 132.863C37.1988 133.066 38.0299 133.313 38.6277 133.401C39.5755 133.56 39.9984 133.531 41.7335 133.284C43.1624 133.066 43.8477 132.907 44.0519 132.718C44.3289 132.471 45.4662 130.916 46.1223 129.884C46.3994 129.448 46.3994 129.434 46.1369 129.245C45.9911 129.128 45.7724 129.041 45.6703 129.041C45.3787 129.041 45.437 128.823 45.8745 128.3C46.3994 127.69 47.0264 127.443 48.0908 127.443C49.8842 127.443 51.7068 126.803 52.4359 125.917C52.6692 125.655 53.0775 124.856 53.3399 124.144C53.894 122.735 54.4918 121.529 54.973 120.802C55.2646 120.352 55.2646 120.322 55.0021 120.322C54.8563 120.322 54.1564 120.758 53.442 121.296C51.5756 122.72 51.5173 122.764 51.6777 122.502C52.086 121.819 54.0981 119.814 54.8126 119.378C55.9645 118.68 57.131 117.387 57.5684 116.326C57.7725 115.847 58.137 115.091 58.3995 114.655C58.6474 114.219 59.0556 113.188 59.3181 112.374C59.8576 110.63 60.4992 109.148 60.8491 108.857C61.0532 108.683 61.2428 108.683 62.001 108.828C62.8904 109.003 62.9342 108.988 63.8819 108.552C64.9463 108.058 65.6608 107.361 67.2064 105.37C68.2416 104.018 69.0436 103.161 69.5831 102.827C69.8018 102.682 69.9768 102.507 69.9768 102.435C69.9768 102.26 68.7957 102.74 67.6001 103.394C67.0606 103.684 66.5502 103.902 66.4628 103.873C66.3753 103.844 67.1335 103.365 68.1687 102.812C69.6268 102.013 70.1372 101.65 70.5746 101.112C70.8662 100.734 71.1432 100.342 71.1724 100.255C71.2161 100.124 71.639 100.24 72.543 100.589C74.876 101.534 75.5613 101.621 77.0777 101.156C78.1858 100.822 78.667 100.487 79.2794 99.63C79.8189 98.8889 79.7168 98.7872 78.9003 99.3103C77.6609 100.124 75.5467 100.182 73.9282 99.4556C73.4324 99.2376 73.0388 99.0197 73.0388 98.947C73.0388 98.8889 73.6512 98.8744 74.3948 98.9179C77.1652 99.0778 79.2211 98.3948 81 96.7383L81.904 95.91H84.1349C89.3986 95.8954 92.2564 95.2997 94.7352 93.6722C96.0475 92.8003 96.6745 92.19 97.4473 91.0129C97.8118 90.4608 98.4096 89.7487 98.7741 89.4581C99.8823 88.5426 101.997 85.927 102.638 84.6483C103.877 82.207 104.009 78.8212 102.944 76.7578C102.565 76.0312 101.661 75.1012 100.83 74.6217C100.086 74.1858 98.7304 73.9969 97.768 74.1712C96.8786 74.3456 97.1265 74.6508 98.2346 74.7525C100.159 74.9414 101.647 76.0022 102.449 77.7314C103.25 79.417 102.973 82.0617 101.763 84.532C101.165 85.7381 100.815 86.2467 99.7948 87.2929C99.1241 87.9904 98.5408 88.5281 98.4971 88.4845C98.4533 88.4554 98.3221 87.7434 98.2055 86.9297C97.943 85.1714 97.4764 84.1251 96.4849 83.0498C95.2164 81.6548 93.3646 81.03 92.271 81.6112L91.7753 81.8728L92.9417 81.989C95.4788 82.2506 96.689 83.4858 97.0244 86.174C97.1265 87.0459 96.8494 88.6008 96.4266 89.3854C96.0329 90.1411 93.1167 91.3326 90.6088 91.754C88.8882 92.0447 86.147 92.2772 84.3827 92.2772H82.9538L82.8663 91.8703C82.7059 91.1147 82.6476 90.9694 82.5018 90.9694C82.4289 90.9694 82.3706 90.9112 82.3706 90.8386C82.3706 90.7659 82.7059 90.5915 83.1288 90.4462C83.6537 90.2719 84.1203 89.9667 84.6452 89.4436C85.3013 88.8042 85.418 88.6008 85.5055 87.9469C85.5784 87.4383 85.7388 87.0314 86.045 86.6536C86.6574 85.8979 87.1969 84.7064 87.226 84.0234C87.2698 82.919 86.5699 82.0326 86.3657 82.9336C85.9575 84.7354 85.6221 85.3894 84.5723 86.3629C83.4058 87.4528 81.102 87.8887 79.6877 87.2784L79.119 87.0459L79.4835 86.639C79.9355 86.174 80.9708 84.0815 80.8833 83.82C80.8396 83.7037 80.5042 83.6311 79.9501 83.6311C78.6087 83.6165 78.1567 83.3404 75.1822 80.7684C74.7156 80.3615 74.3656 80.0128 74.4094 79.9692C74.4385 79.9401 75.1822 80.2889 76.057 80.7684C79.3961 82.5848 81.3936 83.2678 83.3329 83.2678C84.3098 83.2678 84.6306 83.2097 85.2284 82.9045C86.0741 82.4686 86.9344 81.5676 87.4156 80.6231C87.8676 79.7367 87.8676 79.1845 87.401 78.6614L87.051 78.2545L87.0365 78.9229C87.0365 80.0128 86.6428 81.0445 86.0012 81.6839C85.4909 82.1925 85.3597 82.2506 84.7327 82.2506C83.7412 82.2506 82.4289 81.5676 81.5686 80.6231C81.2041 80.2162 80.9125 79.7803 80.9416 79.664C80.9708 79.5478 81.2478 79.3589 81.5686 79.2426C81.8894 79.1409 82.3268 78.8794 82.531 78.6759C82.983 78.24 84.9951 74.2875 84.9951 73.8225C84.9951 73.5319 84.9805 73.5319 84.4556 73.8806C82.8663 74.9123 81 74.6217 78.7837 72.9942C78.2587 72.6164 77.8942 72.2822 77.9671 72.2531C78.04 72.2386 78.7107 72.4275 79.469 72.6745C81.3936 73.3139 83.4496 73.4156 84.4119 72.9215C84.8056 72.7181 85.2284 72.3403 85.4763 71.9625C85.7971 71.4829 85.9721 71.3522 86.2928 71.3522C86.5261 71.3522 87.1969 71.1342 87.7947 70.8581C88.6258 70.4803 89.0049 70.2187 89.3548 69.7247C89.7923 69.1579 89.8214 69.0272 89.7777 68.2715C89.7048 67.3125 89.6465 67.2108 89.2673 67.3997C89.0924 67.5014 88.932 67.8501 88.8153 68.4023C88.5675 69.6229 88.028 70.117 86.9927 70.1025C86.1033 70.0879 85.2867 69.7101 84.5869 68.9836L84.1057 68.4895L85.1701 68.4169C85.7533 68.3733 86.4532 68.2425 86.7157 68.0972C87.2843 67.8065 88.0425 66.8039 88.6404 65.5687C88.9611 64.9148 89.1507 64.6678 89.2965 64.7259C89.4132 64.7695 90.0839 64.9148 90.7838 65.0456C92.5189 65.3653 95.158 65.2636 96.587 64.8131C98.4825 64.2173 100.086 63.2001 100.918 62.0522C101.574 61.1803 102.93 58.6809 102.93 58.3903C102.93 57.9108 102.667 58.1287 101.865 59.2622C100.918 60.599 100.291 61.1803 99.1678 61.747C97.3452 62.6625 95.5663 62.924 93.4229 62.5753C91.9794 62.3428 90.011 61.7761 89.3694 61.3983L89.0049 61.1948L89.4569 61.1803C89.7048 61.1803 90.1714 61.0059 90.4776 60.788C91.0171 60.4247 91.1337 60.4101 93.1605 60.3665C96.7911 60.3084 100.013 59.3784 100.845 58.1433C101.165 57.6783 101.311 56.6756 101.063 56.6756C100.845 56.6756 100.597 57.0244 100.597 57.344C100.597 57.8817 99.7948 58.5356 98.745 58.8553C97.5493 59.2186 95.7121 59.2476 93.5541 58.8989C91.7753 58.6228 91.8628 58.7681 92.5772 57.1842L92.9855 56.2833L93.802 56.1815C95.4788 55.9926 97.1994 55.2515 98.22 54.278C98.8908 53.624 98.9928 53.3044 98.4388 53.6095C98.22 53.7258 98.1326 53.7258 98.0742 53.5805C98.0451 53.4787 97.7243 53.6822 97.2577 54.1036C96.2662 54.99 95.3913 55.2515 93.6562 55.1934L92.3585 55.1498L93.0876 54.8156C93.4958 54.6267 94.0936 54.2198 94.429 53.8856L95.0268 53.2898L97.1994 53.1009C100.203 52.8394 101.311 52.4615 102.901 51.1828C103.805 50.4417 103.907 50.1947 103.484 49.7442C103.309 49.5408 102.857 49.1775 102.507 48.9305L101.865 48.4945L103.017 48.1167C103.659 47.9133 104.402 47.6081 104.679 47.4483C105.744 46.8089 106.575 45.2105 106.575 43.7719C106.575 43.2487 106.531 43.147 106.327 43.1906C106.137 43.2197 106.035 43.4376 105.977 43.9026C105.744 45.5011 104.738 46.8089 103.542 47.0705C102.215 47.3465 100.684 46.8525 99.474 45.7336C98.6866 45.007 97.3598 43.3214 97.4618 43.1615C97.5056 43.1034 97.8118 43.1034 98.1471 43.1906C99.0512 43.394 99.5323 43.3795 99.9552 43.147C100.174 43.0453 100.903 42.2025 101.603 41.3015C103.032 39.427 103.484 38.715 103.323 38.5697C103.28 38.5115 102.696 38.744 102.04 39.0637C100.961 39.6305 100.772 39.674 99.7219 39.674C98.4096 39.674 97.8555 39.5142 95.9163 38.5842C94.3853 37.8576 94.4144 37.8431 97.1702 38.3081C98.57 38.5261 98.9783 38.5406 100.451 38.3953C103.294 38.1192 104.082 37.6978 104.986 35.9831C105.233 35.5036 105.671 34.7915 105.933 34.4283C106.706 33.3675 106.59 33.2512 105.379 33.847C104.359 34.3556 104.3 34.3701 102.58 34.3701C101.092 34.3701 100.684 34.312 100.013 34.0359C99.5761 33.8615 99.1095 33.6581 98.9928 33.5709C98.5846 33.3239 98.9928 33.2367 99.6781 33.4401C100.757 33.7453 104.286 33.7162 105.088 33.382C105.423 33.2512 105.89 33.135 106.108 33.135C106.327 33.135 106.764 32.9897 107.085 32.8153C107.406 32.6555 108.048 32.3939 108.514 32.2486C109.549 31.9434 110.191 31.4639 110.935 30.4758C111.649 29.5167 111.912 28.7901 111.635 28.5286C111.474 28.3542 111.343 28.4559 110.862 29.0953C110.118 30.098 109.36 30.5194 108.325 30.5194C106.692 30.5194 104.825 29.88 102.842 28.6594C100.407 27.1626 98.57 26.4651 96.9515 26.4361C96.2808 26.4361 96.2079 26.407 96.4995 26.2908C97.2869 25.9711 99.4157 26.5087 103.192 27.9619C105.015 28.6594 106.079 28.9209 107.114 28.9209C108.529 28.9209 109.214 28.6012 110.308 27.4242C110.833 26.8575 111.387 26.1455 111.547 25.8403C111.722 25.4915 112.13 25.0992 112.641 24.7795C113.661 24.1256 114.244 23.5008 114.536 22.7161C114.871 21.8442 114.711 21.6117 114.274 22.3237C113.588 23.3845 112.728 23.9512 111.299 24.2709C110.774 24.3872 110.585 24.3872 110.497 24.2419C110.41 24.1111 110.308 24.1256 110.089 24.329C109.841 24.5615 109.637 24.5906 108.864 24.518C108.368 24.4744 107.756 24.3581 107.523 24.2709L107.085 24.0965L107.785 23.8205C108.791 23.4281 109.17 23.152 110.089 22.222C110.541 21.757 111.066 21.3501 111.255 21.3065C111.445 21.2775 112.101 21.1758 112.699 21.0886C113.297 21.0014 114.142 20.7544 114.551 20.5509C115.44 20.1295 116.475 18.9961 116.913 17.9789C117.161 17.4122 117.336 17.2378 117.831 17.0198C118.531 16.7147 121.258 14.0264 121.666 13.2272C121.958 12.675 122.002 12.675 120.5 13.2417C119.756 13.5178 119.333 13.5759 117.656 13.5759C116.461 13.5905 115.28 13.5033 114.667 13.3725L113.647 13.169L116.854 12.9947C120.383 12.8058 121.141 12.6459 122.279 11.8758C122.935 11.4253 123.926 10.3064 123.926 10.0303C123.926 9.95764 123.693 9.97217 123.401 10.0448C123.124 10.132 122.745 10.1756 122.57 10.1465C122.293 10.103 122.337 10.0448 122.847 9.78327C123.693 9.3328 124.364 8.73702 124.364 8.44639C124.364 8.01045 124.203 7.99592 123.722 8.3592C122.891 8.99858 122.089 9.20202 120.354 9.21655C118.896 9.23108 118.079 9.11483 118.269 8.92592C118.313 8.89686 119.085 8.79514 119.989 8.72248C122.949 8.46092 124.48 7.92327 125.501 6.76077C126.084 6.09233 126.755 4.94436 126.624 4.82811C126.58 4.78452 126.172 4.95889 125.691 5.22045C124.903 5.64186 124.728 5.67092 123.445 5.67092C122.672 5.67092 122.002 5.6128 121.958 5.52561C121.899 5.43842 122.191 5.3803 122.731 5.3803C124.145 5.3803 125.195 5.1042 125.705 4.59561C126.318 3.9853 126.536 3.38952 126.711 1.92186C126.784 1.22436 126.886 0.512328 126.93 0.337953C127.09 -0.272359 126.492 -0.0398593 125.428 0.904672ZM92.2273 20.798C92.1106 21.074 91.7753 22.3673 91.4836 23.6897C90.7692 26.8575 90.5942 27.0173 91.0608 24.0675C91.3378 22.2801 91.6149 21.3065 92.0086 20.6526C92.3731 20.0569 92.5043 20.1295 92.2273 20.798ZM98.2492 21.6117C97.9867 22.1494 97.7535 22.5126 97.7097 22.4109C97.6805 22.3092 97.8701 21.8006 98.1471 21.292C98.7741 20.0714 98.8616 20.333 98.2492 21.6117ZM108.689 21.3647C108.995 21.4664 108.573 21.4955 107.202 21.4664C105.788 21.4519 105.233 21.3792 105.088 21.2339C104.927 21.074 105.161 21.0595 106.575 21.1322C107.508 21.1903 108.456 21.292 108.689 21.3647ZM104.534 22.2365C105.131 22.4109 105.919 22.5272 106.648 22.5272C107.712 22.5417 107.785 22.5562 107.537 22.7451C107.129 23.0503 105.846 23.0212 104.781 22.658C102.959 22.0476 102.755 21.6989 104.534 22.2365ZM89.7923 25.1428C89.4132 27.4242 88.8591 29.6184 88.6987 29.4586C88.6695 29.4295 88.6987 29.0808 88.7862 28.6884C88.8737 28.2961 89.107 26.9737 89.2965 25.7531C89.6173 23.7769 89.9964 22.3673 90.1568 22.5417C90.1859 22.5708 90.0256 23.7478 89.7923 25.1428ZM83.3766 29.7928C83.1434 30.4322 82.7205 31.7545 82.4289 32.7426C82.1518 33.7162 81.8456 34.5736 81.7727 34.6608C81.5978 34.8206 81.6561 34.4864 82.1081 32.8444C82.6768 30.6937 83.1288 29.2987 83.3475 28.9645C83.7849 28.2961 83.7995 28.6448 83.3766 29.7928ZM81.4082 31.5947C81.277 32.0887 80.9708 33.0333 80.7667 33.7162C80.5479 34.3992 80.2563 35.4309 80.1105 35.9976C79.8189 37.102 79.5127 37.4653 79.6731 36.5062C80.1688 33.6581 81.452 29.633 81.6269 30.4612C81.6561 30.6065 81.554 31.1151 81.4082 31.5947ZM89.6027 39.9647C91.7753 40.7058 93.2917 41.3742 94.0062 41.8828C94.4144 42.188 94.7644 42.5076 94.7644 42.5948C94.7644 42.7547 94.7644 42.7547 93.6416 42.0426C92.5481 41.3451 89.7048 40.2989 88.2321 40.0373C87.5322 39.9211 86.9052 39.8194 86.8469 39.8194C86.774 39.8194 86.774 39.7467 86.8323 39.6595C86.9636 39.427 88.5383 39.6014 89.6027 39.9647ZM74.8468 40.9237C75.0072 41.3451 74.9343 41.9264 74.6864 42.2897L74.4385 42.6384L74.351 42.217C74.1469 41.2289 74.5552 40.1681 74.8468 40.9237ZM74.7885 43.6556C74.7885 44.542 73.0825 49.1194 72.7471 49.1194C72.6597 49.1194 72.6888 48.9159 72.8346 48.5672C73.3012 47.5355 73.899 45.6755 74.0594 44.7455C74.2781 43.583 74.4531 43.118 74.6427 43.2342C74.7302 43.2778 74.7885 43.4667 74.7885 43.6556ZM92.4314 47.6808C93.35 47.9859 94.4873 48.3492 94.9685 48.4945C96.3683 48.9305 95.9892 49.3083 94.4873 48.974C93.175 48.698 92.0231 48.262 90.3901 47.4483C88.3196 46.402 87.9842 46.0969 89.5152 46.6636C90.2005 46.9106 91.5128 47.3756 92.4314 47.6808ZM83.2892 49.9767C84.1932 50.2819 85.243 50.7033 85.6367 50.9212C86.5261 51.3862 90.4338 52.6795 91.7461 52.9265C92.7814 53.1155 92.9272 53.3189 92.169 53.5369C91.8482 53.624 91.4253 53.595 90.7546 53.4206C89.8214 53.1881 86.4241 51.8367 84.1203 50.7905C83.2308 50.3836 82.8226 50.2819 81.9331 50.2528C80.8833 50.2237 77.8067 50.4853 77.1943 50.6597C76.9319 50.7323 76.9319 50.7178 77.1214 50.5289C77.4276 50.2383 78.215 49.9912 78.8566 49.9912C79.1482 49.9912 79.746 49.8605 80.1834 49.7006C81.277 49.3228 81.4374 49.3228 83.2892 49.9767ZM73.5928 49.7297C73.5491 49.8314 73.0679 49.9912 72.5138 50.093C71.2307 50.3109 71.0412 50.3255 71.2307 50.1365C71.6682 49.7006 73.7095 49.3519 73.5928 49.7297ZM96.2808 49.7733C95.8288 50.122 95.0851 50.0203 95.4497 49.657C95.4934 49.5989 95.7704 49.5553 96.0621 49.5553C96.5432 49.5553 96.5578 49.5698 96.2808 49.7733ZM102.274 51.0375C102.478 51.2409 100.743 51.4444 98.9491 51.4444C97.1119 51.4444 95.6975 51.2409 96.0475 51.023C96.237 50.9067 102.157 50.9212 102.274 51.0375ZM81.3936 53.5369C82.7059 53.8711 84.4119 54.525 84.4119 54.6848C84.4119 54.8011 83.3475 54.6558 81.277 54.278C78.1421 53.7112 77.0194 53.5805 75.5029 53.6531C74.7156 53.6967 74.1032 53.6676 74.1469 53.6095C74.5552 52.9265 78.9295 52.883 81.3936 53.5369ZM65.3692 55.7456C65.3692 58.1142 65.063 60.4392 64.7276 60.8025C64.5527 60.9769 64.5672 56.4722 64.7422 54.9319C64.9172 53.4351 64.9901 53.159 65.2088 53.2317C65.34 53.2753 65.3838 53.9873 65.3692 55.7456ZM59.1869 57.2133C59.1869 57.6056 59.1723 58.0415 59.1723 58.2014C59.1431 59.6981 59.2015 61.9795 59.3327 64.0865C59.4347 65.7431 59.4493 66.8329 59.3618 67.2108C59.2452 67.6758 59.2015 67.7194 59.1723 67.4287C59.1285 66.9637 59.0848 66.644 59.0411 66.5569C59.0265 66.5133 58.9973 65.6705 58.9682 64.6678C58.9536 63.6651 58.8515 62.2556 58.764 61.5436C58.5599 59.8725 58.5599 58.2014 58.764 57.2569C58.9536 56.3414 59.2015 56.3123 59.1869 57.2133ZM83.1725 62.1248C84.5431 62.7933 86.3366 63.607 87.1677 63.9558L88.6841 64.5806L88.2904 64.9148C87.7218 65.4089 86.774 65.3653 85.5929 64.8131C84.514 64.3045 82.633 63.0984 81.0583 61.9214C80.4605 61.4564 79.746 60.9623 79.4981 60.817C79.2357 60.6572 79.0169 60.4828 79.0169 60.4247C79.0169 60.2212 80.6208 60.8897 83.1725 62.1248ZM73.1262 61.0931C74.4969 61.4564 75.6633 62.1975 77.0631 63.578C78.3462 64.8567 80.7958 68.1844 80.2126 67.8792C79.7606 67.6322 78.3316 66.0337 77.5589 64.8858C77.1652 64.3045 76.5236 63.5634 76.1445 63.2292C74.8031 62.0958 72.7326 61.3256 70.9683 61.3256C70.0934 61.3256 69.6851 61.0931 70.3704 60.9914C71.2599 60.8606 72.4264 60.9042 73.1262 61.0931ZM70.2684 65.5833C71.2307 65.9756 73.4616 67.3997 73.4762 67.6176C73.4762 67.6903 73.2575 67.6031 73.0096 67.4287C71.4786 66.4115 68.7374 65.4089 67.4105 65.3798C66.9439 65.3798 66.9002 65.3508 67.1335 65.2345C67.6438 65.002 69.2623 65.1764 70.2684 65.5833ZM56.4019 68.6929C56.4894 69.1434 56.5623 69.9717 56.5477 70.5384C56.5331 71.512 56.5186 71.5411 56.3873 70.9889C56.3144 70.6692 56.1249 69.9717 55.9499 69.4486C55.7312 68.6784 55.702 68.4169 55.8187 68.1698C56.0811 67.6903 56.2124 67.8065 56.4019 68.6929ZM67.0606 73.6626C67.775 73.8225 68.5478 74.055 68.7665 74.1858L69.1748 74.4183L68.7374 74.3456C65.3838 73.7498 62.73 73.6772 61.3886 74.1712C60.1638 74.6217 60.2221 74.4037 61.5198 73.6772C62.3218 73.2267 62.3218 73.2267 64.0423 73.2994C64.9755 73.3429 66.3315 73.5173 67.0606 73.6626ZM49.2718 75.45C50.0155 77.8767 50.9924 82.7301 50.7882 82.9626C50.6716 83.0934 50.5695 82.8319 50.0155 80.9283C49.3447 78.6614 49.0531 77.3826 48.8344 75.8133C48.6594 74.4328 48.6594 74.4037 48.8198 74.4037C48.8927 74.4037 49.0969 74.8833 49.2718 75.45ZM62.9779 76.2201C62.9779 76.2492 62.4967 76.4236 61.9281 76.5979C61.3448 76.7723 60.4846 77.0339 60.0326 77.1792C59.0848 77.4989 59.0411 77.4989 59.0411 77.339C59.0411 77.0484 61.5927 76.162 62.4384 76.1475C62.73 76.1475 62.9779 76.1765 62.9779 76.2201ZM43.6582 79.6495C43.5269 80.0854 43.3666 80.565 43.2936 80.7248C43.1916 80.9864 43.177 81.0009 43.0749 80.7539C42.9145 80.3906 43.1187 79.5769 43.454 79.1264C43.629 78.9229 43.7894 78.7776 43.8331 78.8067C43.8623 78.8503 43.7894 79.2281 43.6582 79.6495ZM39.1964 88.2956C39.3714 88.8623 39.5901 89.4145 39.7067 89.5017C39.8963 89.6615 39.8525 89.7778 39.4734 90.3154C39.2256 90.6642 38.9631 90.9258 38.9048 90.8822C38.584 90.6933 38.3507 87.9323 38.584 87.0459C38.6715 86.7262 38.6861 86.7117 38.7881 86.9733C38.8465 87.1331 39.036 87.7289 39.1964 88.2956ZM66.769 87.8451C67.6876 87.9759 68.9998 88.1648 69.6851 88.2665C71.7411 88.6153 73.5783 88.6734 74.6427 88.4409C75.4738 88.2665 75.6342 88.2665 75.882 88.4409C77.9671 89.9376 79.3669 90.5915 80.825 90.7659C81.6561 90.8676 81.7873 90.9984 81.7873 91.8267C81.7873 92.1754 81.7727 92.1754 80.7375 92.0737C78.3171 91.8558 76.1591 91.3036 69.2477 89.182C67.046 88.499 65.0047 87.9033 64.7276 87.8451C64.4506 87.787 64.1152 87.6853 63.9986 87.6126C63.7653 87.4673 64.0132 87.4819 66.769 87.8451ZM85.0826 87.8742C84.8056 88.4119 84.3244 88.8333 83.537 89.2547C82.2977 89.894 79.0753 89.6325 78.4191 88.8478C78.2587 88.6589 78.3316 88.6444 79.0315 88.7461C80.9416 89.0222 83.1725 88.6589 84.4848 87.8597C85.2284 87.3801 85.3451 87.3947 85.0826 87.8742ZM40.1442 90.6206C40.2754 90.6642 40.3775 90.7659 40.3775 90.8386C40.3775 91.042 39.9984 90.9839 39.7942 90.7514C39.6047 90.5189 39.7505 90.4608 40.1442 90.6206ZM40.9607 94.0209C41.6314 96.0117 42.5646 99.3684 42.5646 99.7462C42.5646 99.8334 42.4771 99.8044 42.3605 99.6881C42.1855 99.4847 41.7772 98.2204 40.5087 93.8175C40.1296 92.5387 39.9692 91.5215 40.1442 91.7104C40.1879 91.754 40.5524 92.7858 40.9607 94.0209ZM65.6025 92.7858C66.769 93.0619 68.8686 93.5559 70.2684 93.8901C71.6682 94.2098 72.8784 94.5295 72.9367 94.5876C73.2429 94.8783 70.3121 95.6194 68.8686 95.6194C68.1104 95.6194 67.8917 95.5322 66.1128 94.5295C64.1152 93.3961 62.1176 92.5678 61.3886 92.5678C61.1553 92.5678 60.4846 92.8003 59.9013 93.0764C58.4724 93.7594 58.0787 93.8175 56.8248 93.4978C55.4396 93.149 53.2962 93.149 52.1151 93.4978C51.6485 93.6431 50.8028 93.9773 50.2488 94.2534C49.1114 94.8201 49.0094 94.8347 49.2864 94.515C49.5635 94.1808 50.9486 93.5269 52.0422 93.2072C53.3253 92.8439 55.6583 92.8439 57.1747 93.2072L58.2974 93.4833L59.6535 92.8148L61.0095 92.1319L62.2489 92.2045C62.9342 92.2481 64.436 92.5097 65.6025 92.7858ZM92.9417 92.5097C92.4897 92.8729 91.4399 93.2944 90.2443 93.614C88.6404 94.0354 82.1518 94.1953 82.5601 93.7884C82.633 93.7158 84.9222 93.4397 88.4946 93.0764C89.7485 92.9456 91.2504 92.7276 91.8482 92.5823C93.2188 92.2336 93.2917 92.2336 92.9417 92.5097ZM76.9027 95.2561C79.9064 95.8083 79.8626 95.7792 78.4191 96.4912C77.136 97.1451 75.9258 97.4212 74.7885 97.305C73.0533 97.1451 73.1117 97.2178 73.8116 95.8954C74.2344 95.1108 74.4969 94.7765 74.6427 94.8201C74.7593 94.8492 75.78 95.0526 76.9027 95.2561ZM35.3179 98.8598C35.4345 100.139 35.7261 101.127 36.8635 103.946C37.33 105.123 37.6508 106.067 37.5633 106.038C37.4759 106.009 37.0238 105.268 36.5573 104.396C35.6678 102.711 34.8659 100.531 34.7346 99.3975C34.6617 98.7 34.9096 97.5956 35.1137 97.7264C35.1866 97.7554 35.2741 98.264 35.3179 98.8598ZM53.092 97.8717C53.7773 97.9879 54.8126 98.2495 55.4104 98.4675C60.9803 100.444 61.0532 100.458 63.8819 100.473C65.1505 100.487 66.1857 100.531 66.1857 100.575C66.1857 100.778 65.6608 100.851 64.1006 100.851C62.1905 100.851 61.4032 100.691 58.0787 99.7026C53.7628 98.4094 51.2403 98.017 49.5197 98.3803C49.0531 98.4675 48.6303 98.5111 48.5719 98.4675C48.397 98.2786 48.8636 98.0315 49.7384 97.8572C50.9924 97.6101 51.6485 97.6247 53.092 97.8717ZM53.719 103.757C54.9292 103.989 56.9122 104.295 58.137 104.44C59.3473 104.571 60.3533 104.745 60.3533 104.832C60.3533 105.007 57.5392 104.832 56.1249 104.571C50.7445 103.539 47.595 103.553 45.5245 104.6C44.7955 104.977 44.6497 104.992 44.9121 104.687C45.1454 104.396 46.4577 103.8 47.4492 103.539C48.7615 103.176 51.2548 103.263 53.719 103.757ZM41.5731 108.349C40.3191 111.473 39.3422 113.783 38.5548 115.527C38.1903 116.37 37.6362 117.678 37.3592 118.433C37.0676 119.189 36.2948 121.18 35.6241 122.865C34.268 126.338 33.0432 129.797 32.3142 132.238C30.754 137.44 30.3895 138.574 30.2729 138.734C30.0833 138.981 29.748 138.966 29.6459 138.705C29.5584 138.487 30.3604 135.784 31.4102 132.819C31.7747 131.817 32.2267 130.451 32.4454 129.768C32.8537 128.46 33.9618 125.525 34.7784 123.592C35.0408 122.953 35.7261 121.282 36.2802 119.887C36.8343 118.492 37.6362 116.588 38.0445 115.672C38.9485 113.667 40.1879 110.761 40.9753 108.77C41.8939 106.46 42.3459 105.559 42.3896 105.893C42.4188 106.067 42.0397 107.172 41.5731 108.349ZM57.2622 108.625C57.3059 108.668 56.9997 108.697 56.5769 108.697C56.154 108.697 55.3812 108.785 54.8418 108.901C53.4128 109.206 44.7517 109.337 44.7517 109.061C44.7517 108.727 45.0579 108.639 46.4285 108.552C48.0179 108.45 57.1455 108.509 57.2622 108.625ZM32.2121 110.34C32.4163 110.805 32.635 111.022 33.0578 111.211C33.8598 111.56 34.7201 112.665 34.9825 113.696C35.0846 114.074 35.0846 114.103 34.9388 113.871C33.8598 112.17 33.5973 111.865 32.9412 111.531C32.4017 111.255 32.1976 111.052 32.008 110.587C31.5997 109.555 31.7747 109.337 32.2121 110.34ZM59.0119 111.778C58.9682 111.88 58.4287 112.185 57.8017 112.447C56.956 112.795 56.4894 112.912 56.052 112.868C55.6 112.824 55.5416 112.795 55.7603 112.708C55.9207 112.65 56.5769 112.388 57.2184 112.127C58.4724 111.604 59.0994 111.487 59.0119 111.778ZM29.8063 113.74L30.9144 115.28L30.3749 115.832C29.9813 116.239 29.7771 116.355 29.6459 116.239C29.3105 115.963 28.8294 114.597 28.6981 113.58C28.6252 113.013 28.5232 112.432 28.4794 112.287C28.319 111.764 28.6835 112.17 29.8063 113.74ZM31.833 117.285C32.1392 117.939 32.4454 118.84 32.5183 119.291C32.6787 120.293 32.6933 121.921 32.5329 121.921C32.46 121.921 31.9643 121.005 31.4248 119.887C30.5645 118.157 30.4333 117.78 30.5062 117.329C30.5936 116.777 30.9582 116.108 31.1769 116.108C31.2352 116.108 31.5414 116.646 31.833 117.285ZM46.0203 120.163C46.1515 120.221 46.0932 120.395 45.8307 120.729C45.2037 121.514 44.2852 121.688 41.3252 121.572C39.9692 121.514 38.8319 121.441 38.7881 121.412C38.6715 121.282 39.2839 120.729 39.838 120.439C40.1587 120.279 40.6837 120.105 41.0044 120.032C41.6606 119.916 45.7287 120.017 46.0203 120.163ZM48.7469 120.264C49.2573 120.337 49.3885 120.41 49.2718 120.54C49.024 120.846 46.7931 121.732 46.7931 121.529C46.7931 121.485 46.9097 121.282 47.0555 121.078C47.2013 120.86 47.3763 120.57 47.4201 120.424C47.5221 120.148 47.7117 120.134 48.7469 120.264ZM42.3459 127.501C45.3787 127.792 44.1393 127.951 40.5378 127.748C37.5779 127.574 36.2219 127.646 35.697 127.951C35.6241 128.01 35.5657 127.937 35.5657 127.821C35.5657 127.138 37.4613 127.05 42.3459 127.501ZM40.5087 129.913C40.6545 130 39.9984 130.044 38.584 130.058C36.8051 130.058 36.2802 130.117 35.5512 130.349C35.0554 130.523 34.618 130.611 34.5742 130.567C34.3993 130.393 35.0992 129.899 35.7116 129.768C36.4843 129.608 40.1733 129.724 40.5087 129.913Z" fill="#4A5568"/>
</svg>
